<svg xmlns="http://www.w3.org/2000/svg" width="333.4" height="333.5" viewBox="0 0 333.4 333.5"><g stroke-miterlimit="10" data-paper-data="{&quot;isPaintingLayer&quot;:true}" style="mix-blend-mode:normal"><path fill="#ff5353" d="M166.7 333.5C74.7 333.5 0 258.8 0 166.7 0 74.7 74.7 0 166.7 0c92.1 0 166.7 74.7 166.7 166.7.1 92.1-74.6 166.8-166.7 166.8"/><g fill="#fefffe"><path d="M149.1 63.3c4.5-1.4 9.5-1.4 13.9.2 7.1 3 12.5 10.3 12.4 18.2.4 9.9-7.9 19.1-17.8 19.8-10 1.3-20.1-6.3-21.3-16.4-1.7-9.1 4.1-18.8 12.8-21.8M242.9 69.9c8.9-3 19.1-1.3 26.9 3.7 5.6 3.6 5 13.4-1.2 16-5 2.5-10.3-.5-15.3-1.4-3.9-1-8.1.3-11.3 2.8-5.8 4.3-10 11.3-9.7 18.7-.1 7.1 2.9 14.4 8.3 19.1 10.3 7.8 27.1.6 29.2-12-6.9-1.1-13.5 6.1-20.1 1.9-3.6-3.8-1.5-10.1 3.1-12 7.9-3.6 16.2-7.4 25-7.2 5.3 0 9 5.2 9.1 10.1 1.6 14.7-8.2 29.2-21.9 34.3-12 5-26.3 3-37-4.3-.4 3-.4 6.4-2.8 8.6-3.1 2.8-7.2 4.8-11.5 5.1-4-.2-6.8-3.6-8.9-6.7-3.8-6.1-6.9-12.6-9.9-19.1-.5-1.2-1.3-2.1-2.2-3 1.3 8.9 5.1 17.3 5.8 26.2.3 4.6-4.4 8.1-8.8 7-3.9-.3-5.5-4.6-5.9-7.9-2.5-13.5-5.1-27-8.8-40.2-.5-2.2-.6-4.7.9-6.5 2.9-4 7.9-6.1 12.7-6.4 4.4.1 7.5 4 9.4 7.6 3.5 7.2 7 14.4 10.2 21.8 1.2 2.5 2 5.3 4.3 7-2.7-8.7-5.3-17.5-8-26.3-1.3-4.3-3.6-8.5-3.5-13.1.4-5.8 8.4-9 12.6-5.1 1.6 1.2 1.4 4.2 3.5 4.8 5.4-10.7 14.1-20.4 25.8-23.5M48.6 101.6c9.2-3.7 19.7-6.7 29.5-3.2 10.5 3.6 15.4 16.9 11.3 26.9-1.2 3.6-4.1 6.1-6 9.4 5.7-.6 11.4-.4 16.9.9 1.2-11.5 8.7-22.2 19.3-26.9 10.4-4.6 23.8-4 32.8 3.4 1.8 1.5 3.4 3.2 5 4.8.1-.7.4-2.2.6-3 1.3-4.4 7.2-6.7 11.2-4.6 1.8 1 2.9 2.8 3.6 4.6 2.4 6.6 3.9 13.5 5.4 20.3 1.4 6.4 2.8 12.9 2.9 19.4-1.1 3.3-5.3 4.7-8.2 2.9-3.3-1.8-3.8-5.8-5.1-8.9-1.7 5.1-2.4 10.7-5.8 15.1-9.7 14.6-31.3 18.7-46.1 9.8-1.8 4.9-3.9 9.8-7.3 13.7-7.1 8.4-17 13.9-27.1 17.8-7.6 2.9-16.8 2.3-23.3-2.8-3.6-2.8-5.1-7.3-6.5-11.4-5.7-19.2-11-38.5-15-58.1-1.2-6.2-3.3-12.6-1.5-18.9 1.9-5.7 8-8.8 13.4-11.2m10.5 12.6c-2.6.9-6.6 2.1-6.3 5.6.2 4.5 1.5 8.8 2.9 13 .7 1.8 1.6 4.5 4.1 3.9 8.1-.9 15.2-9.5 12.6-17.7-1.7-5.3-8.6-6.6-13.3-4.8m69 10c-7.1 1.7-12.8 8.3-13.2 15.6-.7 7.8 2.8 16.1 9.2 20.7 8 5.1 19.6 2.3 24.6-5.7 5.2-7.7 4-18.8-2.5-25.4-4.5-4.9-11.8-6.9-18.1-5.2m-57 27c-4.5 1.1-8.7 5.6-7.5 10.5 1.6 6.9 2.8 14 5.6 20.6 1.5 3.9 6.6 4.2 9.9 2.7 5.9-2.5 11.6-7 13.6-13.3 2.4-7.5-.6-17.5-8.5-20.4-4.2-1.3-8.9-1.2-13.1-.1"/></g></g></svg>