<svg xmlns="http://www.w3.org/2000/svg" width="410" height="500" fill="none" viewBox="0 0 410 500"><g clip-path="url(#a)"><path fill="#ff5353" d="M341 288.3c-19.6-94.8-111-155.5-204.1-135.6-93.2 20-152.8 113.1-133.2 207.9s111 155.5 204.1 135.6c93.2-20 152.8-113.1 133.2-207.9"/><path fill="#fff" d="M286 252.4c-6.3.5-12.3 2.9-18.1 5.3-3.7 1.5-9.4 3.6-10.4 8.1-.7 3.3.3 7.4 3.8 8.4 4.1 1.3 7.6-.9 11.5-2.1 1.7-.5 7.6-3.1 6.8.2-2.2 10-13.5 16.3-23.2 14.4-1.6-.3-3.1-.8-4.5-1.6-2.5-1.4-4.5-3.5-6.1-5.9-3.2-4.9-5.4-11.4-4.7-18.6.8-9 10.1-21.1 19.8-20.2 4.1.4 7.8 2.1 11.9 2.8 4.8.8 9.2-2.1 10.9-6.3.7-1.8.9-3.9.4-6-1.6-6.4-9.1-9.1-14.7-10.5-3.2-.8-6.6-1.2-9.8-.8-17.5 1.7-28.4 13.6-34.5 27.3-.9-3-3.1-7.5-6.6-7.8-4.5-.4-9.5 2.2-9.9 7.1-.4 4.1 1.8 8.2 3 11.9 1.6 5.1 7.5 25.3 9 30.3.3.8-.3.8-.6.3-.2-.3-.4-.7-.5-1.1-.5-1.1-1.1-2.1-1.6-3.2-1-2.1-2-4.2-2.9-6.3-1.2-2.9-2.5-5.7-3.9-8.6-1.6-3.4-3.2-6.9-4.8-10.3-1.1-2.4-4.8-10.1-11.2-9.7-3.8.2-9.7 2.8-12 5.7-3.4 4.4-2 7.7-.6 12.6 2.7 9.5 7.4 34.9 8.4 39.8.8 4 3.2 7.3 7.2 7 8.9-.5 8.5-7.9 7-13.9-1.2-5-4.7-18.6-5.2-20.8-.1-.4-.2-1 .3-1.1.3 0 .7 1 .9 1.4.3.8.7 1.6 1.1 2.4 4.2 9 6.9 14.4 9.4 18.7 2.2 3.9 5.9 8.7 10.8 8.3 3.4-.3 7.5-2.5 10.2-4.5 3.7-2.9 4.2-5.7 3.7-10.2 0 0 2.1 1.3 2.6 1.6 9.4 6.3 19 6.1 23 6.1 4.3 0 27.4-2.5 34.8-26.4 3.1-9.8 2.5-24.8-10.7-23.8M145.7 318.1c-6.8 3.2-14.6 1.6-19.3-2.5-3.9-3.4-7.5-10.3-7.7-17.4-.2-6.6 2.2-12 6.4-15.5 3-2.5 6.8-4.2 11.3-4.4 22.5-.8 28.7 30.7 9.3 39.8m-62.6 24.4c-4.2 2.3-10.2 2.7-12.1-2.6-1.7-4.6-2.9-9.4-3.9-14.2-.4-1.8-.8-3.6-1.3-5.4-3.8-13.2 14.6-16.5 23.1-11.8 2.4 1.3 4.9 4.1 5.9 6.8 5.8 15.1-4.4 23.2-11.7 27.2m-24.2-51.2c-1.8-1.5-4.2-11.5-4.8-16.2-.3-2.5.8-4.2 1.7-4.7 3.9-2.4 9.8-3.9 14-2.1 3.9 1.7 5.8 5.7 5.2 9.9-.5 3.7-2.5 8-6.2 10.6-2.3 1.6-7.3 4.6-9.9 2.5M177.6 265c-5.1-7.3-18.7.6-13.1 8.2-3.9-5.2-8.5-10-15.4-12.4-7.1-2.5-16.5-2.5-23.5.5-13.5 5.7-20.6 17.4-22.1 29.8-5.9-2.2-12.8-2.1-18.6-.8.6 0 4.6-4.6 6.4-8.3 3.5-6.7 3.1-13.8-.1-20.6-8.4-18.1-34.4-11.4-47.6-3.5-7.6 4.6-10.2 10.6-8.5 19.6 3.8 20.4 8.8 41.1 14.6 60.9 1.6 5.6 2.7 10.4 4.8 15.8 4.4 10.9 18.4 13.8 28.3 10 23.6-9.1 33.7-21.8 36.7-34 4.7 3.1 10.3 5 17 5.2 20.3.5 35.5-13.3 37.1-32.9 1.4 4.6 1.9 11.2 8 11.6 6.9.5 6.4-5.9 5.7-10.7-1.1-7.4-5.8-32.8-9.7-38.4M161.5 254.9c11.4-.1 20.5-9.6 20.4-21.2s-9.4-20.9-20.8-20.8-20.5 9.6-20.4 21.2 9.5 20.9 20.8 20.8M208.6 70.2c3.8 0 12.7.5 17.4 8.8 3.2 5.7 4 11.2 2.4 16.4-1.6 5.3-5 12.2-17 18.9-4.4 2.4-5.6 6.5-5.6 8.6-.1 4 .9 6.6 1.5 8.2l.3.9c.3.9 1 3.1 2.1 6.1 2.3 6.7 5.8 16.9 6.7 20.1 1.1 4.2.8 11-5 12.8-1.2.4-2.4.6-3.4.7-6.2.5-8.5-4.6-10.1-7.9-1.3-2.7-13.7-43.8-20.9-67.7-.8-5.1-1.5-9.8 5.7-16.1 7.3-6.3 19.3-9.7 25.2-9.7.2-.1.4-.1.7-.1m42.9 15.4c-.8-5.8 1.9-9.9 4.7-11.3 1-.5 2-.7 2.9-.7.8 0 1.6.2 2.3.4 2.6 1 4.4 3.4 4.9 4.7.3.6.6 2 1 3.8 1.6 6.7 5 20.6 11.9 24.5 2 1.2 4.2 1.3 6.6.6 1.5-.5 2.6-1.5 3.4-3 3.2-6.4-.6-19.8-4.2-30.7-.6-1.8-.9-2.6-1-3.2-.4-2.1 0-4.1 1.1-5.8 1.2-1.8 3.2-3.1 5.3-3.4 3.4-.6 7.4 1.6 8.8 4.9 2.1 5 5.9 17.3 7.3 22.9 1.8 7.7 2.6 29.1-15.1 35.9-2.4.9-4.9 1.5-7.2 1.6-4.1.3-8.1-.7-11.7-2.9-15.4-9.6-20.9-38.1-21-38.3m-20.8 26.7c1-.5 2.3-.9 3.5-.9 2.4 0 5 1.2 6.8 4.1 1.2 2 3.6 10 5.5 16.4 1.4 4.7 2 6.7 2.3 7.4.2.3.3.8.5 1.4.5 1.6 1.2 3.8 3.3 4.7 1.8.7 5.3.7 12.1-3.4 2.4-1.4 5.3-1.8 7.9-1 2.1.7 3.7 2 4.5 3.8 1.5 3.2 1.3 9.4-2.9 12.1-4 2.6-21.6 8.2-24.9 8.9-.6.1-1.2.2-1.7.2-4.3.2-5.8-2.4-6.7-4.1-1-1.9-13.2-38.3-13.9-40.4-1-4 .4-7.5 3.7-9.2m102.5 3.5c1-2.9 3.4-4.8 6.8-5.5.6-.1 1.1-.2 1.7-.2 1 0 2 .2 3.1.3 1.9.3 4.2.7 7.9.5 8.3-.4 12.2-6.5 12.7-10.7.3-1.7.4-4.3-.8-5.9-.7-.9-1.7-1.4-3.1-1.5-4-.3-9.9 2.7-15.7 5.6-4.7 2.4-9.6 4.8-13.7 5.6-9.9 1.9-11.6-4.3-12.7-8-.1-.3-6.7-25.6 12.2-37.2 17.9-11 31.5-.9 33 .3 2.9 2.3 3.5 4.9 2.2 8.5-.6 1.7-2.1 3.1-4.2 3.8-2.4.9-5 .7-7.2-.5-3.7-2.1-6.9-2.7-10.4-2.1-4.7.9-8.2 4.7-9.8 8-2.4 4.9-2.4 9.4-.1 10.9l.4.2c1.2.3 3.3-.5 8.7-2.9 8.3-3.8 20.9-9.5 29.5-2.1 4.5 3.8 8.7 11.1 7.2 20-1.6 9.6-6.7 17-14.8 21.6-4.5 2.6-10.1 4.2-15.8 4.5-4.4.3-8.6-.2-11.4-1.4-8-3.5-6.4-9.9-5.7-11.8m70.1 21.9c3.8-7.1 4.6-15.2 2.4-22.9l-26.4-91c-2.2-7.7-7.3-14-14.2-17.9s-14.9-4.7-22.5-2.5L170.9 55.1c-15.6 4.7-24.6 21.5-20 37.4l26.4 91c4.6 15.9 21.1 25 36.7 20.3l48-14.4.5.4c.6.5 1.1.9 1.6 1.1l42.7 31.3c4 2.2 9.1.6 11.3-3.5l19-49.6c.4-.7.6-1.2.8-2l.2-.6 47.9-14.4c7.3-2.2 13.5-7.4 17.3-14.4"/><path fill="#000" d="M337.7 167.2c-.2.7-.4 1.3-.8 2l-19 49.6c-2.2 4.1-7.3 5.7-11.3 3.5L264 190.9c-.5-.3-1-.7-1.6-1.2l-.5-.4-48 14.4c-15.6 4.7-32.1-4.4-36.7-20.3l-26.4-91c-4.6-15.9 4.3-32.7 20-37.4L342.7 3.5c7.5-2.3 15.5-1.4 22.4 2.5s12 10.2 14.2 17.9l26.4 91c2.2 7.7 1.4 15.8-2.4 22.9s-10 12.2-17.6 14.5l-47.9 14.4zm70.1-53.1-26.4-91c-2.4-8.2-7.8-15-15.2-19.1-7.5-4.1-16-5.1-24.1-2.6L170.2 53c-16.8 5-26.4 23.1-21.4 40.1l26.4 91c4.9 17.1 22.6 26.9 39.4 21.8l46.8-14.1c.5.4 1 .7 1.4 1l42.7 31.3c1.6.9 3.3 1.3 5 1.3 3.8 0 7.4-2.1 9.4-5.7l19-49.6c.3-.5.5-1.1.7-1.7l46.8-14.1c8.1-2.4 14.8-8 18.8-15.6 4.1-7.6 5-16.3 2.6-24.6"/><path fill="#000" d="M339.1 127.6c2.8 1.2 7 1.7 11.4 1.4 5.6-.4 11.2-2 15.8-4.5 8.1-4.5 13.2-12 14.8-21.6 1.5-9-2.7-16.2-7.2-20-8.6-7.4-21.2-1.6-29.5 2.1-5.4 2.4-7.5 3.2-8.7 2.9l-.4-.2c-2.3-1.4-2.3-6 .1-10.9 1.6-3.3 5.1-7.2 9.8-8 3.5-.6 6.7 0 10.4 2.1 2.2 1.2 4.8 1.4 7.2.5 2-.8 3.6-2.2 4.2-3.8 1.3-3.6.7-6.3-2.2-8.5-1.5-1.2-15.2-11.3-33-.3-18.9 11.6-12.3 36.9-12.2 37.2 1 3.7 2.7 10 12.7 8 4.1-.8 9-3.3 13.7-5.6 5.8-2.9 11.7-5.9 15.7-5.6 1.4.1 2.4.6 3.1 1.5 1.2 1.6 1.1 4.1.8 5.9-.6 4.3-4.4 10.4-12.7 10.7-3.6.2-6-.2-7.9-.5-1.1-.2-2.1-.3-3.1-.3-.6 0-1.1.1-1.7.2-3.3.7-5.7 2.6-6.7 5.5-1 1.9-2.6 8.3 5.6 11.8M195.8 90.2c2.4-1.7 5.5-2.9 8.1-3 1.2-.1 2.4.1 3.4.4 3.2 1.1 5 4.1 4.8 7.7-.2 2.8-1.4 6.7-4.5 9.2-1.3 1.1-4.2 3.3-6.3 3.3-.5 0-1-.1-1.4-.4-1.7-1.6-4.2-9.3-5.1-13.5-.5-2.1.4-3.3 1-3.7M176.9 96c7.2 23.9 19.6 65 20.9 67.7 1.5 3.3 4 8.4 10.1 7.9 1.1-.1 2.2-.3 3.4-.7 5.8-1.8 6.1-8.6 5-12.8-.9-3.2-4.4-13.4-6.6-20.1-1-3-1.8-5.1-2.1-6.1l-.3-.9c-.6-1.6-1.6-4.2-1.5-8.2 0-2 1.2-6.1 5.6-8.6 11.9-6.6 15.3-13.6 17-18.9 1.6-5.2.8-10.8-2.4-16.4-4.7-8.3-13.7-8.8-17.4-8.8h-.7c-5.9.1-17.9 3.5-25.2 9.7-7.3 6.4-6.5 11.2-5.8 16.2"/><path fill="#fff" d="M199.9 107.4c.4.3.9.4 1.4.4 2.2 0 5-2.2 6.3-3.3 3-2.5 4.3-6.4 4.5-9.2.2-3.7-1.6-6.6-4.8-7.7-1-.4-2.2-.5-3.4-.4-2.6.2-5.8 1.4-8.1 3-.5.4-1.4 1.6-1 3.7.8 4.3 3.4 11.9 5.1 13.5"/><path fill="#000" d="M240.9 162.1c.9 1.7 2.4 4.3 6.7 4.1.5 0 1.1-.1 1.7-.2 3.3-.7 21-6.3 24.9-8.9 4.2-2.7 4.4-8.9 2.9-12.1-.8-1.8-2.4-3.1-4.5-3.8-2.6-.8-5.5-.5-7.9 1-6.8 4.1-10.4 4.1-12.1 3.4-2.1-.8-2.8-3.1-3.3-4.7-.2-.6-.3-1.1-.5-1.4-.3-.7-.9-2.7-2.3-7.4-1.9-6.4-4.3-14.4-5.5-16.4-1.8-3-4.4-4.1-6.8-4.1-1.3 0-2.5.3-3.5.9-3.3 1.7-4.6 5.2-3.6 9.4.6 1.9 12.8 38.3 13.8 40.2M284.4 126.8c2.3-.2 4.7-.7 7.2-1.6 17.7-6.8 16.9-28.2 15.1-35.9-1.3-5.6-5.1-18-7.3-23-1.4-3.3-5.3-5.5-8.8-4.9-2.1.4-4.1 1.7-5.3 3.4-1.1 1.7-1.5 3.7-1.1 5.8.1.5.4 1.4 1 3.2 3.6 10.9 7.4 24.3 4.2 30.7-.8 1.5-1.9 2.5-3.4 3-2.4.8-4.6.6-6.7-.6-6.9-3.9-10.3-17.8-11.9-24.5-.4-1.8-.8-3.1-1-3.8-.5-1.3-2.4-3.7-4.9-4.7-.8-.3-1.6-.4-2.3-.4-1 0-2 .2-2.9.7-2.8 1.4-5.5 5.5-4.7 11.3 0 .3 5.5 28.8 21.2 38.3 3.6 2.2 7.5 3.2 11.6 3"/></g><defs><clipPath id="a"><path fill="#fff" d="M0 0h409.1v500H0z"/></clipPath></defs></svg>