<svg xmlns="http://www.w3.org/2000/svg" width="773" height="201" fill="none" viewBox="0 0 773 201"><path fill="url(#a)" d="M243.51 65.396C243.51 27.25 219.885 0 181.719 0c-38.156 0-61.781 27.25-61.781 65.417 0 8.667 1.229 16.771 3.562 24.125l7.583-.729c4.052 12.76 11.458 23.24 21.667 30.448l-7.604.729c9.781 6.927 22.135 10.833 36.573 10.833 19.01 0 34.396-6.781 45.073-18.292l7.542-.688c8.333-8.958 13.781-20.812 15.833-34.583l-7.573.729c.594-4.042.917-8.229.917-12.583zm-61.791-43.604c23.625 0 36.354 18.167 36.354 43.604 0 5.417-.594 10.49-1.729 15.135l7.573-.729C219.719 97 207.875 108.25 189.292 108.25c-16.135 0-27.188-8.49-32.562-21.979l-7.583.74c-2.49-6.25-3.771-13.552-3.771-21.615 0-25.437 12.719-43.604 36.354-43.604zm-74.5-18.146-1.823-1.823H83.594l-1.823 1.823v83.583h-1.812L30.896 3.635 27.25 1.813H1.823L0 3.646V101.5l7.573-.729v25.667l1.813 1.823h21.813l1.813-1.823V98.271L25.438 99V43.604h1.823l30.688 52.281 7.583-.729 17.927 30.542 31.333-2.875V90.354l-7.573.729zm292.573 0-1.823-1.823h-21.802l-1.823 1.823v61.625l7.573-.729v21.917h-1.812L368 65.833l-7.583.75-36.948-62.937-3.646-1.823h-25.438l-1.812 1.823v69.531l7.573-.729V105l-7.573.729v21.469l1.812 1.812h21.812l1.812-1.812v-23.052l7.573-.688v-33.5l-7.573.729V43.604h1.823l14.948 25.479 7.594-.729 18.073 30.802-7.583.729 16.031 27.302L372.53 129h25.438l1.823-1.813V96.635l7.562-.688V62.042l-7.562.729zm265.312 0-1.823-1.823h-27.26l-1.812 1.823-15.5 37.969 7.562-.729-13.833 33.896-7.562.729-7.01 17.177h-1.823l-5.521-13.542 7.594-.698-13.688-33.531-7.583.729-17.146-42-1.812-1.823h-27.26l-1.812 1.823v46.667l7.573-.729v32.552l-7.573.729v44.333l1.812 1.812h21.813l1.812-1.812v-44.74l7.573-.698V55.573h1.812l9.448 23-7.583.729 19.646 47.885 1.812 1.812h20l1.812-1.812L629.979 75.5l7.542-.698 7.896-19.229h1.812v15.833l-7.573.729v55.052l1.823 1.812h21.802l1.823-1.812V72.292l7.562-.698v-35.24l-7.562.729zM518.365 85.75l-13.156-33.188-7.583.729-19.699-49.645-1.812-1.823H452.49l-1.823 1.823-22.365 56.396 7.563-.729-13.427 33.854-7.562.729-6 15.135v18.167l1.812 1.812h16.354l1.823-1.812 9.083-23.625 3.635-1.812h45.427l3.646 1.812 9.073 23.625 1.823 1.812h16.354l1.812-1.812v-18.167l-8.948-22.573 7.604-.698zm-53.157-51.229 7.938 21.177 7.583-.729 8.406 22.396-1.823 1.823h-30.885l-1.823-1.812 7.75-20.667-7.563.729 8.594-22.917zM706.896 74.5h56.333l1.823-1.823v-9.583l7.562-.688V53.76l-1.813-1.823h-56.333l-1.812-1.823V32.5l-7.573.729v-7.781l1.812-1.813h59.969l1.813-1.823V3.646l-1.802-1.833h-85.417l-1.812 1.823v32.083l7.573-.74v32.552l-7.573.729v58.927l1.823 1.813h85.406l1.813-1.813V109.02l-1.813-1.823h-59.969l-1.813-1.812V76.313l1.813-1.812zM76.323 127.188 79.958 129h25.438l1.823-1.813v-3.521l-31.188 3.021z"/><path fill="#fff" d="M526.167 144.677h27.208c11.177 0 20.688 5.135 20.688 16.323 0 6.281-3.219 10.729-8.958 13.333v.229c4.438 1.688 6.74 4.74 7.656 9.031 1.458 6.594.24 14.479 2.229 15.021v.844h-15.792c-1.531-1.073-.906-7.812-2.073-12.719-1-4.219-2.833-6.354-7.5-6.354h-7.448v19.073h-16.01v-54.792zm16.01 24.292h8.583c4.594 0 7.125-2 7.125-5.833 0-3.594-2.292-5.896-6.896-5.896h-8.812zM596.51 144.677h16.323l20.312 54.792h-17.021l-2.677-8.052h-18.542l-2.687 8.052H576.28zm1.99 35.708h11.344l-3.438-10.729c-.854-2.687-2.083-7.052-2.083-7.052h-.146s-1.146 4.375-2.062 7.052zM636.115 144.677h25.292c15.781 0 26.74 10.104 26.74 27.51 0 17.469-10.417 27.281-27.438 27.281h-24.604v-54.792zm23.302 41.521c7.354 0 12.5-4.74 12.5-14.021 0-9.031-4.844-14.25-12.5-14.25h-7.281v28.271zM708.604 144.677h-16.021v54.792h16.021zM713.042 172.26c0-16.406 10.729-28.583 27.75-28.583 17.01 0 27.885 12.188 27.885 28.583s-10.875 28.5-27.885 28.5c-17.021 0-27.75-12.104-27.75-28.5m39.396 0c0-8.958-3.906-15.792-11.562-15.792-7.667 0-11.573 6.823-11.573 15.792 0 8.958 3.906 15.708 11.562 15.708 7.666.001 11.573-6.739 11.573-15.708"/><defs><linearGradient id="a" x1="0" x2="772.614" y1="100.38" y2="100.38" gradientUnits="userSpaceOnUse"><stop stop-color="#1101d4"/><stop offset="1" stop-color="#ff026c"/></linearGradient></defs></svg>