<svg xmlns="http://www.w3.org/2000/svg" width="185" height="185" fill="none" viewBox="0 0 185 185"><path fill="url(#a)" d="M87.206 2.14a7 7 0 0 1 9.9 0l84.969 84.97a7 7 0 0 1 0 9.899l-84.978 84.978a7 7 0 0 1-9.9 0l-84.97-84.97a7 7 0 0 1 0-9.899z"/><path fill="#fff" d="M37.5 90.89h5.942l8.174 12.445h.06V90.891h5.52v22.189h-5.58l-8.536-12.414h-.06v12.414H37.5zM71.282 108.702q2.353 0 3.635-1.829t1.282-4.888q0-3.088-1.282-4.827-1.282-1.74-3.635-1.74-2.382 0-3.664 1.74t-1.282 4.827q0 3.059 1.282 4.888 1.281 1.83 3.664 1.829m0 4.798q-2.021 0-3.996-.66a9.9 9.9 0 0 1-3.53-2.054q-1.553-1.393-2.503-3.568t-.95-5.233q0-3.057.95-5.232t2.504-3.568a9.9 9.9 0 0 1 3.529-2.054q1.975-.66 3.996-.66t3.982.66a10 10 0 0 1 3.514 2.054q1.553 1.395 2.503 3.568.95 2.175.95 5.232 0 3.059-.95 5.233-.95 2.175-2.503 3.568a10 10 0 0 1-3.514 2.054q-1.961.66-3.982.66M93.844 100.846q1.87 0 2.715-.57t.845-1.979q0-1.41-.845-1.964-.845-.555-2.715-.555h-2.593v5.068zm-8.506-9.955h8.718q2.14 0 3.86.374 1.72.375 2.911 1.23a5.54 5.54 0 0 1 1.825 2.234q.633 1.38.634 3.388 0 2.64-1.101 4.183-1.102 1.545-3.303 2.294l4.735 8.486h-6.394l-4.314-7.706H91.25v7.706h-5.912zM115.954 108.582q1.719 0 2.473-.629.754-.63.754-1.77 0-1.139-.784-1.724-.784-.584-2.503-.584h-2.956v4.707zm-.151-8.875q1.629 0 2.308-.581.678-.58.678-1.534 0-.981-.663-1.547-.664-.567-2.263-.567h-2.925v4.229zm-8.777-8.816h9.38q1.388 0 2.836.165t2.624.733q1.176.57 1.915 1.646.74 1.078.739 2.904 0 1.198-.347 2.08a4.5 4.5 0 0 1-.935 1.498q-.589.613-1.342.973a6.2 6.2 0 0 1-1.599.508v.06a9.2 9.2 0 0 1 1.901.541q.875.36 1.508.991t.995 1.592q.363.96.362 2.342 0 1.802-.769 3.003a5.7 5.7 0 0 1-1.961 1.892 8.5 8.5 0 0 1-2.669.976q-1.478.285-2.896.285h-9.742zM139.692 104.684l-2.051-6.147h-.06l-2.142 6.147zm-4.705-13.883h5.61l7.903 22.279h-6.093l-1.357-4.138h-7.028l-1.448 4.138h-5.49zM63.214 76.809q1.59 0 2.354-.506.762-.506.762-1.788 0-1.236-.762-1.742-.763-.506-2.354-.506h-2.488v4.542zm-6.112-7.496h6.257q1.53 0 2.746.28t2.06.906 1.294 1.6.45 2.338q0 1.97-.89 3.088-.888 1.119-2.576 1.633l3.713 6.713h-3.87l-3.453-6.243h-2.107v6.243h-3.624zM81.117 79.539 79.204 73.9h-.045l-1.958 5.639zm-3.579-10.293h3.49l5.896 16.625H83.21l-1.238-3.692h-5.671l-1.283 3.692H71.64zM94.357 82.917q1.355 0 2.315-.313.96-.314 1.558-.962t.87-1.667q.27-1.018.27-2.428 0-2.64-1.162-3.915-1.163-1.275-3.896-1.276h-1.671v10.561zm-5.34-13.604h5.11q1.912 0 3.544.425 1.632.426 2.825 1.399t1.868 2.54q.675 1.566.675 3.826 0 2.327-.686 3.926-.687 1.6-1.891 2.585t-2.824 1.42-3.512.437h-5.109zM105.853 69.313h3.623v16.558h-3.623zM120.178 83.23q.97 0 1.749-.39.778-.39 1.321-1.128.541-.736.835-1.786t.293-2.345q0-2.613-1.128-4.087-1.13-1.473-3.07-1.473-1.963 0-3.08 1.474t-1.117 4.086q0 1.295.293 2.345.294 1.05.835 1.786.542.737 1.32 1.128.78.39 1.749.39m-.011 2.954a8.4 8.4 0 0 1-2.926-.526 7.1 7.1 0 0 1-2.51-1.588q-1.091-1.063-1.755-2.674t-.664-3.804q0-2.17.664-3.793.664-1.621 1.755-2.684a7.1 7.1 0 0 1 2.51-1.59 8.4 8.4 0 0 1 2.926-.525q1.508 0 2.915.526 1.406.525 2.498 1.589 1.092 1.062 1.756 2.684t.664 3.793q0 2.193-.664 3.804t-1.756 2.674a7.1 7.1 0 0 1-2.498 1.588 8.3 8.3 0 0 1-2.915.526"/><path fill="url(#b)" d="M91.963 177a8.06 8.06 0 0 1-5.721-2.364L9.862 98.258a8.1 8.1 0 0 1 0-11.435l34.649-34.697a8.09 8.09 0 0 1 11.366-.087l9.244 8.98a2.05 2.05 0 1 1-2.857 2.941l-9.244-8.98a4.01 4.01 0 0 0-5.603.043L12.759 89.719a3.995 3.995 0 0 0 0 5.64l76.391 76.378a3.99 3.99 0 0 0 5.64 0l76.443-76.371a3.993 3.993 0 0 0 0-5.647l-34.377-34.315a4.01 4.01 0 0 0-5.591-.047l-8.915 8.606a2.05 2.05 0 0 1-2.841-2.95l8.903-8.606a8.095 8.095 0 0 1 11.339.093l34.377 34.316a8.09 8.09 0 0 1 1.755 8.82 8.1 8.1 0 0 1-1.755 2.625l-76.442 76.373A8.08 8.08 0 0 1 91.963 177"/><defs><linearGradient id="a" x1="92.396" x2="91.557" y1="-3.051" y2="186.998" gradientUnits="userSpaceOnUse"><stop stop-color="#1c1dff"/><stop offset="1" stop-color="#011879"/></linearGradient><linearGradient id="b" x1="92" x2="92" y1="176.998" y2="49.752" gradientUnits="userSpaceOnUse"><stop offset=".36" stop-color="#f23fff"/><stop offset=".68" stop-color="#43f1ff"/></linearGradient></defs></svg>