<svg xmlns="http://www.w3.org/2000/svg" width="3617" height="1078" fill="none" viewBox="0 0 3617 1078"><path fill="#009" d="M1078 0H0v1078h1078z"/><path fill="#fff" d="M901.266 296.726c-31.363 0-57.121 25.759-57.121 57.12 0 31.336 25.758 57.094 57.121 57.094 31.361 0 57.093-25.758 57.093-57.094.001-31.361-25.731-57.12-57.093-57.12M952.201 464.155H850.309v287.196h101.892zM341.885 578.347c59.908-10.648 92.36-61.024 92.36-119.259 0-90.155-63.257-129.883-146.667-129.883H123.521v422.149h109.753V588.97h1.116l103.565 162.385h136.601zm-97.988-59.909h-10.623V413.174h10.623c35.823 0 76.134 6.718 76.134 52.632s-40.312 52.632-76.134 52.632"/><path fill="#fff" d="M689.774 464.138v27.99c-21.295-25.2-56.004-37.522-89.04-37.522-85.109 0-143.877 70.557-143.877 152.852s59.91 153.41 144.992 153.41c33.593 0 68.858-12.879 86.783-41.427h1.14v31.894H791.64V464.138zM627.61 672.411c-41.427 0-65.486-28.014-65.486-64.396 0-35.266 24.059-64.954 65.486-64.954 41.426 0 65.485 29.688 65.485 64.954 0 36.382-24.059 64.396-65.485 64.396M1377.35 666.136v88.381h-185.81v-88.381h42.09V414.764h-42.09v-87.771h185.81v87.771h-39.06v251.372zM1491.05 652.902c1.21 23.452 13.84 36.077 37.87 36.077 22.87 0 34.91-10.217 34.91-28.851 0-26.468-27.68-25.251-71.57-37.877-61.35-17.468-90.81-49.337-90.81-102.273 0-61.912 45.1-103.997 114.26-103.997 26.45 0 47.51 6.009 67.95 21.017v-13.792h68.55v93.78h-87.19c-3.62-21.651-12.04-30.043-30.67-30.043-19.83 0-31.26 11.409-31.26 24.643 0 24.059 19.82 29.46 56.51 38.485 72.76 18.635 108.26 41.478 108.26 104.631 0 64.345-49.32 108.256-120.89 108.256-28.24 0-51.69-7.834-72.73-25.251v16.81h-72.18V652.902zM1730.78 465.877c33.05-32.477 77.57-50.503 125.69-50.503 48.1 0 91.99 18.026 125.07 50.503 33.06 32.477 50.53 74.563 50.53 123.291 0 48.094-17.47 90.814-50.53 123.265-33.08 32.477-76.97 49.919-125.07 49.919-48.12 0-92.64-17.442-125.69-49.919-33.09-32.451-50.53-75.171-50.53-123.265 0-48.12 17.44-90.813 50.53-123.291m125.69 205.053c42.06 0 76.37-36.052 76.37-81.762 0-46.319-33.7-81.814-76.37-81.814-42.11 0-76.97 35.495-76.97 81.814 0 45.711 34.86 81.762 76.97 81.762M2431.31 759.361c-92.61 0-161.75-70.988-161.75-170.194 0-99.231 69.14-170.193 161.75-170.193 44.49 0 76.36 13.842 101.03 46.294v-40.894h126.28v86.605h-36.08v156.35h36.08v87.188h-131.1v-36.66c-22.26 28.27-53.52 41.504-96.21 41.504m17.44-87.823c45.69 0 79.38-34.277 79.38-82.371 0-48.119-33.69-82.371-79.38-82.371-45.71 0-79.4 34.252-79.4 82.371 0 48.095 33.69 82.371 79.4 82.371M2832.3 759.361c-92.58 0-161.72-70.988-161.72-170.194 0-99.231 69.14-170.193 161.72-170.193 44.52 0 76.39 13.842 101.06 46.294v-54.686h-36.1v-83.588h126.31V667.33h36.05v87.188h-131.1v-36.66c-22.24 28.269-53.5 41.503-96.22 41.503m17.47-87.823c45.69 0 79.36-34.277 79.36-82.371 0-48.119-33.67-82.371-79.36-82.371-45.71 0-79.4 34.252-79.4 82.371 0 48.095 33.69 82.371 79.4 82.371M3126.91 510.982h-40.31v-86.605h133.51v242.93h41.5v87.214h-176.2v-87.214h41.5zm0-184.01h93.2v79.38h-93.2zM3315.7 465.877c33.08-32.477 77.55-50.503 125.67-50.503s92 18.026 125.09 50.503 50.5 74.563 50.5 123.291c0 48.094-17.41 90.814-50.5 123.265-33.08 32.477-76.97 49.919-125.09 49.919s-92.59-17.442-125.67-49.919c-33.06-32.451-50.53-75.171-50.53-123.265 0-48.12 17.47-90.813 50.53-123.291m125.67 205.053c42.11 0 76.36-36.052 76.36-81.762 0-46.319-33.64-81.814-76.36-81.814-42.11 0-76.97 35.495-76.97 81.814 0 45.711 34.86 81.762 76.97 81.762M2083.49 510.974h-37.88V424.37h126.29v48.12c18.63-36.66 47.51-52.328 89.01-53.545v92.03c-61.36 3.017-84.81 29.435-84.81 89.597v66.754h37.86v87.188h-172.58v-87.188h42.11z"/></svg>