<svg xmlns="http://www.w3.org/2000/svg" xmlns:xlink="http://www.w3.org/1999/xlink" xml:space="preserve" viewBox="0 0 2533.47 1078"><defs><linearGradient id="c"><stop offset="0" style="stop-color:#b3edf3;stop-opacity:1"/><stop offset="1" style="stop-color:#82e2eb;stop-opacity:0"/></linearGradient><linearGradient id="b"><stop offset="0" style="stop-color:#01d4e2;stop-opacity:1"/><stop offset="1" style="stop-color:#0c97f3;stop-opacity:1"/></linearGradient><linearGradient id="a"><stop offset="0" style="stop-color:#0072f3;stop-opacity:1"/><stop offset="1" style="stop-color:#00e0db;stop-opacity:1"/></linearGradient><linearGradient xlink:href="#a" id="d" x1="61.202" x2="935.636" y1="919.021" y2="164.673" gradientUnits="userSpaceOnUse"/><linearGradient xlink:href="#b" id="e" x1="1772.201" x2="2533.469" y1="594.041" y2="594.041" gradientUnits="userSpaceOnUse"/><radialGradient xlink:href="#c" id="f" cx="284.924" cy="74.316" r="539.694" fx="284.924" fy="74.316" gradientTransform="rotate(.121 42341.857 -173236.51)scale(1.28482 1.24925)" gradientUnits="userSpaceOnUse"/></defs><path d="M0 0v1078h1079.389V0zm900.543 296.69c31.477-.12 57.181 25.2 57.494 56.607.263 31.238-25.371 57.063-56.824 57.23-31.214.144-57.013-25.202-57.227-56.297-.24-31.429 25.317-57.445 56.557-57.54m-687.625 32.554c28.956.015 57.907.11 86.846.457 25.655.311 50.33 6.373 73.136 18.662 26.637 14.397 44.796 35.981 53.516 65.04 9.27 30.926 9.51 62.043-1.318 92.587-13.487 37.97-40.031 61.974-79.555 71.149-1.176.264-2.347.527-3.523.863-.287.095-.505.43-1.102.957 43.885 57.157 87.772 114.34 132.115 172.121H336.607a291233 291233 0 0 0-103.296-161.818c-.67.096-.84.094-.934.142-.169.071-.358.193-.408.313-.12.503-.287 1.005-.287 1.484-.096 53.085-.168 106.196-.264 159.305 0 .12-.215.24-.502.646H122.252v-421.45c1.222-.145 2.516-.43 3.785-.43 28.963.023 57.925-.043 86.881-.028m19.996 83.957c-.313.023-.529.383-1.006.766v104.35c12.624.287 24.793.335 36.89-1.485 8.72-1.294 17.155-3.376 25.06-7.305 12.672-6.276 20.766-16.266 23.497-30.088a75.2 75.2 0 0 0 1.295-18.398c-.935-17.32-8.358-30.928-24.386-38.88a73.7 73.7 0 0 0-12.432-4.815c-16.004-4.648-32.463-4.672-48.918-4.145m368.596 41.53c20.778.202 40.76 4.971 59.787 15.158 9.153 4.91 17.345 11.115 24.486 18.685.79.863 1.412 1.869 2.131 2.803.453-.24.935-.479 1.438-.719V464.69h101.45v286.366H689.4v-32.102c-1.462 1.221-2.205 1.606-2.61 2.205-13.92 20.194-33.803 31.31-57.185 36.412-61.73 13.463-123.875-15.811-154.056-72.322-15.835-29.585-22.087-61.11-18.639-94.504 4.096-39.623 19.812-73.665 49.444-100.662 21.01-19.14 45.876-30.398 74.12-34.064 7.097-.916 14.11-1.355 21.036-1.288m248.894 9.984H951.57V751.15H850.404zm-227.486 78.193a86 86 0 0 0-10.77 1.387c-21.75 4.192-37.441 16.36-45.968 37.105-5.44 13.248-6.516 27.048-3.715 40.942 4.647 23.214 17.943 39.215 40.773 46.713 11.641 3.857 23.572 4.577 35.623 2.756 17.344-2.587 31.884-10.205 42.233-24.793 8.074-11.475 11.402-24.437 11.668-38.307-.17-2.922-.267-5.844-.6-8.744-2.948-24.22-14.784-42.067-37.59-51.817-10.257-4.401-20.906-5.92-31.654-5.242" style="fill-opacity:1;fill:url(#d)"/><path d="M1205.232 327.781c-1.652 0-3.281.191-5.103.287v88.276h40.916v250.861h-41.01v88.518h185.967v-88.444h-38.568v-48.965c2.372 0 4.383.047 6.418-.025 22.326-.599 44.677-.743 66.957-2.012 18.423-1.078 36.46-5.006 53.277-13.007 29.56-14.086 50.282-37.132 63.266-66.573 18.23-41.538 18.59-84.298 2.205-126.316-15.978-40.917-46.116-67.078-89.307-77.235-19.189-4.504-38.762-5.174-58.357-5.222-62.187-.215-124.4-.143-186.66-.143m370.506.293v86.744h39.504v253.977h-40.916v86.887h176.29v-87.127h-41.346v-340.48zm355.662 91.727c-9.4.102-18.828 1.016-28.261 2.642-50.426 8.672-88.588 35.335-112.614 80.54-23.862 44.868-27.189 92.515-13.609 141.001 13.464 48.174 43.001 83.51 89.283 103.729 29.562 12.888 60.536 15.737 92.326 11.017 26.83-4.025 49.492-15.666 67.22-36.507.358-.456.956-.72 2.228-1.63v34.975h131.18v-87.054h-35.622V512.156h35.526v-86.312h-126.485v38.185l-.935.432c-1.27-1.485-2.565-2.97-3.834-4.479-13.486-15.81-29.922-27.215-49.754-33.443-15.393-4.821-30.981-6.908-46.649-6.738m-580.83 4.664c14.612.312 29.202.217 43.768 1.127 7.21.48 14.565 2.155 21.51 4.478 17.8 5.99 26.617 19.236 27.67 37.586.407 6.78-.001 13.776-1.27 20.46-2.634 13.965-11.211 23.547-24.195 29.25-9.366 4.12-19.285 6.18-29.368 6.874-13.32.934-26.713.983-40.726 1.438V424.754c1.006-.12 1.821-.312 2.611-.29m1032.291 1.389v86.408h25.49c-14.421 42.88-28.508 85.019-42.664 127.133-.29-.048-.671-.072-1.007-.096-13.75-42.161-27.501-84.3-41.514-127.205h25.584v-86.168h-152.74v86.336c8.144 0 16.025.214 23.906-.073 3.714-.144 5.319 1.15 6.635 4.647a26499 26499 0 0 0 41.875 111.969c15.475 41.25 31.07 82.454 46.474 123.73.86 2.275 1.533 5.104.957 7.356-1.126 4.43-3.16 8.623-5.052 13.318h-31.026v87.104h153.797v-87.2h-28.34a804262 804262 0 0 1 99.944-260.996h28.289v-86.263zm-434.785 82.341c26.298-.64 48.499 9.457 64.805 31.534 11.115 15.044 15.402 32.412 15.545 51.984-.453 21.775-6.946 42.33-23.524 58.691-17.297 17.104-38.616 23.669-62.572 21.944-19.236-1.366-35.98-8.528-49.588-22.303-12.864-13.032-19.788-28.938-22.256-47.025-1.988-15.284-.812-30.28 4.77-44.557 12.002-30.64 34.952-47.505 67.508-49.996q2.683-.207 5.312-.272" style="fill-opacity:1;fill:url(#e)"/><path d="M0 0v1078h1079.389V0Zm900.543 296.69c31.477-.12 57.181 25.2 57.494 56.607.263 31.238-25.371 57.063-56.824 57.23-31.214.144-57.013-25.202-57.227-56.297-.24-31.428 25.317-57.445 56.557-57.54m-687.625 32.554c28.956.015 57.907.11 86.846.457 25.655.311 50.33 6.373 73.136 18.662 26.637 14.397 44.796 35.981 53.516 65.04 9.27 30.926 9.51 62.043-1.318 92.587-13.487 37.97-40.031 61.974-79.555 71.149-1.176.264-2.347.527-3.523.863-.287.095-.505.43-1.102.957 43.885 57.157 87.772 114.34 132.115 172.121H336.607a291233 291233 0 0 0-103.296-161.818c-.67.096-.84.094-.934.142-.17.071-.358.193-.408.313-.12.503-.287 1.005-.287 1.484-.096 53.085-.168 106.196-.264 159.305 0 .12-.215.24-.502.646H122.252v-421.45c1.222-.145 2.516-.43 3.785-.43 28.963.023 57.925-.043 86.881-.028m19.996 83.957c-.313.023-.529.383-1.006.766v104.35c12.624.287 24.793.335 36.89-1.485 8.72-1.294 17.155-3.376 25.06-7.305 12.672-6.276 20.766-16.266 23.497-30.088a75.2 75.2 0 0 0 1.295-18.398c-.935-17.32-8.358-30.928-24.386-38.88a73.7 73.7 0 0 0-12.432-4.815c-16.004-4.648-32.463-4.672-48.918-4.145m368.596 41.53c20.778.202 40.76 4.971 59.787 15.158 9.153 4.91 17.345 11.115 24.486 18.685.79.863 1.412 1.869 2.131 2.803.453-.24.935-.479 1.438-.719V464.69h101.45v286.366H689.4v-32.102c-1.462 1.221-2.205 1.606-2.61 2.205-13.92 20.194-33.803 31.31-57.185 36.412-61.73 13.463-123.875-15.811-154.056-72.322-15.835-29.585-22.087-61.11-18.639-94.504 4.096-39.623 19.812-73.665 49.444-100.662 21.01-19.14 45.876-30.398 74.12-34.064 7.097-.916 14.11-1.355 21.036-1.288m248.894 9.984H951.57V751.15H850.404Zm-227.486 78.193a86 86 0 0 0-10.77 1.387c-21.75 4.192-37.441 16.36-45.968 37.105-5.44 13.248-6.516 27.048-3.715 40.942 4.647 23.214 17.943 39.215 40.773 46.713 11.641 3.857 23.572 4.577 35.623 2.756 17.344-2.587 31.884-10.205 42.233-24.793 8.074-11.475 11.402-24.437 11.668-38.307-.17-2.922-.267-5.844-.6-8.744-2.948-24.22-14.784-42.067-37.59-51.817-10.257-4.401-20.906-5.92-31.654-5.242" style="fill:url(#f);fill-opacity:1"/></svg>