<svg xmlns="http://www.w3.org/2000/svg" xml:space="preserve" width="648.753" height="250" viewBox="0 0 648.753 250"><path fill="#0099f2" d="M0 0h250v250H0z"/><path fill="#fff" d="M209.024 68.816c-7.271 0-13.249 5.973-13.249 13.244s5.978 13.244 13.249 13.244 13.239-5.973 13.239-13.244c0-7.272-5.968-13.244-13.239-13.244M197.206 107.64h23.631v66.606h-23.631zM79.296 134.128c13.895-2.47 21.421-14.155 21.421-27.659 0-20.907-14.67-30.123-34.013-30.123H28.658v97.9h25.449v-37.654h.26l24.018 37.654h31.681zm-22.725-13.895h-2.465v-24.41h2.465c8.31 0 17.658 1.558 17.658 12.205s-9.348 12.205-17.658 12.205"/><path fill="#fff" d="M159.974 107.641v6.487c-4.939-5.84-12.984-8.697-20.647-8.697-19.736 0-33.367 16.36-33.367 35.449 0 19.084 13.89 35.572 33.626 35.572 7.79 0 15.968-2.984 20.123-9.603h.265v7.399H183.6v-66.606zm-14.415 48.3c-9.608 0-15.189-6.497-15.189-14.934 0-8.182 5.581-15.061 15.189-15.061s15.189 6.879 15.189 15.061c0 8.438-5.581 14.934-15.189 14.934"/><g fill="#0099f2"><path d="M315.121 91.756v18.389h-38.658V91.756h8.633V39.462h-8.633V21.201h38.281c9.388 0 16.517.622 22.524 4.87 7.879 5.507 12.009 13.886 12.009 25.027 0 9.383-3.253 17.139-9.883 23.269-6.507 6.007-14.763 7.129-26.15 7.129h-6.252v10.26zm-4.003-29.526c10.76 0 16.012-2.753 16.012-10.76 0-7.506-4.63-10.255-14.258-10.255h-5.757V62.23zM362.829 39.212h-8.383V21.196h27.776v70.805h8.628v18.143h-36.654V92.001h8.633zM428.411 111.154c-19.265 0-33.656-14.767-33.656-35.41s14.39-35.405 33.656-35.405c9.255 0 15.89 2.881 21.015 9.633v-8.506h26.272v18.011h-7.501v32.529h7.501v18.143h-27.272v-7.629c-4.63 5.88-11.137 8.634-20.015 8.634m3.626-18.271c9.51 0 16.512-7.129 16.512-17.139 0-10.005-7.002-17.134-16.512-17.134s-16.512 7.129-16.512 17.134c0 10.01 7.001 17.139 16.512 17.139M522.092 59.477V41.461h31.402v18.016h-6.002l-20.77 54.298h6.007v18.143H500.7v-18.143h6.507l1.25-3.253-19.139-51.045h-6.006V41.461h31.774v18.016h-5.38l8.761 26.899 9.005-26.899z"/></g><g fill="#0099f2"><path d="M293.759 227.706h-16.826v-28.408h19.751c.853 8.168 3.415 11.945 8.658 11.945 4.88 0 8.535-3.533 8.535-8.045a8.1 8.1 0 0 0-3.783-6.83c-4.023-2.435-9.143-3.655-14.508-5.973-12.558-5.365-18.775-13.41-18.775-24.263 0-14.998 11.583-26.581 26.821-26.581 5.125 0 9.393 1.46 13.538 4.63v-2.435h15.973v24.748h-18.045c-.975-5.973-4.023-9.143-8.413-9.143-4.267 0-7.438 3.17-7.438 6.953 0 3.17 1.46 5.605 3.778 6.825 5.488 2.803 11.705 3.9 17.07 6.83 10.608 5.605 15.85 13.288 15.85 23.288 0 15.605-12.558 28.408-27.433 28.408-5.12 0-9.878-1.583-14.753-4.753zM350.021 169.425c6.708-6.585 15.728-10.24 25.483-10.24s18.653 3.655 25.361 10.24 10.245 15.12 10.245 24.998c0 9.75-3.538 18.408-10.245 24.993-6.708 6.585-15.605 10.123-25.361 10.123s-18.775-3.538-25.483-10.123-10.245-15.243-10.245-24.993c0-9.755 3.538-18.413 10.245-24.998m25.484 41.579c8.535 0 15.488-7.315 15.488-16.58 0-9.393-6.83-16.585-15.488-16.585-8.535 0-15.606 7.193-15.606 16.585 0 9.264 7.07 16.58 15.606 16.58M479.813 210.391h8.168v17.56h-26.096v-8.78c-4.385 6.703-10.725 9.873-19.383 9.873-14.635 0-23.166-8.775-23.166-25.483V178.69h-8.413v-17.683h27.796v36.826c0 9.388 2.563 13.778 10.608 13.778 6.83 0 11.588-4.998 11.588-13.778V178.69h-7.683v-17.683h26.581zM501.034 178.568h-8.168v-17.555h26.091v8.898c4.268-6.463 10.363-9.995 19.266-9.995 14.63 0 23.166 8.898 23.166 25.601v24.753h8.535v17.683H542v-36.826c0-9.388-2.435-13.778-10.485-13.778-6.825 0-11.705 4.998-11.705 13.778v19.143h7.683v17.683H492.5V210.27h8.535zM602.662 228.927c-18.775 0-32.798-14.385-32.798-34.503s14.023-34.508 32.798-34.508c9.025 0 15.488 2.803 20.485 9.388V158.21h-7.315v-16.948h25.601v69.012h7.32v17.678h-26.581v-7.438c-4.512 5.733-10.852 8.413-19.51 8.413m3.538-17.801c9.265 0 16.095-6.952 16.095-16.703 0-9.755-6.83-16.708-16.095-16.708-9.27 0-16.095 6.953-16.095 16.708 0 9.751 6.825 16.703 16.095 16.703"/></g></svg>