<svg xmlns="http://www.w3.org/2000/svg" xml:space="preserve" viewBox="0 0 889.7 200"><path fill="#13607e" d="M0 0h200v200H0z"/><path fill="#fff" d="M45.2 76.7h-2v19.5h2c6.6 0 14.1-1.2 14.1-9.8.1-8.5-7.4-9.7-14.1-9.7m17.5 62.7-19.2-30.1h-.2v30.1H22.9V61.1h30.4c15.5 0 27.2 7.4 27.2 24.1 0 10.8-6 20.2-17.1 22.1L88 139.4zm114 0h-18.9V86.1h18.9zm-9.5-63.2c-5.8 0-10.6-4.8-10.6-10.6S161.4 55 167.2 55s10.6 4.8 10.6 10.6c0 5.9-4.8 10.6-10.6 10.6m-20.3 63.2H128v-5.9h-.2c-3.3 5.3-9.9 7.7-16.1 7.7-15.8 0-26.9-13.2-26.9-28.5s10.9-28.4 26.7-28.4c6.1 0 12.6 2.3 16.5 7v-5.2h18.9zm-30.5-38.6c-7.7 0-12.2 5.5-12.2 12 0 6.8 4.5 11.9 12.2 11.9s12.2-5.2 12.2-11.9c0-6.5-4.5-12-12.2-12"/><g fill="#13607e"><path d="M249.8 73v14.7h-28.5V73h6.9V31.3h-6.9V16.8h28.5c8.2 0 14.7.1 20 3.9 6.1 4.2 9.8 11.6 9.8 19.6 0 9.8-5 17.9-13.3 21.9l8.8 10.8h6.7v14.7h-15.3l-20.8-25.4V73zm-.8-23.5c8.7 0 12.9-2.4 12.9-8.5 0-6.4-3.7-8.3-12.1-8.3h-4.2v16.7zM310.4 88.4c-15.3 0-26.8-11.8-26.8-28.2S295.1 32 310.4 32c7.4 0 12.7 2.3 16.7 7.7v-6.8H348v14.4h-6v25.9h6v14.5h-21.7v-6.1c-3.6 4.6-8.8 6.8-15.9 6.8m2.9-14.5c7.6 0 13.2-5.7 13.2-13.7s-5.6-13.7-13.2-13.7-13.2 5.7-13.2 13.7 5.6 13.7 13.2 13.7M376.9 88.4c-15.3 0-26.8-11.8-26.8-28.2S361.5 32 376.9 32c7.4 0 12.7 2.3 16.7 7.7v-9.1h-6V16.8h20.9v56.4h6v14.5h-21.7v-6.1c-3.7 4.6-8.9 6.8-15.9 6.8m2.9-14.5c7.6 0 13.2-5.7 13.2-13.7s-5.6-13.7-13.2-13.7-13.2 5.7-13.2 13.7 5.6 13.7 13.2 13.7M425.7 47.3H419V32.9h22.1v40.3h6.9v14.5h-29.2V73.2h6.9zm0-30.5h15.4V30h-15.4zM457.6 39.8c5.5-5.4 12.9-8.4 20.8-8.4 8 0 15.2 3 20.7 8.4s8.4 12.4 8.4 20.4-2.9 15.1-8.4 20.4c-5.5 5.4-12.8 8.3-20.7 8.3-8 0-15.4-2.9-20.8-8.3-5.5-5.4-8.4-12.5-8.4-20.4s2.9-15 8.4-20.4m20.8 34c7 0 12.7-6 12.7-13.6 0-7.7-5.6-13.6-12.7-13.6-7 0-12.8 5.9-12.8 13.6 0 7.6 5.8 13.6 12.8 13.6"/></g><g fill="#13607e"><path d="M264.5 167.7v14.7h-30.8v-14.7h6.9V126H234v9.7h-12.8v-24.2h56v24.2h-12.7V126h-6.6v41.7zM337.7 168h6.7v14.4h-21.3v-7.2c-3.6 5.5-8.8 8.1-15.8 8.1-12 0-18.9-7.2-18.9-20.8v-20.3h-6.9v-14.5h22.7v30.1c0 7.7 2.1 11.3 8.7 11.3 5.6 0 9.5-4.1 9.5-11.3v-15.6H316v-14.5h21.7zM349.9 142H343v-14.4h6.9v-16.1h15.7v16.1h6.9V142h-6.9v25.9h5.3v14.5h-21zM384.1 142h-6.9v-14.4h6.9v-16.1h15.7v16.1h6.9V142h-6.9v25.9h5.3v14.5h-21zM435.1 183.2c-15.3 0-26.8-11.8-26.8-28.2s11.5-28.2 26.8-28.2c7.4 0 12.7 2.3 16.7 7.7v-6.8h20.9V142h-6v25.9h6v14.5H451v-6.1c-3.7 4.7-8.8 6.9-15.9 6.9m2.9-14.6c7.6 0 13.2-5.7 13.2-13.7s-5.6-13.7-13.2-13.7-13.2 5.7-13.2 13.7 5.6 13.7 13.2 13.7M528.8 167.7v14.7H498v-14.7h7V126h-7v-14.5h30.8V126h-6.5v41.7zM538 142h-6.9v-14.4h6.9v-16.1h15.7v16.1h6.9V142h-6.9v25.9h5.3v14.5h-21zM589.6 183.2c-15.3 0-26.8-11.8-26.8-28.2s11.5-28.2 26.8-28.2c7.4 0 12.7 2.3 16.7 7.7v-6.8h20.9V142h-6v25.9h6v14.5h-21.7v-6.1c-3.6 4.7-8.8 6.9-15.9 6.9m2.9-14.6c7.6 0 13.2-5.7 13.2-13.7s-5.6-13.7-13.2-13.7-13.2 5.7-13.2 13.7 5.6 13.7 13.2 13.7M637.7 125.9H631v-14.3h22.1V168h6.9v14.5h-29.2V168h6.9zM670.4 142h-6.7v-14.4h22.1v40.3h6.9v14.5h-29.2v-14.5h6.9zm0-30.5h15.4v13.2h-15.4zM720 183.2c-15.3 0-26.8-11.8-26.8-28.2s11.5-28.2 26.8-28.2c7.4 0 12.7 2.3 16.7 7.7v-6.8h20.9V142h-6v25.9h6v14.5h-21.7v-6.1c-3.7 4.7-8.9 6.9-15.9 6.9m2.8-14.6c7.6 0 13.2-5.7 13.2-13.7s-5.6-13.7-13.2-13.7-13.2 5.7-13.2 13.7c.1 8 5.7 13.7 13.2 13.7M768 142h-6.7v-14.4h21.3v7.3c3.5-5.3 8.5-8.2 15.7-8.2 12 0 18.9 7.3 18.9 20.9v20.2h7v14.5h-22.8v-30.1c0-7.7-2-11.3-8.6-11.3-5.6 0-9.6 4.1-9.6 11.3v15.6h6.3v14.5H761v-14.5h7zM852.1 183.2c-15.3 0-26.8-11.8-26.8-28.2s11.5-28.2 26.8-28.2c7.4 0 12.7 2.3 16.7 7.7v-6.8h20.9V142h-6v25.9h6v14.5H868v-6.1c-3.6 4.7-8.8 6.9-15.9 6.9m2.9-14.6c7.6 0 13.2-5.7 13.2-13.7s-5.6-13.7-13.2-13.7-13.2 5.7-13.2 13.7c.1 8 5.6 13.7 13.2 13.7"/></g></svg>