<svg xmlns="http://www.w3.org/2000/svg" xml:space="preserve" id="Layer_1" x="0" y="0" viewBox="0 0 611.4 200"><style>.st0{fill:#4144c5}.st1{fill:#fff}</style><path d="M0 0h200v200H0z" class="st0"/><path d="M167.2 55c-5.8 0-10.6 4.8-10.6 10.6s4.8 10.6 10.6 10.6 10.6-4.8 10.6-10.6S173 55 167.2 55M157.8 86.1h18.9v53.3h-18.9zM63.4 107.3c11.1-2 17.1-11.3 17.1-22.1 0-16.7-11.7-24.1-27.2-24.1H22.9v78.3h20.4v-30.1h.2l19.2 30.1H88zM45.2 96.2h-2V76.7h2c6.6 0 14.1 1.2 14.1 9.8.1 8.4-7.4 9.7-14.1 9.7" class="st1"/><path d="M128 86.1v5.2c-4-4.7-10.4-7-16.5-7-15.8 0-26.7 13.1-26.7 28.4s11.1 28.5 26.9 28.5c6.2 0 12.8-2.4 16.1-7.7h.2v5.9h18.9V86.1zm-11.6 38.6c-7.7 0-12.1-5.2-12.1-11.9 0-6.5 4.5-12.1 12.1-12.1 7.7 0 12.1 5.5 12.1 12.1.1 6.8-4.4 11.9-12.1 11.9" class="st1"/><path d="M258.8 123.8v16.4h-31.9v-16.4h7.7V77.2h-7.7V60.9h31.9c9.2 0 16.4.1 22.4 4.4 6.8 4.7 10.9 12.9 10.9 22 0 10.9-5.6 20.1-14.8 24.6l9.8 12h7.5v16.4h-17.2l-23.3-28.4v12zm-.9-26.3c9.7 0 14.4-2.7 14.4-9.5 0-7.1-4.1-9.3-13.5-9.3h-4.7v18.7h3.8zM326.6 141.1c-17.2 0-30-13.2-30-31.6s12.8-31.6 30-31.6c8.3 0 14.2 2.6 18.7 8.6V79h23.4v16H362v29h6.7v16.2h-24.3v-6.8c-4 5.3-9.8 7.7-17.8 7.7m3.3-16.3c8.5 0 14.7-6.4 14.7-15.3s-6.3-15.3-14.7-15.3c-8.5 0-14.7 6.4-14.7 15.3-.1 9 6.2 15.3 14.7 15.3M401 141.1c-17.2 0-30-13.2-30-31.6s12.8-31.6 30-31.6c8.3 0 14.2 2.6 18.7 8.6V76.4H413V60.9h23.4V124h6.7v16.2h-24.3v-6.8c-4 5.3-9.8 7.7-17.8 7.7m3.3-16.3c8.5 0 14.7-6.4 14.7-15.3s-6.3-15.3-14.7-15.3c-8.5 0-14.7 6.4-14.7 15.3-.1 9 6.2 15.3 14.7 15.3M455.7 95h-7.5V79H473v45h7.7v16.2H448V124h7.7zm0-34.1H473v14.7h-17.3zM491.4 86.7c6.1-6 14.4-9.4 23.3-9.4s17.1 3.4 23.2 9.4 9.4 13.8 9.4 22.9c0 8.9-3.2 16.9-9.4 22.9-6.1 6-14.3 9.3-23.2 9.3s-17.2-3.2-23.3-9.3c-6.1-6-9.4-13.9-9.4-22.9s3.2-16.9 9.4-22.9m23.3 38c7.8 0 14.2-6.7 14.2-15.2 0-8.6-6.3-15.2-14.2-15.2-7.8 0-14.3 6.6-14.3 15.2 0 8.5 6.5 15.2 14.3 15.2M611.4 124.1v16.1h-35.1v-16.1h8.8V75.6h-14V60.9h32.5v63.2z" class="st0"/></svg>