<svg xmlns="http://www.w3.org/2000/svg" xml:space="preserve" id="Livello_8" x="0" y="0" viewBox="0 0 644.8 200"><style>.st0{fill:#01b46e}</style><path d="M0 0h200v200H0z" class="st0"/><path d="M45.2 76.7h-2v19.5h2c6.6 0 14.1-1.2 14.1-9.8.1-8.5-7.4-9.7-14.1-9.7m17.5 62.7-19.2-30.1h-.2v30.1H22.9V61.1h30.4c15.5 0 27.2 7.4 27.2 24.1 0 10.8-6 20.2-17.1 22.1L88 139.4zm114 0h-18.9V86.1h18.9zm-9.5-63.2c-5.8 0-10.6-4.8-10.6-10.6S161.4 55 167.2 55s10.6 4.8 10.6 10.6c0 5.9-4.8 10.6-10.6 10.6m-20.3 63.2H128v-5.9h-.2c-3.3 5.3-9.9 7.7-16.1 7.7-15.8 0-26.9-13.2-26.9-28.5s10.9-28.4 26.7-28.4c6.1 0 12.6 2.3 16.5 7v-5.2h18.9zm-30.5-38.6c-7.7 0-12.2 5.5-12.2 12 0 6.8 4.5 11.9 12.2 11.9s12.2-5.2 12.2-11.9c0-6.5-4.5-12-12.2-12" style="fill:#fff"/><path d="M254.6 72.8v14.6h-28.4V72.8h6.8V31.4h-6.8V16.9h28.4c8.2 0 14.6.1 19.9 3.9 6 4.2 9.7 11.5 9.7 19.6 0 9.7-5 17.9-13.2 21.9l8.7 10.7h6.7v14.6h-15.3l-20.7-25.2v10.7zm-.8-23.4c8.6 0 12.8-2.4 12.8-8.4 0-6.3-3.6-8.3-12-8.3h-4.2v16.6zM314.9 88.2c-15.3 0-26.7-11.7-26.7-28.1S299.6 32 314.9 32c7.4 0 12.6 2.3 16.6 7.6V33h20.8v14.2h-6V73h6v14.4h-21.6v-6c-3.6 4.6-8.8 6.8-15.8 6.8m2.8-14.5c7.6 0 13.1-5.7 13.1-13.6s-5.6-13.6-13.1-13.6c-7.6 0-13.1 5.7-13.1 13.6.1 8 5.6 13.6 13.1 13.6M381 88.2c-15.3 0-26.7-11.7-26.7-28.1S365.7 32 381 32c7.4 0 12.6 2.3 16.6 7.6v-9h-6V16.9h20.8V73h6v14.4h-21.6v-6c-3.6 4.6-8.8 6.8-15.8 6.8m2.9-14.5c7.6 0 13.1-5.7 13.1-13.6s-5.6-13.6-13.1-13.6c-7.6 0-13.1 5.7-13.1 13.6 0 8 5.5 13.6 13.1 13.6M429.5 47.2h-6.7V33h22v40h6.8v14.4h-29.1V73h6.8V47.2zm0-30.3h15.4V30h-15.4zM461.3 39.8c5.4-5.3 12.8-8.4 20.7-8.4s15.2 3 20.6 8.4c5.4 5.3 8.4 12.3 8.4 20.4 0 7.9-2.8 15-8.4 20.4-5.4 5.3-12.7 8.3-20.6 8.3s-15.3-2.8-20.7-8.3c-5.4-5.3-8.4-12.4-8.4-20.4s2.9-15 8.4-20.4M482 73.6c6.9 0 12.6-6 12.6-13.5 0-7.6-5.6-13.5-12.6-13.5-6.9 0-12.7 5.9-12.7 13.5 0 7.5 5.7 13.5 12.7 13.5M549.5 66v.7c0 4.4 2.7 6.8 7.7 6.8 4.6 0 7.6-2.9 7.6-7.4 0-5.2-4-7.8-11.9-7.8-1.1 0-2.3 0-3.5.1V45.2c.6 0 1.2.1 1.8.1 7.4 0 10.9-2.8 10.9-8.5 0-4.4-2.2-6.9-5.7-6.9-3.4 0-5.3 2-5.3 5.9v1.1h-16.9v-.2c0-12.9 8.7-21.2 22.5-21.2 12.9 0 21.2 8 21.2 19.5 0 6.6-3.3 11.9-10 14.3 9.1 2.6 13.8 8.4 13.8 16.4 0 13.7-10 23.2-24.6 23.2-15.9 0-24.8-8.3-25-22.6zM258 183.4c-10.4 0-19.4-3.8-26.3-11.2-6.7-7.1-10.1-15.9-10.1-26.3 0-9.9 3.8-18.8 10.8-25.7 7-6.8 15.9-10.4 25.8-10.4 7.4 0 14 2 20.2 6.3v-5h12.9v23.5h-18.2c-3.8-4.9-8.6-7.4-14.5-7.4-10.7 0-19.2 8.3-19.2 19.2 0 10.7 8.8 19.5 18.6 19.5 6.7 0 12.6-3.5 16.4-10.1h19c-4.8 17.9-17.6 27.6-35.4 27.6M302.2 125.6h-6.7v-14.4h22.2v56.5h6.9v14.5h-29.2v-14.5h6.9zM353 182.9c-15.4 0-26.8-11.8-26.8-28.2 0-16.5 11.5-28.3 26.8-28.3 7.4 0 12.7 2.3 16.8 7.7v-6.8h21v14.4h-6v25.9h6v14.5H369V176c-3.8 4.7-8.9 6.9-16 6.9m2.9-14.5c7.6 0 13.2-5.7 13.2-13.7s-5.6-13.7-13.2-13.7-13.2 5.7-13.2 13.7 5.6 13.7 13.2 13.7M409.6 165.3c.2 3.9 2.3 6 6.3 6 3.8 0 5.8-1.7 5.8-4.8 0-4.4-4.6-4.2-11.9-6.3-10.2-2.9-15.1-8.2-15.1-17 0-10.3 7.5-17.3 19-17.3 4.4 0 7.9 1 11.3 3.5v-2.3h11.4v15.6h-14.5c-.6-3.6-2-5-5.1-5-3.3 0-5.2 1.9-5.2 4.1 0 4 3.3 4.9 9.4 6.4 12.1 3.1 18 6.9 18 17.4 0 10.7-8.2 18-20.1 18-4.7 0-8.6-1.3-12.1-4.2v2.8h-12v-16.9zM457.1 165.3c.2 3.9 2.3 6 6.3 6 3.8 0 5.8-1.7 5.8-4.8 0-4.4-4.6-4.2-11.9-6.3-10.2-2.9-15.1-8.2-15.1-17 0-10.3 7.5-17.3 19-17.3 4.4 0 7.9 1 11.3 3.5v-2.3h11.4v15.6h-14.5c-.6-3.6-2-5-5.1-5-3.3 0-5.2 1.9-5.2 4.1 0 4 3.3 4.9 9.4 6.4 12.1 3.1 18 6.9 18 17.4 0 10.7-8.2 18-20.1 18-4.7 0-8.6-1.3-12.1-4.2v2.8h-12v-16.9zM496.6 141.7h-6.7v-14.4H512v40.3h6.9v14.5h-29.2v-14.5h6.9zm0-30.5H512v13.2h-15.5v-13.2zM549.1 183.4c-8.3 0-15.3-2.7-20.9-8.3-5.6-5.5-8.4-12.5-8.4-20.5s2.7-14.7 8.4-20.5c5.3-5.5 12-8.3 19.1-8.3 6 0 11 2.1 15.1 6.3v-4.9h12.4v20.2H560c-2.2-4.2-5.8-6.4-10.6-6.4-7.4 0-13.1 5.9-13.1 13.6s5.5 13.6 12.8 13.6c4.5 0 8.3-2.2 10.3-6.1h17.9c-3.7 13.5-14.1 21.3-28.2 21.3M607 182.9c-15.4 0-26.8-11.8-26.8-28.2 0-16.5 11.5-28.3 26.8-28.3 7.4 0 12.7 2.3 16.8 7.7v-6.8h21v14.4h-6v25.9h6v14.5H623V176c-3.8 4.7-9 6.9-16 6.9m2.8-14.5c7.6 0 13.2-5.7 13.2-13.7s-5.6-13.7-13.2-13.7-13.2 5.7-13.2 13.7c.1 8 5.7 13.7 13.2 13.7" class="st0"/></svg>