<svg xmlns="http://www.w3.org/2000/svg" xml:space="preserve" viewBox="0 0 625.4 200"><path fill="#066855" d="M0 0h200v200H0z"/><path fill="#fff" d="M45.2 76.7h-2v19.5h2c6.6 0 14.1-1.2 14.1-9.8.1-8.5-7.4-9.7-14.1-9.7m17.5 62.7-19.2-30.1h-.2v30.1H22.9V61.1h30.4c15.5 0 27.2 7.4 27.2 24.1 0 10.8-6 20.2-17.1 22.1L88 139.4zm114 0h-18.9V86.1h18.9zm-9.5-63.2c-5.8 0-10.6-4.8-10.6-10.6S161.4 55 167.2 55s10.6 4.8 10.6 10.6c0 5.9-4.8 10.6-10.6 10.6m-20.3 63.2H128v-5.9h-.2c-3.3 5.3-9.9 7.7-16.1 7.7-15.8 0-26.9-13.2-26.9-28.5s10.9-28.4 26.7-28.4c6.1 0 12.6 2.3 16.5 7v-5.2h18.9zm-30.5-38.6c-7.7 0-12.2 5.5-12.2 12 0 6.8 4.5 11.9 12.2 11.9s12.2-5.2 12.2-11.9c0-6.5-4.5-12-12.2-12"/><g fill="#066855"><path d="M249.8 73v14.7h-28.5V73h6.9V31.3h-6.9V16.8h28.5c8.2 0 14.7.1 20 3.9 6.1 4.2 9.8 11.6 9.8 19.6 0 9.8-5 17.9-13.3 21.9l8.8 10.8h6.7v14.7h-15.3l-20.8-25.4V73zm-.8-23.5c8.7 0 12.9-2.4 12.9-8.5 0-6.4-3.7-8.3-12.1-8.3h-4.2v16.7zM310.4 88.4c-15.3 0-26.8-11.8-26.8-28.2S295.1 32 310.4 32c7.4 0 12.7 2.3 16.7 7.7v-6.8H348v14.4h-6v25.9h6v14.5h-21.7v-6.1c-3.6 4.6-8.8 6.8-15.9 6.8m2.9-14.5c7.6 0 13.2-5.7 13.2-13.7s-5.6-13.7-13.2-13.7-13.2 5.7-13.2 13.7 5.6 13.7 13.2 13.7M376.9 88.4c-15.3 0-26.8-11.8-26.8-28.2S361.5 32 376.9 32c7.4 0 12.7 2.3 16.7 7.7v-9.1h-6V16.8h20.9v56.4h6v14.5h-21.7v-6.1c-3.7 4.6-8.9 6.8-15.9 6.8m2.9-14.5c7.6 0 13.2-5.7 13.2-13.7s-5.6-13.7-13.2-13.7-13.2 5.7-13.2 13.7 5.6 13.7 13.2 13.7M425.7 47.3H419V32.9h22.1v40.3h6.9v14.5h-29.2V73.2h6.9zm0-30.5h15.4V30h-15.4zM457.6 39.8c5.5-5.4 12.9-8.4 20.8-8.4 8 0 15.2 3 20.7 8.4s8.4 12.4 8.4 20.4-2.9 15.1-8.4 20.4c-5.5 5.4-12.8 8.3-20.7 8.3-8 0-15.4-2.9-20.8-8.3-5.5-5.4-8.4-12.5-8.4-20.4s2.9-15 8.4-20.4m20.8 34c7 0 12.7-6 12.7-13.6 0-7.7-5.6-13.6-12.7-13.6-7 0-12.8 5.9-12.8 13.6 0 7.6 5.8 13.6 12.8 13.6M264.6 167.8v14.7h-30.8v-14.7h6.9v-41.7H234v9.7h-12.8v-24.2h56v24.2h-12.7v-9.7h-6.6v41.7zM303.1 183.8c-8.4 0-15.2-2.6-20.8-8.3-5.6-5.5-8.4-12.5-8.4-20.4 0-8 2.9-15.1 8.4-20.4 5.5-5.4 12.9-8.4 20.8-8.4 10.1 0 19 4.8 24.4 12.8 3.2 4.7 4.7 10 4.7 16.1 0 2-.2 4.1-.5 6.2h-40.4c1.3 4.8 5.9 8.1 11.8 8.1 3.1 0 5.7-1 8.2-3.1h18.8c-4.9 11-15 17.4-27 17.4m12.2-34.2c-1.6-6-6-9.3-12.3-9.3-5.8 0-10.4 3.4-12.2 9.3zM364 183.8c-8.3 0-15.3-2.7-20.8-8.3-5.6-5.5-8.4-12.5-8.4-20.4 0-8 2.7-14.7 8.4-20.4 5.3-5.5 12-8.3 19-8.3 6 0 11 2.1 15.1 6.3v-4.9h12.4v20.1h-14.8c-2.2-4.2-5.8-6.4-10.6-6.4-7.4 0-13.1 5.9-13.1 13.6s5.5 13.6 12.8 13.6c4.5 0 8.3-2.2 10.3-6.1h17.9c-3.7 13.3-14.1 21.2-28.2 21.2M400.7 125.9H394v-14.4h22v22.6c3.5-4.8 8.4-7.4 15.2-7.4 12 0 18.8 7.3 18.8 20.9V168h7v14.5h-22.8v-30.1c0-7.7-2-11.3-8.6-11.3-5.6 0-9.6 4.1-9.6 11.3V168h6.3v14.5h-28.6V168h7zM487.1 183.8c-8.4 0-15.2-2.6-20.8-8.3-5.6-5.5-8.4-12.5-8.4-20.4 0-8 2.9-15.1 8.4-20.4 5.5-5.4 12.9-8.4 20.8-8.4 10.1 0 19 4.8 24.4 12.8 3.2 4.7 4.7 10 4.7 16.1 0 2-.2 4.1-.5 6.2h-40.4c1.3 4.8 5.9 8.1 11.8 8.1 3.1 0 5.7-1 8.2-3.1h18.8c-4.9 11-15 17.4-27 17.4m12.2-34.2c-1.6-6-6-9.3-12.3-9.3-5.8 0-10.4 3.4-12.2 9.3zM524 142.1h-6.9v-14.4h6.9v-16.2h15.8v16.2h6.9v14.4h-6.9V168h5.3v14.5h-21zM577.6 183.8c-8.4 0-15.2-2.6-20.8-8.3-5.6-5.5-8.4-12.5-8.4-20.4 0-8 2.9-15.1 8.4-20.4 5.5-5.4 12.9-8.4 20.8-8.4 10.1 0 19 4.8 24.4 12.8 3.2 4.7 4.7 10 4.7 16.1 0 2-.2 4.1-.5 6.2h-40.4c1.3 4.8 5.9 8.1 11.8 8.1 3.1 0 5.7-1 8.2-3.1h18.8c-4.9 11-15 17.4-27 17.4m12.2-34.2c-1.6-6-6-9.3-12.3-9.3-5.8 0-10.4 3.4-12.2 9.3zm19.8-15.5c.5 0 .9.1 1.4.1 4.1 0 5.4-1.7 5.4-6.3 0-.6-.1.1-.1-.6h-6.7v-15.8h15.8v16.8c0 9.4-4.4 13.9-13.3 13.9-.8 0-1.6 0-2.5-.1z"/></g></svg>