<svg xmlns="http://www.w3.org/2000/svg" xml:space="preserve" width="1842.784" height="500" viewBox="0 0 1842.784 500"><path fill="#12a0d7" d="M0 0v500h500.022l-.044-500z"/><path fill="#fff" d="M418.04 137.625c-14.552 0-26.505 11.953-26.505 26.483 0 14.552 11.953 26.505 26.505 26.505s26.483-11.953 26.483-26.505c0-14.53-11.93-26.483-26.483-26.483M394.41 215.285h47.256V348.5H394.41zM158.585 268.258c27.794-4.932 42.835-28.305 42.835-55.321 0-41.813-29.327-60.253-68.029-60.253H57.296v195.801h50.9V273.19h.511l48.056 75.295h63.364zm-45.457-27.794h-4.932V191.63h4.932c16.618 0 35.325 3.133 35.325 24.417.001 21.307-18.706 24.417-35.325 24.417"/><path fill="#fff" d="M319.947 215.281v12.975c-9.887-11.686-25.972-17.396-41.302-17.396-39.48 0-66.741 32.726-66.741 70.896s27.794 71.14 67.252 71.14c15.596 0 31.948-5.954 40.258-19.196h.533v14.797h47.256V215.281zm-28.838 96.601c-19.218 0-30.371-12.997-30.371-29.86 0-16.374 11.153-30.127 30.371-30.127s30.371 13.753 30.371 30.127c0 16.863-11.153 29.86-30.371 29.86"/><path fill="#12a0d7" d="M636.661 182.215v36.636H565.41v-36.636h17.196V78.061H565.41V41.669h71.251c20.44 0 36.659.244 50.1 9.709 15.197 10.464 24.417 28.905 24.417 49.078 0 24.439-12.442 44.879-33.148 54.854l21.951 26.905h16.685v36.636h-38.369l-52.1-63.541v26.905zm-1.978-58.809c21.662 0 32.148-5.976 32.148-21.195 0-15.952-9.22-20.684-30.171-20.684h-10.464v41.879zM788.229 220.827c-38.369 0-67.029-29.393-67.029-70.518s28.66-70.518 67.029-70.518c18.44 0 31.638 5.732 41.857 19.196V82.035h52.344v35.881h-14.974v64.786h14.974v36.147h-54.321V203.63c-9.22 11.709-22.195 17.197-39.88 17.197m7.221-36.37c18.951 0 32.904-14.219 32.904-34.148s-13.952-34.126-32.904-34.126c-18.929 0-32.882 14.197-32.882 34.126s13.953 34.148 32.882 34.148M954.401 220.827c-38.369 0-67.029-29.393-67.029-70.518s28.66-70.518 67.029-70.518c18.44 0 31.638 5.732 41.857 19.196V76.303h-14.952V41.667h52.344v141.035h14.952v36.147h-54.321V203.63c-9.22 11.709-22.195 17.197-39.88 17.197m7.221-36.37c18.951 0 32.904-14.219 32.904-34.148s-13.952-34.126-32.904-34.126c-18.929 0-32.882 14.197-32.882 34.126s13.953 34.148 32.882 34.148M1076.458 117.929h-16.685V82.026h55.321v100.667h17.196v36.147h-73.028v-36.147h17.196zm0-76.272h38.636v32.881h-38.636zM1156.13 99.224c13.686-13.441 32.148-20.929 52.077-20.929s38.125 7.487 51.833 20.929c13.686 13.464 20.929 30.904 20.929 51.078 0 19.951-7.243 37.636-20.929 51.077-13.708 13.464-31.904 20.706-51.833 20.706s-38.392-7.243-52.077-20.706c-13.708-13.441-20.929-31.126-20.929-51.077 0-19.929 7.22-37.614 20.929-51.078m52.077 84.982c17.44 0 31.637-14.952 31.637-33.903 0-19.174-13.952-33.882-31.637-33.882-17.441 0-31.904 14.708-31.904 33.882 0 18.951 14.463 33.903 31.904 33.903M1422.868 180.28v-20.707h38.902v57.121h-129.46V180.28h17.219V75.77h-17.219V39.356h76.85V75.77h-15.974v104.51zM1492.766 115.685h-16.707V79.76h55.388v100.777h17.196v36.17h-73.073v-36.17h17.196zm0-76.338h38.658v32.926h-38.658zM1628.989 115.683V79.758h62.608v35.925h-11.975l-38.414 101.022h-39.657l-37.903-101.022h-11.975V79.758h63.363v35.925h-10.731l17.463 53.611 17.952-53.611zM1769.955 219.927c-20.951 0-37.903-6.465-52.144-20.684-13.952-13.73-20.951-31.193-20.951-51.144s7.243-37.658 20.951-51.122c13.73-13.464 32.193-20.973 52.144-20.973 25.194 0 47.634 11.975 61.098 31.926 7.998 11.753 11.731 24.972 11.731 40.169 0 4.999-.489 10.242-1.244 15.486h-101.022c3.244 11.953 14.73 20.173 29.438 20.173 7.732 0 14.219-2.488 20.462-7.731h47.123c-12.22 27.947-37.415 43.9-67.586 43.9m30.682-85.537c-3.999-14.974-14.974-23.195-30.682-23.195-14.464 0-25.928 8.487-30.438 23.195zM753.01 310.489h-17.196v141.68h-40.035l-68.963-97.268v60.542h17.218v36.726h-78.471v-36.726h17.218V310.489h-17.218v-36.726h55.765l70.429 99.934v-63.208h-17.218v-36.726h78.471zM910.842 452.159h-54.055v-11.464c-8.887 10.509-21.195 15.752-36.992 15.752-9.02 0-17.685-1.889-25.994-5.621-8.287-3.732-15.574-8.931-21.84-15.552-6.265-6.643-11.153-14.263-14.641-22.884-3.51-8.62-5.243-17.618-5.243-26.972q0-19.296 9.398-35.992c6.265-11.153 14.73-19.973 25.439-26.483 10.687-6.51 22.195-9.776 34.481-9.776q22.428 0 35.392 17.329v-13.064h54.055v36.503h-14.286v61.497h14.286zm-53.699-67.718c0-5.688-1.422-11.042-4.266-16.041-2.844-5.021-6.732-8.954-11.664-11.842-4.91-2.888-10.309-4.333-16.174-4.333-8.931 0-16.618 3.222-23.061 9.642-6.421 6.421-9.642 14.197-9.642 23.306 0 9.02 3.155 16.663 9.465 22.884s13.975 9.331 22.995 9.331c5.954 0 11.353-1.466 16.241-4.399s8.798-6.932 11.708-12.02q4.397-7.63 4.398-16.528M1078.978 385.419c0 12.197-2.999 23.661-8.976 34.348-5.976 10.709-14.041 19.24-24.217 25.639-10.175 6.376-20.995 9.576-32.459 9.576-6.421 0-12.175-.822-17.263-2.444s-9.176-3.421-12.264-5.376c-3.11-1.955-6.598-4.51-10.509-7.687v22.462h14.286v36.481h-68.229v-36.481h14.175v-108h-14.175v-36.503h53.944v15.752c8.865-12.286 21.351-18.418 37.48-18.418 12.109 0 23.417 3.155 33.904 9.509 10.509 6.354 18.84 14.974 25.039 25.883q9.263 16.329 9.264 35.259m-40.391-.734c0-5.776-1.511-11.175-4.51-16.241-3.022-5.043-7.065-8.998-12.153-11.886q-7.632-4.332-16.663-4.333-8.898 0-16.53 4.333c-5.088 2.888-9.131 6.865-12.131 11.953-3.022 5.088-4.532 10.553-4.532 16.419s1.511 11.309 4.532 16.352c2.999 5.043 7.065 8.998 12.197 11.842q7.698 4.265 16.463 4.265c9.109 0 16.952-3.244 23.506-9.709 6.533-6.465 9.821-14.13 9.821-22.995M1231.393 384.441c0 12.93-3.221 24.928-9.642 35.992-6.443 11.064-15.13 19.84-26.128 26.305-10.975 6.465-22.973 9.709-35.992 9.709s-25.039-3.222-36.058-9.642c-11.02-6.421-19.729-15.152-26.128-26.172-6.376-11.042-9.576-23.017-9.576-35.948 0-12.864 3.199-24.772 9.576-35.747q9.598-16.496 26.194-26.127c11.064-6.421 23.062-9.642 35.992-9.642s24.928 3.199 35.992 9.576c11.064 6.398 19.796 15.064 26.172 25.994 6.398 10.952 9.598 22.838 9.598 35.702m-40.28.244c0-5.865-1.4-11.286-4.199-16.285-2.822-5.021-6.621-8.954-11.42-11.842q-7.199-4.332-15.863-4.333c-8.709 0-16.13 3.2-22.284 9.576-6.132 6.399-9.198 14.019-9.198 22.884 0 5.777 1.4 11.198 4.199 16.241 2.822 5.043 6.665 9.042 11.531 12.02 4.888 2.955 10.131 4.443 15.752 4.443s10.864-1.488 15.73-4.443c4.888-2.977 8.731-6.976 11.553-12.02 2.799-5.043 4.199-10.464 4.199-16.241M1300.875 452.17h-68.207v-36.725h14.152V310.491h-14.152v-36.725h53.921v141.679h14.286zM1375.014 452.166h-67.985v-36.725h14.286v-61.498h-14.286V317.44h53.944v98h14.041zm-14.041-141.68h-39.658v-36.725h39.658z"/></svg>