<svg xmlns="http://www.w3.org/2000/svg" xml:space="preserve" viewBox="0 0 1268.8 500"><path fill="#2dbbee" d="M0 0h500v500H0z"/><path fill="#fff" d="M113 191.7h-5v48.8h5c16.5 0 35.2-3 35.2-24.5.3-21.2-18.4-24.3-35.2-24.3m43.8 156.8-48-75.2h-.5v75.2h-51V152.8h76c38.8 0 68 18.5 68 60.2 0 27-15 50.5-42.8 55.2l61.5 80.2h-63.2zm285 0h-47.2V215.2h47.2zm-23.8-158c-14.5 0-26.5-12-26.5-26.5s12-26.5 26.5-26.5 26.5 12 26.5 26.5c0 14.8-12 26.5-26.5 26.5m-50.8 158H320v-14.7h-.5c-8.2 13.2-24.8 19.2-40.2 19.2-39.5 0-67.2-33-67.2-71.2s27.3-71 66.8-71c15.2 0 31.5 5.8 41.2 17.5v-13h47.2v133.2zM291 252c-19.2 0-30.5 13.8-30.5 30 0 17 11.2 29.8 30.5 29.8s30.5-13 30.5-29.8c0-16.2-11.3-30-30.5-30"/><g fill="#2dbbee"><path d="M624.5 182.5v36.7h-71.2v-36.7h17.2V78.2h-17.2V42h71.2c20.5 0 36.8.2 50 9.7 15.3 10.5 24.5 29 24.5 49 0 24.5-12.5 44.7-33.2 54.8l22 27h16.8v36.7h-38.2l-52-63.5v26.8zm-2-58.7c21.8 0 32.2-6 32.2-21.2 0-16-9.3-20.8-30.3-20.8H614v41.8zM776 221c-38.2 0-67-29.5-67-70.5S737.8 80 776 80c18.5 0 31.8 5.8 41.8 19.2v-17H870v36h-15V183h15v36.2h-54.3V204c-8.9 11.5-21.9 17-39.7 17m7.2-36.2c19 0 33-14.2 33-34.2s-14-34.2-33-34.2-33 14.2-33 34.2 14 34.2 33 34.2M942.2 221c-38.2 0-67-29.5-67-70.5s28.5-70.5 67-70.5c18.5 0 31.8 5.8 41.8 19.2V76.5h-15V42h52.2v141h15v36.2H982V204c-9.2 11.5-22.2 17-39.8 17m7.3-36.2c19 0 33-14.2 33-34.2s-14-34.2-33-34.2-33 14.2-33 34.2 14 34.2 33 34.2M1064.2 118.2h-16.8v-36h55.2V183h17.2v36.2h-73V183h17.2v-64.8zm0-76.2h38.5v33h-38.5zM1144 99.5c13.8-13.5 32.2-21 52-21 20 0 38 7.5 51.8 21s21 31 21 51-7.2 37.7-21 51c-13.8 13.5-32 20.8-51.8 20.8-20 0-38.5-7.2-52-20.8-13.8-13.5-21-31.2-21-51s7.2-37.5 21-51m52 85c17.5 0 31.8-15 31.8-34 0-19.2-14-34-31.8-34-17.5 0-32 14.8-32 34 0 19 14.5 34 32 34"/></g><path fill="#fe0000" d="M630.2 422.5V456h-77v-36.8h17.2V315h-17.2v-36.2h77v33.8h-16.5v46l46.2-46h-18.8v-33.8H718V315h-15l-49.5 50 56 54.2H720V456h-77v-33.5h17l-46.2-46.2v46.2z"/><path fill="#02ad45" d="M747.2 355h-16.8v-36h55.2v100.7H803V456h-73v-36.3h17.2zm0-76.2h38.5v33h-38.5z"/><path fill="#f63683" d="M870 458.2c-38.2 0-67-29.5-67-70.5s28.8-70.5 67-70.5c18.5 0 31.8 5.8 41.8 19.2v-22.8h-15V279H949v141h15v36.2h-54V441c-9.3 11.8-22.2 17.2-40 17.2m7.2-36.4c19 0 33-14.2 33-34.2s-14-34.2-33-34.2-33 14.2-33 34.2c0 19.9 14 34.2 33 34.2"/><path fill="#ffb502" d="M1011.8 414c.5 9.7 5.8 15 15.8 15 9.5 0 14.5-4.2 14.5-12 0-11-11.5-10.5-29.8-15.8-25.5-7.2-37.5-20.5-37.5-42.2 0-25.8 18.8-43 47.2-43 11 0 19.8 2.5 28.2 8.8V319h28.5v38.7h-36.2c-1.5-9-5-12.5-12.8-12.5-8.2 0-13 4.7-13 10.2 0 10 8.2 12.2 23.5 16 30.3 7.8 44.8 17.2 44.8 43.3 0 26.8-20.5 44.7-50 44.7-11.8 0-21.5-3.2-30.2-10.5v7h-30v-42h37z"/></svg>