<svg width="410" height="500" viewBox="0 0 410 500" fill="none" xmlns="http://www.w3.org/2000/svg">
<g clip-path="url(#clip0_0_3)">
<path d="M341 288.3C321.4 193.5 230 132.8 136.9 152.7C43.7 172.7 -15.9 265.8 3.69999 360.6C23.3 455.4 114.7 516.1 207.8 496.2C301 476.2 360.6 383.1 341 288.3Z" fill="#FF5353"/>
<path d="M286 252.4C279.7 252.9 273.7 255.3 267.9 257.7C264.2 259.2 258.5 261.3 257.5 265.8C256.8 269.1 257.8 273.2 261.3 274.2C265.4 275.5 268.9 273.3 272.8 272.1C274.5 271.6 280.4 269 279.6 272.3C277.4 282.3 266.1 288.6 256.4 286.7C254.8 286.4 253.3 285.9 251.9 285.1C249.4 283.7 247.4 281.6 245.8 279.2C242.6 274.3 240.4 267.8 241.1 260.6C241.9 251.6 251.2 239.5 260.9 240.4C265 240.8 268.7 242.5 272.8 243.2C277.6 244 282 241.1 283.7 236.9C284.4 235.1 284.6 233 284.1 230.9C282.5 224.5 275 221.8 269.4 220.4C266.2 219.6 262.8 219.2 259.6 219.6C242.1 221.3 231.2 233.2 225.1 246.9C224.2 243.9 222 239.4 218.5 239.1C214 238.7 209 241.3 208.6 246.2C208.2 250.3 210.4 254.4 211.6 258.1C213.2 263.2 219.1 283.4 220.6 288.4C220.9 289.2 220.3 289.2 220 288.7C219.8 288.4 219.6 288 219.5 287.6C219 286.5 218.4 285.5 217.9 284.4C216.9 282.3 215.9 280.2 215 278.1C213.8 275.2 212.5 272.4 211.1 269.5C209.5 266.1 207.9 262.6 206.3 259.2C205.2 256.8 201.5 249.1 195.1 249.5C191.3 249.7 185.4 252.3 183.1 255.2C179.7 259.6 181.1 262.9 182.5 267.8C185.2 277.3 189.9 302.7 190.9 307.6C191.7 311.6 194.1 314.9 198.1 314.6C207 314.1 206.6 306.7 205.1 300.7C203.9 295.7 200.4 282.1 199.9 279.9C199.8 279.5 199.7 278.9 200.2 278.8C200.5 278.8 200.9 279.8 201.1 280.2C201.4 281 201.8 281.8 202.2 282.6C206.4 291.6 209.1 297 211.6 301.3C213.8 305.2 217.5 310 222.4 309.6C225.8 309.3 229.9 307.1 232.6 305.1C236.3 302.2 236.8 299.4 236.3 294.9C236.3 294.9 238.4 296.2 238.9 296.5C248.3 302.8 257.9 302.6 261.9 302.6C266.2 302.6 289.3 300.1 296.7 276.2C299.8 266.4 299.2 251.4 286 252.4Z" fill="white"/>
<path d="M145.7 318.1C138.9 321.3 131.1 319.7 126.4 315.6C122.5 312.2 118.9 305.3 118.7 298.2C118.5 291.6 120.9 286.2 125.1 282.7C128.1 280.2 131.9 278.5 136.4 278.3C158.9 277.5 165.1 309 145.7 318.1ZM83.1 342.5C78.9 344.8 72.9 345.2 71 339.9C69.3 335.3 68.1 330.5 67.1 325.7C66.7 323.9 66.3 322.1 65.8 320.3C62 307.1 80.4 303.8 88.9 308.5C91.3 309.8 93.8 312.6 94.8 315.3C100.6 330.4 90.4 338.5 83.1 342.5ZM58.9 291.3C57.1 289.8 54.7 279.8 54.1 275.1C53.8 272.6 54.9 270.9 55.8 270.4C59.7 268 65.6 266.5 69.8 268.3C73.7 270 75.6 274 75 278.2C74.5 281.9 72.5 286.2 68.8 288.8C66.5 290.4 61.5 293.4 58.9 291.3ZM177.6 265C172.5 257.7 158.9 265.6 164.5 273.2C160.6 268 156 263.2 149.1 260.8C142 258.3 132.6 258.3 125.6 261.3C112.1 267 105 278.7 103.5 291.1C97.6 288.9 90.7 289 84.9 290.3C85.5 290.3 89.5 285.7 91.3 282C94.8 275.3 94.4 268.2 91.2 261.4C82.8 243.3 56.8 250 43.6 257.9C36 262.5 33.4 268.5 35.1 277.5C38.9 297.9 43.9 318.6 49.7 338.4C51.3 344 52.4 348.8 54.5 354.2C58.9 365.1 72.9 368 82.8 364.2C106.4 355.1 116.5 342.4 119.5 330.2C124.2 333.3 129.8 335.2 136.5 335.4C156.8 335.9 172 322.1 173.6 302.5C175 307.1 175.5 313.7 181.6 314.1C188.5 314.6 188 308.2 187.3 303.4C186.2 296 181.5 270.6 177.6 265Z" fill="white"/>
<path d="M161.5 254.9C172.9 254.8 182 245.3 181.9 233.7C181.8 222.1 172.5 212.8 161.1 212.9C149.7 213 140.6 222.5 140.7 234.1C140.8 245.7 150.2 255 161.5 254.9Z" fill="white"/>
<path d="M208.6 70.2C212.4 70.2 221.3 70.7 226 79C229.2 84.7 230 90.2 228.4 95.4C226.8 100.7 223.4 107.6 211.4 114.3C207 116.7 205.8 120.8 205.8 122.9C205.7 126.9 206.7 129.5 207.3 131.1C207.4 131.4 207.5 131.7 207.6 132C207.9 132.9 208.6 135.1 209.7 138.1C212 144.8 215.5 155 216.4 158.2C217.5 162.4 217.2 169.2 211.4 171C210.2 171.4 209 171.6 208 171.7C201.8 172.2 199.5 167.1 197.9 163.8C196.6 161.1 184.2 120 177 96.1C176.2 91 175.5 86.3 182.7 80C190 73.7 202 70.3 207.9 70.3C208.1 70.2 208.3 70.2 208.6 70.2ZM251.5 85.6C250.7 79.8 253.4 75.7 256.2 74.3C257.2 73.8 258.2 73.6 259.1 73.6C259.9 73.6 260.7 73.8 261.4 74C264 75 265.8 77.4 266.3 78.7C266.6 79.3 266.9 80.7 267.3 82.5C268.9 89.2 272.3 103.1 279.2 107C281.2 108.2 283.4 108.3 285.8 107.6C287.3 107.1 288.4 106.1 289.2 104.6C292.4 98.2 288.6 84.8 285 73.9C284.4 72.1 284.1 71.3 284 70.7C283.6 68.6 284 66.6 285.1 64.9C286.3 63.1 288.3 61.8 290.4 61.5C293.8 60.9 297.8 63.1 299.2 66.4C301.3 71.4 305.1 83.7 306.5 89.3C308.3 97 309.1 118.4 291.4 125.2C289 126.1 286.5 126.7 284.2 126.8C280.1 127.1 276.1 126.1 272.5 123.9C257.1 114.3 251.6 85.8 251.5 85.6ZM230.7 112.3C231.7 111.8 233 111.4 234.2 111.4C236.6 111.4 239.2 112.6 241 115.5C242.2 117.5 244.6 125.5 246.5 131.9C247.9 136.6 248.5 138.6 248.8 139.3C249 139.6 249.1 140.1 249.3 140.7C249.8 142.3 250.5 144.5 252.6 145.4C254.4 146.1 257.9 146.1 264.7 142C267.1 140.6 270 140.2 272.6 141C274.7 141.7 276.3 143 277.1 144.8C278.6 148 278.4 154.2 274.2 156.9C270.2 159.5 252.6 165.1 249.3 165.8C248.7 165.9 248.1 166 247.6 166C243.3 166.2 241.8 163.6 240.9 161.9C239.9 160 227.7 123.6 227 121.5C226 117.5 227.4 114 230.7 112.3ZM333.2 115.8C334.2 112.9 336.6 111 340 110.3C340.6 110.2 341.1 110.1 341.7 110.1C342.7 110.1 343.7 110.3 344.8 110.4C346.7 110.7 349 111.1 352.7 110.9C361 110.5 364.9 104.4 365.4 100.2C365.7 98.5 365.8 95.9 364.6 94.3C363.9 93.4 362.9 92.9 361.5 92.8C357.5 92.5 351.6 95.5 345.8 98.4C341.1 100.8 336.2 103.2 332.1 104C322.2 105.9 320.5 99.7 319.4 96C319.3 95.7 312.7 70.4 331.6 58.8C349.5 47.8 363.1 57.9 364.6 59.1C367.5 61.4 368.1 64 366.8 67.6C366.2 69.3 364.7 70.7 362.6 71.4C360.2 72.3 357.6 72.1 355.4 70.9C351.7 68.8 348.5 68.2 345 68.8C340.3 69.7 336.8 73.5 335.2 76.8C332.8 81.7 332.8 86.2 335.1 87.7L335.5 87.9C336.7 88.2 338.8 87.4 344.2 85C352.5 81.2 365.1 75.5 373.7 82.9C378.2 86.7 382.4 94 380.9 102.9C379.3 112.5 374.2 119.9 366.1 124.5C361.6 127.1 356 128.7 350.3 129C345.9 129.3 341.7 128.8 338.9 127.6C330.9 124.1 332.5 117.7 333.2 115.8ZM403.3 137.7C407.1 130.6 407.9 122.5 405.7 114.8L379.3 23.8C377.1 16.1 372 9.8 365.1 5.9C358.2 2 350.2 1.2 342.6 3.4L170.9 55.1C155.3 59.8 146.3 76.6 150.9 92.5L177.3 183.5C181.9 199.4 198.4 208.5 214 203.8L262 189.4L262.5 189.8C263.1 190.3 263.6 190.7 264.1 190.9L306.8 222.2C310.8 224.4 315.9 222.8 318.1 218.7L337.1 169.1C337.5 168.4 337.7 167.9 337.9 167.1L338.1 166.5L386 152.1C393.3 149.9 399.5 144.7 403.3 137.7Z" fill="white"/>
<path d="M337.7 167.2C337.5 167.9 337.3 168.5 336.9 169.2L317.9 218.8C315.7 222.9 310.6 224.5 306.6 222.3L264 190.9C263.5 190.6 263 190.2 262.4 189.7L261.9 189.3L213.9 203.7C198.3 208.4 181.8 199.3 177.2 183.4L150.8 92.4C146.2 76.5 155.1 59.7 170.8 55L342.7 3.49999C350.2 1.19999 358.2 2.09999 365.1 5.99999C372 9.89999 377.1 16.2 379.3 23.9L405.7 114.9C407.9 122.6 407.1 130.7 403.3 137.8C399.5 144.9 393.3 150 385.7 152.3L337.8 166.7L337.7 167.2ZM407.8 114.1L381.4 23.1C379 14.9 373.6 8.09999 366.2 3.99999C358.7 -0.10001 350.2 -1.10001 342.1 1.39999L170.2 53C153.4 58 143.8 76.1 148.8 93.1L175.2 184.1C180.1 201.2 197.8 211 214.6 205.9L261.4 191.8C261.9 192.2 262.4 192.5 262.8 192.8L305.5 224.1C307.1 225 308.8 225.4 310.5 225.4C314.3 225.4 317.9 223.3 319.9 219.7L338.9 170.1C339.2 169.6 339.4 169 339.6 168.4L386.4 154.3C394.5 151.9 401.2 146.3 405.2 138.7C409.3 131.1 410.2 122.4 407.8 114.1Z" fill="black"/>
<path d="M339.1 127.6C341.9 128.8 346.1 129.3 350.5 129C356.1 128.6 361.7 127 366.3 124.5C374.4 120 379.5 112.5 381.1 102.9C382.6 93.9 378.4 86.7 373.9 82.9C365.3 75.5 352.7 81.3 344.4 85C339 87.4 336.9 88.2 335.7 87.9L335.3 87.7C333 86.3 333 81.7 335.4 76.8C337 73.5 340.5 69.6 345.2 68.8C348.7 68.2 351.9 68.8 355.6 70.9C357.8 72.1 360.4 72.3 362.8 71.4C364.8 70.6 366.4 69.2 367 67.6C368.3 64 367.7 61.3 364.8 59.1C363.3 57.9 349.6 47.8 331.8 58.8C312.9 70.4 319.5 95.7 319.6 96C320.6 99.7 322.3 106 332.3 104C336.4 103.2 341.3 100.7 346 98.4C351.8 95.5 357.7 92.5 361.7 92.8C363.1 92.9 364.1 93.4 364.8 94.3C366 95.9 365.9 98.4 365.6 100.2C365 104.5 361.2 110.6 352.9 110.9C349.3 111.1 346.9 110.7 345 110.4C343.9 110.2 342.9 110.1 341.9 110.1C341.3 110.1 340.8 110.2 340.2 110.3C336.9 111 334.5 112.9 333.5 115.8C332.5 117.7 330.9 124.1 339.1 127.6Z" fill="black"/>
<path d="M195.8 90.2C198.2 88.5 201.3 87.3 203.9 87.2C205.1 87.1 206.3 87.3 207.3 87.6C210.5 88.7 212.3 91.7 212.1 95.3C211.9 98.1 210.7 102 207.6 104.5C206.3 105.6 203.4 107.8 201.3 107.8C200.8 107.8 200.3 107.7 199.9 107.4C198.2 105.8 195.7 98.1 194.8 93.9C194.3 91.8 195.2 90.6 195.8 90.2ZM176.9 96C184.1 119.9 196.5 161 197.8 163.7C199.3 167 201.8 172.1 207.9 171.6C209 171.5 210.1 171.3 211.3 170.9C217.1 169.1 217.4 162.3 216.3 158.1C215.4 154.9 211.9 144.7 209.7 138C208.7 135 207.9 132.9 207.6 131.9C207.5 131.6 207.4 131.3 207.3 131C206.7 129.4 205.7 126.8 205.8 122.8C205.8 120.8 207 116.7 211.4 114.2C223.3 107.6 226.7 100.6 228.4 95.3C230 90.1 229.2 84.5 226 78.9C221.3 70.6 212.3 70.1 208.6 70.1C208.3 70.1 208.1 70.1 207.9 70.1C202 70.2 190 73.6 182.7 79.8C175.4 86.2 176.2 91 176.9 96Z" fill="black"/>
<path d="M199.9 107.4C200.3 107.7 200.8 107.8 201.3 107.8C203.5 107.8 206.3 105.6 207.6 104.5C210.6 102 211.9 98.1 212.1 95.3C212.3 91.6 210.5 88.7 207.3 87.6C206.3 87.2 205.1 87.1 203.9 87.2C201.3 87.4 198.1 88.6 195.8 90.2C195.3 90.6 194.4 91.8 194.8 93.9C195.6 98.2 198.2 105.8 199.9 107.4Z" fill="white"/>
<path d="M240.9 162.1C241.8 163.8 243.3 166.4 247.6 166.2C248.1 166.2 248.7 166.1 249.3 166C252.6 165.3 270.3 159.7 274.2 157.1C278.4 154.4 278.6 148.2 277.1 145C276.3 143.2 274.7 141.9 272.6 141.2C270 140.4 267.1 140.7 264.7 142.2C257.9 146.3 254.3 146.3 252.6 145.6C250.5 144.8 249.8 142.5 249.3 140.9C249.1 140.3 249 139.8 248.8 139.5C248.5 138.8 247.9 136.8 246.5 132.1C244.6 125.7 242.2 117.7 241 115.7C239.2 112.7 236.6 111.6 234.2 111.6C232.9 111.6 231.7 111.9 230.7 112.5C227.4 114.2 226.1 117.7 227.1 121.9C227.7 123.8 239.9 160.2 240.9 162.1Z" fill="black"/>
<path d="M284.4 126.8C286.7 126.6 289.1 126.1 291.6 125.2C309.3 118.4 308.5 97 306.7 89.3C305.4 83.7 301.6 71.3 299.4 66.3C298 63 294.1 60.8 290.6 61.4C288.5 61.8 286.5 63.1 285.3 64.8C284.2 66.5 283.8 68.5 284.2 70.6C284.3 71.1 284.6 72 285.2 73.8C288.8 84.7 292.6 98.1 289.4 104.5C288.6 106 287.5 107 286 107.5C283.6 108.3 281.4 108.1 279.3 106.9C272.4 103 269 89.1 267.4 82.4C267 80.6 266.6 79.3 266.4 78.6C265.9 77.3 264 74.9 261.5 73.9C260.7 73.6 259.9 73.5 259.2 73.5C258.2 73.5 257.2 73.7 256.3 74.2C253.5 75.6 250.8 79.7 251.6 85.5C251.6 85.8 257.1 114.3 272.8 123.8C276.4 126 280.3 127 284.4 126.8Z" fill="black"/>
</g>
<defs>
<clipPath id="clip0_0_3">
<rect width="409.1" height="500" fill="white"/>
</clipPath>
</defs>
</svg>
