<?xml version="1.0" encoding="utf-8"?>
<!-- Generator: Adobe Illustrator 23.0.1, SVG Export Plug-In . SVG Version: 6.00 Build 0)  -->
<svg version="1.1"
	 id="Livello_1" xmlns:cc="http://creativecommons.org/ns#" xmlns:dc="http://purl.org/dc/elements/1.1/" xmlns:rdf="http://www.w3.org/1999/02/22-rdf-syntax-ns#"
	 xmlns="http://www.w3.org/2000/svg" xmlns:xlink="http://www.w3.org/1999/xlink" x="0px" y="0px" viewBox="0 0 500 500"
	 enable-background="new 0 0 500 500" xml:space="preserve">
<g>
	<linearGradient id="SVGID_1_" gradientUnits="userSpaceOnUse" x1="250" y1="0" x2="250" y2="500">
		<stop  offset="0" style="stop-color:#1F2223"/>
		<stop  offset="1" style="stop-color:#2D6BB4"/>
	</linearGradient>
	<circle fill-rule="evenodd" clip-rule="evenodd" fill="url(#SVGID_1_)" cx="250" cy="250" r="250"/>
	<path fill-rule="evenodd" clip-rule="evenodd" fill="#FFFFFF" d="M74.3,165.8v76.6h76.7v-76.6H74.3z M120.8,232.8h-16.2v-57.5h16.2
		V232.8z"/>
	<path fill-rule="evenodd" clip-rule="evenodd" fill="#FFFFFF" d="M74.3,74.4V151h76.7V74.4H74.3z M114.8,142.8
		c-22.6,0-31.4-14.2-31.5-29.7c-0.1-14.8,9.9-30.5,31.5-30.5c8.4,0,15.8,2.9,22.3,9.1l-10,9.9c-4.1-4-8.4-5-12.3-5
		c-11,0-15.4,9-15.3,16.5c0.1,7.5,4.1,15.8,15.3,15.8c3.9,0,9.5-1.6,13.6-5.9l9.5,10.7C131.4,140.3,123.5,142.8,114.8,142.8z"/>
	<path fill-rule="evenodd" clip-rule="evenodd" fill="#FFFFFF" d="M74.3,257v76.7h76.7V257H74.3z M139.7,324.2h-13.7l-24-30.9
		l0.3,12.5v18.4H85.7v-57.5h13.8l24.3,31.5c-0.4-6.9-0.4-9.5-0.5-11.8v-19.7h16.3V324.2z"/>
	<path fill-rule="evenodd" clip-rule="evenodd" fill="#FFFFFF" d="M74.3,348.5v76.6h76.7v-76.6H74.3z M135.7,415.6h-46V358h44.9
		v13.7h-28.9v8.2h27.2v13.2h-27.2v8.7h30V415.6z"/>
	<path fill-rule="evenodd" clip-rule="evenodd" fill="#FFFFFF" d="M425.4,330.7V74.2h-63.7l-56.3,207.4c0.2-34.4-1-50.9-29.9-50.7
		c-0.2,0-26.9-0.1-27.1-0.1l56.9-113.8V74.2H168v42.8h88.3L202,230.8v33.6h19.3c41,0,41.8,2.6,41.8,37.6v57.8
		c0,25.6-7.3,34.4-27.2,34.4c-18.3,0-25-8.8-25-34.9v-38.1h-42.8v44.3c0,44.3,21.4,63.6,68.9,63.6c22.5,0,42.8-5.7,53.9-16.7
		c9.3-9.4,13.3-20.5,14.3-45.3h78v57.9h42.3v-58.2h11.4l0-36.2H425.4z M382.7,330.7h-47.6l47.6-208V330.7z"/>
</g>
</svg>
