<?xml version="1.0" encoding="utf-8"?>
<!-- Generator: Adobe Illustrator 23.0.1, SVG Export Plug-In . SVG Version: 6.00 Build 0)  -->
<svg version="1.1"
	 id="svg2" xmlns:cc="http://creativecommons.org/ns#" xmlns:dc="http://purl.org/dc/elements/1.1/" xmlns:inkscape="http://www.inkscape.org/namespaces/inkscape" xmlns:rdf="http://www.w3.org/1999/02/22-rdf-syntax-ns#" xmlns:sodipodi="http://sodipodi.sourceforge.net/DTD/sodipodi-0.dtd" xmlns:svg="http://www.w3.org/2000/svg"
	 xmlns="http://www.w3.org/2000/svg" xmlns:xlink="http://www.w3.org/1999/xlink" x="0px" y="0px" viewBox="0 0 499 500"
	 enable-background="new 0 0 499 500" xml:space="preserve">
<path id="path53392" fill="#028CD6" d="M466.9,258.1l-208,208c-4.1,4.2-10.3,5-15.2,2.5l79.5-79.6c0-0.6,7.6-7.2,7.6-21.6V103.1
	l136.2,136.2C472.1,244.5,472.1,252.9,466.9,258.1 M196.2,460.7v-38.4l0-226.6h-46.5c-14.3,0-16.1-3.1-8.3-10.9L276.8,49.1
	l17.9-17.8c0.4-0.5,0.6-0.6,1-1c0.4-0.4,0.6-0.5,1-0.6c4.2-3,5.9,1,6.2,6.1c0,0.9,0,1.5,0,2.4v37.1v283.5
	c0.9,13.3-6.1,16.7-6.1,17.3l-88.8,88.8c-0.5,0.5-1,1-1.4,1.4c-0.4,0.4-0.5,0.5-1,0.9c0,0-0.1,0.1-0.4,0.4c-0.5,0.4-0.6,0.5-1,0.9
	c0,0,0,0,0,0c-0.5,0.4-0.6,0.5-1,0.9c-4.8,3.3-6.6,0.5-6.7-8.2 M32.1,258.7c-5.2-5.2-5.2-13.6,0-18.8l208-208
	c4.5-4.5,11.3-5.1,16.5-1.8L116.5,170.4c-19.1,21.7-9.5,53.4,29.5,53.4h22c0,0,0,98.5,0.1,170.9L32.1,258.7z M487,220.5L330.7,64.2
	V34.7c0-28.6-31-41.5-53.9-24.3C260.7-4,236-3.4,220.5,12L12,220.5c-16,16-16,42,0,58l156.1,156c0,17.9,0,30.6,0,34.4
	c0,21.6,29.9,45.3,55.1,20.6c16.2,13.5,40.2,12.7,55.3-2.4L487,278.5C503.1,262.5,503.1,236.5,487,220.5"/>
</svg>
