<svg width="773" height="201" viewBox="0 0 773 201" fill="none" xmlns="http://www.w3.org/2000/svg">
<path d="M243.51 65.396C243.51 27.25 219.885 0 181.719 0C143.563 0 119.938 27.25 119.938 65.417C119.938 74.084 121.167 82.188 123.5 89.542L131.083 88.813C135.135 101.573 142.541 112.053 152.75 119.261L145.146 119.99C154.927 126.917 167.281 130.823 181.719 130.823C200.729 130.823 216.115 124.042 226.792 112.531L234.334 111.843C242.667 102.885 248.115 91.031 250.167 77.26L242.594 77.989C243.188 73.947 243.511 69.76 243.511 65.406L243.51 65.396ZM181.719 21.792C205.344 21.792 218.073 39.959 218.073 65.396C218.073 70.813 217.479 75.886 216.344 80.531L223.917 79.802C219.719 97 207.875 108.25 189.292 108.25C173.157 108.25 162.104 99.76 156.73 86.271L149.147 87.011C146.657 80.761 145.376 73.459 145.376 65.396C145.376 39.959 158.095 21.792 181.73 21.792H181.719ZM107.219 3.646L105.396 1.823H83.594L81.771 3.646V87.229H79.959L30.896 3.635L27.25 1.813H1.823L0 3.646V101.5L7.573 100.771V126.438L9.386 128.261H31.199L33.012 126.438V98.271L25.438 99V43.604H27.261L57.949 95.885L65.532 95.156L83.459 125.698L114.792 122.823V90.354L107.219 91.083V3.646ZM399.792 3.646L397.969 1.823H376.167L374.344 3.646V65.271L381.917 64.542V86.459H380.105L368 65.833L360.417 66.583L323.469 3.646L319.823 1.823H294.385L292.573 3.646V73.177L300.146 72.448V105L292.573 105.729V127.198L294.385 129.01H316.197L318.009 127.198V104.146L325.582 103.458V69.958L318.009 70.687V43.604H319.832L334.78 69.083L342.374 68.354L360.447 99.156L352.864 99.885L368.895 127.187L372.53 129H397.968L399.791 127.187V96.635L407.353 95.947V62.042L399.791 62.771L399.792 3.646ZM665.104 3.646L663.281 1.823H636.021L634.209 3.646L618.709 41.615L626.271 40.886L612.438 74.782L604.876 75.511L597.866 92.688H596.043L590.522 79.146L598.116 78.448L584.428 44.917L576.845 45.646L559.699 3.646L557.887 1.823H530.627L528.815 3.646V50.313L536.388 49.584V82.136L528.815 82.865V127.198L530.627 129.01H552.44L554.252 127.198V82.458L561.825 81.76V55.573H563.637L573.085 78.573L565.502 79.302L585.148 127.187L586.96 128.999H606.96L608.772 127.187L629.979 75.5L637.521 74.802L645.417 55.573H647.229V71.406L639.656 72.135V127.187L641.479 128.999H663.281L665.104 127.187V72.292L672.666 71.594V36.354L665.104 37.083V3.646ZM518.365 85.75L505.209 52.562L497.626 53.291L477.927 3.646L476.115 1.823H452.49L450.667 3.646L428.302 60.042L435.865 59.313L422.438 93.167L414.876 93.896L408.876 109.031V127.198L410.688 129.01H427.042L428.865 127.198L437.948 103.573L441.583 101.761H487.01L490.656 103.573L499.729 127.198L501.552 129.01H517.906L519.718 127.198V109.031L510.77 86.458L518.374 85.76L518.365 85.75ZM465.208 34.521L473.146 55.698L480.729 54.969L489.135 77.365L487.312 79.188H456.427L454.604 77.376L462.354 56.709L454.791 57.438L463.385 34.521H465.208ZM706.896 74.5H763.229L765.052 72.677V63.094L772.614 62.406V53.76L770.801 51.937H714.468L712.656 50.114V32.5L705.083 33.229V25.448L706.895 23.635H766.864L768.677 21.812V3.646L766.875 1.813H681.458L679.646 3.636V35.719L687.219 34.979V67.531L679.646 68.26V127.187L681.469 129H766.875L768.688 127.187V109.02L766.875 107.197H706.906L705.093 105.385V76.313L706.906 74.501L706.896 74.5ZM76.323 127.188L79.958 129H105.396L107.219 127.187V123.666L76.031 126.687L76.323 127.188Z" fill="url(#paint0_linear_1_2)"/>
<path d="M526.167 144.677H553.375C564.552 144.677 574.063 149.812 574.063 161C574.063 167.281 570.844 171.729 565.105 174.333V174.562C569.543 176.25 571.845 179.302 572.761 183.593C574.219 190.187 573.001 198.072 574.99 198.614V199.458H559.198C557.667 198.385 558.292 191.646 557.125 186.739C556.125 182.52 554.292 180.385 549.625 180.385H542.177V199.458H526.167V144.666V144.677ZM542.177 168.969H550.76C555.354 168.969 557.885 166.969 557.885 163.136C557.885 159.542 555.593 157.24 550.989 157.24H542.177V168.969Z" fill="white"/>
<path d="M596.51 144.677H612.833L633.145 199.469H616.124L613.447 191.417H594.905L592.218 199.469H576.28L596.51 144.677ZM598.5 180.385H609.844L606.406 169.656C605.552 166.969 604.323 162.604 604.323 162.604H604.177C604.177 162.604 603.031 166.979 602.115 169.656L598.5 180.385Z" fill="white"/>
<path d="M636.115 144.677H661.407C677.188 144.677 688.147 154.781 688.147 172.187C688.147 189.656 677.73 199.468 660.709 199.468H636.105V144.676L636.115 144.677ZM659.417 186.198C666.771 186.198 671.917 181.458 671.917 172.177C671.917 163.146 667.073 157.927 659.417 157.927H652.136V186.198H659.417Z" fill="white"/>
<path d="M708.604 144.677H692.583V199.469H708.604V144.677Z" fill="white"/>
<path d="M713.042 172.26C713.042 155.854 723.771 143.677 740.792 143.677C757.802 143.677 768.677 155.865 768.677 172.26C768.677 188.655 757.802 200.76 740.792 200.76C723.771 200.76 713.042 188.656 713.042 172.26ZM752.438 172.26C752.438 163.302 748.532 156.468 740.876 156.468C733.209 156.468 729.303 163.291 729.303 172.26C729.303 181.218 733.209 187.968 740.865 187.968C748.531 187.969 752.438 181.229 752.438 172.26Z" fill="white"/>
<defs>
<linearGradient id="paint0_linear_1_2" x1="0" y1="100.38" x2="772.614" y2="100.38" gradientUnits="userSpaceOnUse">
<stop stop-color="#1101D4"/>
<stop offset="1" stop-color="#FF026C"/>
</linearGradient>
</defs>
</svg>
