<svg width="185" height="185" viewBox="0 0 185 185" fill="none" xmlns="http://www.w3.org/2000/svg">
<path d="M87.206 2.13921C89.9397 -0.59446 94.3718 -0.594457 97.1055 2.13921L182.075 87.1092C184.809 89.8429 184.809 94.275 182.075 97.0087L97.0967 181.987C94.363 184.721 89.9309 184.721 87.1972 181.987L2.22726 97.0174C-0.506414 94.2838 -0.506418 89.8516 2.22725 87.118L87.206 2.13921Z" fill="url(#paint0_linear_10_21)"/>
<path d="M37.5 90.8907H43.4422L51.6164 103.335H51.6767V90.8907H57.1966V113.08H51.6164L43.0802 100.666H43.0199V113.08H37.5V90.8907Z" fill="white"/>
<path d="M71.2824 108.702C72.8509 108.702 74.0621 108.093 74.9171 106.873C75.7715 105.654 76.199 104.024 76.199 101.985C76.199 99.9267 75.7715 98.3173 74.9171 97.1578C74.0621 95.9986 72.8509 95.4186 71.2824 95.4186C69.6936 95.4186 68.472 95.9986 67.6176 97.1578C66.7626 98.3173 66.3356 99.9267 66.3356 101.985C66.3356 104.024 66.7626 105.654 67.6176 106.873C68.472 108.093 69.6936 108.702 71.2824 108.702ZM71.2824 113.5C69.935 113.5 68.6026 113.28 67.2857 112.84C65.9684 112.401 64.7921 111.716 63.7567 110.786C62.7207 109.857 61.8866 108.668 61.2531 107.218C60.6196 105.769 60.303 104.024 60.303 101.985C60.303 99.9465 60.6196 98.2026 61.2531 96.7529C61.8866 95.3038 62.7207 94.1142 63.7567 93.1847C64.7921 92.2551 65.9684 91.5706 67.2857 91.1306C68.6026 90.6911 69.935 90.4709 71.2824 90.4709C72.6293 90.4709 73.9565 90.6911 75.2639 91.1306C76.5708 91.5706 77.742 92.2551 78.778 93.1847C79.8134 94.1142 80.6481 95.3038 81.2815 96.7529C81.9149 98.2026 82.2317 99.9465 82.2317 101.985C82.2317 104.024 81.9149 105.769 81.2815 107.218C80.6481 108.668 79.8134 109.857 78.778 110.786C77.742 111.716 76.5708 112.401 75.2639 112.84C73.9565 113.28 72.6293 113.5 71.2824 113.5Z" fill="white"/>
<path d="M93.8444 100.846C95.0911 100.846 95.9959 100.656 96.5591 100.276C97.1219 99.8967 97.4038 99.2371 97.4038 98.2972C97.4038 97.3578 97.1219 96.7033 96.5591 96.3331C95.9959 95.9634 95.0911 95.7784 93.8444 95.7784H91.2505V100.846H93.8444ZM85.3384 90.8907H94.0556C95.4831 90.8907 96.7703 91.0158 97.9165 91.2655C99.0627 91.5157 100.033 91.9252 100.827 92.4949C101.621 93.0647 102.23 93.8096 102.652 94.7289C103.074 95.6486 103.286 96.7783 103.286 98.1173C103.286 99.8766 102.918 101.271 102.185 102.3C101.45 103.33 100.349 104.095 98.8817 104.594L103.617 113.08H97.2227L92.9094 105.374H91.2505V113.08H85.3384V90.8907Z" fill="white"/>
<path d="M115.954 108.582C117.1 108.582 117.924 108.372 118.427 107.953C118.93 107.533 119.181 106.943 119.181 106.183C119.181 105.424 118.92 104.849 118.397 104.459C117.874 104.07 117.04 103.875 115.894 103.875H112.938V108.582H115.954ZM115.803 99.7066C116.889 99.7066 117.658 99.513 118.111 99.126C118.563 98.739 118.789 98.2279 118.789 97.5925C118.789 96.9375 118.568 96.4217 118.126 96.0445C117.683 95.6674 116.929 95.4785 115.863 95.4785H112.938V99.7066H115.803ZM107.026 90.8907H116.406C117.331 90.8907 118.277 90.946 119.242 91.0556C120.207 91.1653 121.082 91.4098 121.866 91.7888C122.65 92.1684 123.288 92.717 123.781 93.4352C124.274 94.1539 124.52 95.122 124.52 96.3392C124.52 97.1376 124.404 97.8314 124.173 98.4199C123.942 99.0089 123.63 99.5079 123.238 99.9168C122.846 100.326 122.398 100.65 121.896 100.89C121.393 101.13 120.86 101.299 120.297 101.398V101.458C120.981 101.579 121.614 101.759 122.198 101.999C122.781 102.239 123.284 102.57 123.706 102.99C124.128 103.411 124.46 103.941 124.701 104.582C124.943 105.222 125.063 106.003 125.063 106.924C125.063 108.125 124.807 109.126 124.294 109.927C123.781 110.728 123.128 111.359 122.333 111.819C121.539 112.279 120.649 112.605 119.664 112.795C118.679 112.985 117.713 113.08 116.768 113.08H107.026V90.8907Z" fill="white"/>
<path d="M139.692 104.684L137.641 98.5371H137.581L135.439 104.684H139.692ZM134.987 90.8008H140.597L148.5 113.08H142.407L141.05 108.942H134.022L132.574 113.08H127.084L134.987 90.8008Z" fill="white"/>
<path d="M63.2142 76.8089C64.2748 76.8089 65.0594 76.6404 65.5676 76.303C66.0758 75.966 66.3301 75.3699 66.3301 74.5154C66.3301 73.691 66.0758 73.11 65.5676 72.7727C65.0594 72.4356 64.2748 72.2667 63.2142 72.2667H60.7256V76.8089H63.2142ZM57.1019 69.3133H63.3591C64.3793 69.3133 65.2947 69.4066 66.105 69.593C66.9153 69.7796 67.6017 70.0817 68.1644 70.4991C68.7271 70.9169 69.1582 71.4501 69.4586 72.099C69.7586 72.7478 69.9088 73.5275 69.9088 74.4372C69.9088 75.7499 69.6123 76.7791 69.0197 77.5249C68.4268 78.271 67.568 78.8154 66.4426 79.1583L70.1563 85.8708H66.2851L62.8329 79.6282H60.7256V85.8708H57.1019V69.3133Z" fill="white"/>
<path d="M81.1172 79.5386L79.204 73.9001H79.159L77.2009 79.5386H81.1172ZM77.5385 69.2461H81.0272L86.9241 85.8708H83.2104L81.9724 82.1789H76.3006L75.0176 85.8708H71.6415L77.5385 69.2461Z" fill="white"/>
<path d="M94.3572 82.9173C95.2603 82.9173 96.0318 82.8131 96.6719 82.6041C97.3116 82.3954 97.8309 82.0747 98.2302 81.642C98.6289 81.2095 98.9187 80.654 99.0995 79.975C99.2804 79.2964 99.3706 78.487 99.3706 77.5473C99.3706 75.7873 98.9827 74.4819 98.2076 73.6316C97.4322 72.7814 96.1339 72.3562 94.3121 72.3562H92.6409V82.9173H94.3572ZM89.0172 69.3132H94.1264C95.4016 69.3132 96.5833 69.4552 97.6714 69.7384C98.7591 70.0219 99.7005 70.4879 100.496 71.1368C101.291 71.7857 101.914 72.6324 102.364 73.6764C102.814 74.7206 103.039 75.9961 103.039 77.5026C103.039 79.0542 102.81 80.3631 102.353 81.4294C101.895 82.4961 101.265 83.3575 100.462 84.0137C99.6594 84.6702 98.718 85.1437 97.6376 85.4345C96.5572 85.7254 95.3868 85.8709 94.1264 85.8709H89.0172V69.3132Z" fill="white"/>
<path d="M105.853 69.3132H109.476V85.8708H105.853V69.3132Z" fill="white"/>
<path d="M120.178 83.2306C120.825 83.2306 121.408 83.1005 121.927 82.8397C122.446 82.5792 122.886 82.2034 123.248 81.7122C123.609 81.221 123.887 80.6256 124.083 79.9258C124.278 79.2262 124.376 78.4444 124.376 77.5808C124.376 75.8391 124 74.477 123.248 73.4945C122.495 72.5122 121.472 72.0207 120.178 72.0207C118.869 72.0207 117.843 72.5122 117.098 73.4945C116.353 74.477 115.981 75.8391 115.981 77.5808C115.981 78.4444 116.079 79.2262 116.274 79.9258C116.47 80.6256 116.748 81.221 117.109 81.7122C117.47 82.2034 117.91 82.5792 118.429 82.8397C118.949 83.1005 119.531 83.2306 120.178 83.2306ZM120.167 86.184C119.162 86.184 118.186 86.0085 117.241 85.6583C116.296 85.308 115.459 84.7783 114.731 84.0697C114.004 83.3613 113.418 82.4698 112.976 81.3958C112.533 80.3218 112.312 79.0541 112.312 77.5921C112.312 76.1454 112.533 74.8811 112.976 73.7994C113.418 72.7181 114.004 71.8231 114.731 71.1145C115.459 70.4061 116.296 69.8765 117.241 69.5258C118.186 69.1755 119.162 69 120.167 69C121.172 69 122.144 69.1755 123.082 69.5258C124.019 69.8765 124.852 70.4061 125.58 71.1145C126.308 71.8231 126.893 72.7181 127.336 73.7994C127.778 74.8811 128 76.1454 128 77.5921C128 79.0541 127.778 80.3218 127.336 81.3958C126.893 82.4698 126.308 83.3613 125.58 84.0697C124.852 84.7783 124.019 85.308 123.082 85.6583C122.144 86.0085 121.172 86.184 120.167 86.184Z" fill="white"/>
<path d="M91.9627 177C90.9004 177.002 89.8482 176.794 88.8664 176.388C87.8847 175.983 86.9927 175.387 86.2418 174.636L9.86219 98.2583C8.34939 96.7398 7.5 94.6838 7.5 92.5405C7.5 90.3972 8.34939 88.3412 9.86219 86.8227L44.5107 52.1257C46.0133 50.6199 48.0486 49.7665 50.1759 49.7502C52.3032 49.734 54.3513 50.5562 55.8767 52.0388L65.1211 61.0189C65.3142 61.2065 65.4686 61.4303 65.5752 61.6775C65.6819 61.9247 65.7388 62.1905 65.7427 62.4596C65.7467 62.7288 65.6975 62.9962 65.5981 63.2464C65.4987 63.4966 65.351 63.7248 65.1634 63.9179C64.9758 64.1111 64.752 64.2654 64.5048 64.372C64.2575 64.4787 63.9917 64.5356 63.7225 64.5395C63.4532 64.5434 63.1859 64.4943 62.9356 64.3949C62.6854 64.2955 62.4571 64.1478 62.264 63.9603L53.0196 54.9802C52.2648 54.2549 51.2564 53.8534 50.2096 53.8613C49.1628 53.8692 48.1606 54.2859 47.4168 55.0225L12.7594 89.7195C12.0132 90.4683 11.5942 91.4823 11.5942 92.5394C11.5942 93.5965 12.0132 94.6105 12.7594 95.3593L89.1502 171.737C89.8985 172.484 90.9129 172.904 91.9705 172.904C93.0281 172.904 94.0425 172.484 94.7908 171.737L171.233 95.366C171.604 94.9954 171.898 94.5553 172.099 94.0708C172.3 93.5864 172.403 93.0671 172.403 92.5427C172.403 92.0183 172.3 91.4991 172.099 91.0147C171.898 90.5302 171.604 90.0901 171.233 89.7195L136.856 55.4036C136.114 54.6697 135.114 54.2543 134.07 54.2455C133.026 54.2368 132.019 54.6354 131.265 55.3568L122.35 63.9625C121.954 64.3108 121.438 64.4929 120.911 64.471C120.384 64.449 119.886 64.2247 119.52 63.8447C119.154 63.4647 118.948 62.9582 118.946 62.4307C118.944 61.9031 119.146 61.3951 119.509 61.0122L128.412 52.4065C129.938 50.9339 131.98 50.1187 134.101 50.1362C136.221 50.1537 138.25 51.0025 139.751 52.5001L174.128 86.816C174.88 87.5672 175.476 88.4592 175.883 89.4411C176.291 90.423 176.5 91.4754 176.5 92.5383C176.5 93.6012 176.291 94.6536 175.883 95.6355C175.476 96.6173 174.88 97.5094 174.128 98.2606L97.6858 174.634C96.9348 175.385 96.0426 175.982 95.0604 176.388C94.0783 176.794 93.0255 177.002 91.9627 177Z" fill="url(#paint1_linear_10_21)"/>
<defs>
<linearGradient id="paint0_linear_10_21" x1="92.3962" y1="-3.05093" x2="91.5567" y2="186.998" gradientUnits="userSpaceOnUse">
<stop stop-color="#1C1DFF"/>
<stop offset="1" stop-color="#011879"/>
</linearGradient>
<linearGradient id="paint1_linear_10_21" x1="92" y1="176.998" x2="92" y2="49.7524" gradientUnits="userSpaceOnUse">
<stop offset="0.36" stop-color="#F23FFF"/>
<stop offset="0.68" stop-color="#43F1FF"/>
</linearGradient>
</defs>
</svg>
