<svg width="1981" height="1078" viewBox="0 0 1981 1078" fill="none" xmlns="http://www.w3.org/2000/svg">
<path d="M1578 754.5V666.1H1619.5V414.7H1578V327H1763.8V408.1H1724.1V519.4L1836 408.1H1790.9V327H1976.1V414.7H1940L1820.3 535L1955.6 666.1H1980.9V754.5H1795.1V673.9H1836L1724.1 562.1V673.9H1763.8V754.5H1578ZM1343.3 674.5H1392.6V638.4H1209.2V556.6L1383.6 327H1496.7V556.7H1552V638.5H1496.7V674.6H1533.4V754.6H1343.4L1343.3 674.5ZM1399.8 427.4L1310.2 556.7H1399.8V427.4ZM0 0V1078H1078V0H0Z" fill="#0000FF"/>
<path d="M901.3 296.7C932.6 296.7 958.4 322.5 958.4 353.8C958.4 385.1 932.7 410.9 901.3 410.9C870 410.9 844.2 385.1 844.2 353.8C844.2 322.5 869.9 296.7 901.3 296.7ZM123.6 329.1H287.6C371 329.1 434.3 368.8 434.3 459C434.3 517.3 401.8 567.7 341.9 578.3L474.6 751.4H338L234.4 589H233.3V751.3H123.6V329.1ZM233.3 413.2V518.4H243.9C279.7 518.4 320 511.7 320 465.8C320 419.9 279.7 413.2 243.9 413.2H233.3ZM600.8 454.6C633.8 454.6 668.5 466.9 689.8 492.1V464.1H791.7V751.4H689.8V719.5H688.7C670.8 748 635.5 760.9 601.9 760.9C516.8 760.9 456.9 689.8 456.9 607.5C456.9 525.1 515.7 454.6 600.8 454.6ZM850.3 464.1H952.2V751.3H850.3V464.1ZM627.6 543.1C586.2 543.1 562.1 572.7 562.1 608C562.1 644.4 586.2 672.4 627.6 672.4C669.1 672.4 693.1 644.4 693.1 608C693.1 572.8 669 543.1 627.6 543.1Z" fill="white"/>
</svg>
