<?xml version="1.0" encoding="utf-8"?>
<!-- Generator: Adobe Illustrator 23.0.1, SVG Export Plug-In . SVG Version: 6.00 Build 0)  -->
<!DOCTYPE svg PUBLIC "-//W3C//DTD SVG 1.1//EN" "http://www.w3.org/Graphics/SVG/1.1/DTD/svg11.dtd" [
	<!ENTITY ns_extend "http://ns.adobe.com/Extensibility/1.0/">
	<!ENTITY ns_ai "http://ns.adobe.com/AdobeIllustrator/10.0/">
	<!ENTITY ns_graphs "http://ns.adobe.com/Graphs/1.0/">
	<!ENTITY ns_vars "http://ns.adobe.com/Variables/1.0/">
	<!ENTITY ns_imrep "http://ns.adobe.com/ImageReplacement/1.0/">
	<!ENTITY ns_sfw "http://ns.adobe.com/SaveForWeb/1.0/">
	<!ENTITY ns_custom "http://ns.adobe.com/GenericCustomNamespace/1.0/">
	<!ENTITY ns_adobe_xpath "http://ns.adobe.com/XPath/1.0/">
]>
<svg version="1.1" id="Livello_1" xmlns:x="&ns_extend;" xmlns:i="&ns_ai;" xmlns:graph="&ns_graphs;"
	 xmlns="http://www.w3.org/2000/svg" xmlns:xlink="http://www.w3.org/1999/xlink" x="0px" y="0px" viewBox="0 0 1211.956 500"
	 enable-background="new 0 0 1211.956 500" xml:space="preserve">
<metadata>
	<sfw  xmlns="&ns_sfw;">
		<slices></slices>
		<sliceSourceBounds  bottomLeftOrigin="true" height="500" width="1211.956" x="699.731" y="287.233"></sliceSourceBounds>
	</sfw>
</metadata>
<g>
	<rect fill="#2DBBEE" width="500" height="500"/>
	<path fill="#FFFFFF" d="M418.049,137.61c-14.541,0-26.484,11.944-26.484,26.485c0,14.541,11.943,26.484,26.484,26.484
		c14.541,0,26.484-11.943,26.484-26.484C444.533,149.553,432.591,137.61,418.049,137.61"/>
	<rect x="394.421" y="215.258" fill="#FFFFFF" width="47.272" height="133.22"/>
	<path fill="#FFFFFF" d="M158.587,268.232c27.783-4.923,42.849-28.309,42.849-55.317c0-41.8-29.332-60.238-68.034-60.238H57.298
		v195.807h50.919v-75.304h0.5l48.046,75.304h63.362L158.587,268.232z M113.14,240.448h-4.922v-48.82h4.922
		c16.615,0,35.329,3.123,35.329,24.41S129.755,240.448,113.14,240.448"/>
	<path fill="#FFFFFF" d="M319.953,215.249v12.992c-9.869-11.693-25.984-17.39-41.3-17.39c-39.476,0-66.735,32.706-66.735,70.883
		c0,38.177,27.783,71.158,67.26,71.158c15.591,0,31.931-5.972,40.251-19.214h0.525v14.791H367.2v-133.22H319.953z M291.12,311.865
		c-19.214,0-30.382-12.992-30.382-29.857c0-16.365,11.168-30.132,30.382-30.132c19.213,0,30.382,13.767,30.382,30.132
		C321.502,298.873,310.334,311.865,291.12,311.865"/>
	<path fill="#2DBBEE" d="M751.564,350.527h-37.952V328.79c-15.591,17.84-34.304,25.36-59.664,25.36
		c-29.282,0-54.118-10.594-73.631-31.231c-18.689-19.813-28.183-44.348-28.183-73.631c0-27.334,10.619-52.419,30.132-71.682
		c19.513-18.964,44.074-29.007,71.957-29.007c23.411,0,41.55,6.421,56.341,21.212v-17.315h36.253v65.286h-50.47
		c-9.769-14.791-23.711-22.611-40.451-22.611c-30.682,0-53.843,24.011-53.843,54.392c0,32.63,24.835,57.74,51.894,57.74
		c18.414,0,34.854-10.044,44.348-27.883H641.68v-39.602h109.884V350.527z"/>
	<path fill="#2DBBEE" d="M917.04,310.363h14.666v40.152H876.04v-20.063c-10.044,15.341-24.535,22.586-44.348,22.586
		c-33.455,0-52.993-20.088-52.993-58.29v-56.89h-19.239v-40.451h63.587v84.25c0,21.462,5.846,31.507,24.26,31.507
		c15.616,0,26.509-11.443,26.509-31.507v-43.798h-17.59v-40.451h60.814V310.363z"/>
	<polygon fill="#2DBBEE" points="961.731,192.394 943.042,192.394 943.042,152.219 1004.955,152.219 1004.955,310.074 
		1024.193,310.074 1024.193,350.525 947.164,350.525 947.164,310.074 961.731,310.074 	"/>
	<path fill="#2DBBEE" d="M1048.504,237.56h-16.74v-40.151h58.59v18.964c10.868-14.216,25.385-21.462,46.847-21.462
		c42.949,0,74.755,32.906,74.755,78.928c0,46.023-31.806,78.928-74.755,78.928c-19.813,0-34.579-6.146-44.898-19.238v25.085h15.066
		v40.45h-75.605v-40.45h16.74V237.56z M1128.831,312.04c21.212,0,36.828-15.89,36.828-38.202s-15.616-38.202-36.828-38.202
		c-21.187,0-36.803,15.89-36.803,38.202S1107.643,312.04,1128.831,312.04"/>
</g>
</svg>
