<svg width="800" height="200" viewBox="0 0 800 200" fill="none" xmlns="http://www.w3.org/2000/svg">
<path d="M200 0H0V200H200V0Z" fill="#000099"/>
<path d="M45.2 76.7H43.2V96.2H45.2C51.8 96.2 59.3 95 59.3 86.4C59.4 77.9 51.9 76.7 45.2 76.7ZM62.7 139.4L43.5 109.3H43.3V139.4H22.9V61.1H53.3C68.8 61.1 80.5 68.5 80.5 85.2C80.5 96 74.5 105.4 63.4 107.3L88 139.4H62.7ZM176.7 139.4H157.8V86.1H176.7V139.4ZM167.2 76.2C161.4 76.2 156.6 71.4 156.6 65.6C156.6 59.8 161.4 55 167.2 55C173 55 177.8 59.8 177.8 65.6C177.8 71.5 173 76.2 167.2 76.2ZM146.9 139.4H128V133.5H127.8C124.5 138.8 117.9 141.2 111.7 141.2C95.9 141.2 84.8 128 84.8 112.7C84.8 97.4 95.7 84.3 111.5 84.3C117.6 84.3 124.1 86.6 128 91.3V86.1H146.9V139.4ZM116.4 100.8C108.7 100.8 104.2 106.3 104.2 112.8C104.2 119.6 108.7 124.7 116.4 124.7C124.1 124.7 128.6 119.5 128.6 112.8C128.6 106.3 124.1 100.8 116.4 100.8Z" fill="white"/>
<path d="M292 87.9H278.4V80.1C272.8 86.5 266.1 89.2 257 89.2C246.5 89.2 237.6 85.4 230.6 78C223.9 70.9 220.5 62.1 220.5 51.6C220.5 41.8 224.3 32.8 231.3 25.9C238.3 19.1 247.1 15.5 257.1 15.5C265.5 15.5 272 17.8 277.3 23.1V16.9H290.3V40.3H272.2C268.7 35 263.7 32.2 257.7 32.2C246.7 32.2 238.4 40.8 238.4 51.7C238.4 63.4 247.3 72.4 257 72.4C263.6 72.4 269.5 68.8 272.9 62.4H252.6V48.2H292V87.9Z" fill="white"/>
<path d="M305.2 47.4H298.9V33H319.9V41C323 34.9 327.8 32.3 334.7 32.1V47.4C324.5 47.9 320.6 52.3 320.6 62.3V73.4H326.9V87.9H298.2V73.4H305.2V47.4Z" fill="white"/>
<path d="M256.7 167.8V182.5H225.9V167.8H232.8V126.1H225.9V111.5H256.4C263.9 111.5 269.6 112 274.4 115.4C280.7 119.8 284 126.5 284 135.3C284 142.8 281.4 149 276.1 153.9C270.9 158.7 264.3 159.6 255.3 159.6H250.3V167.8H256.7ZM253.5 144.3C262.1 144.3 266.3 142.1 266.3 135.7C266.3 129.7 262.6 127.5 254.9 127.5H250.3V144.3H253.5Z" fill="white"/>
<path d="M311.2 183.3C295.8 183.3 284.4 171.5 284.4 155.1C284.4 138.6 295.9 126.9 311.2 126.9C318.6 126.9 323.9 129.2 328 134.6V127.8H349V142.2H343V168H349V182.5H327.3V176.4C323.5 181.1 318.3 183.3 311.2 183.3ZM314.1 168.7C321.7 168.7 327.3 163 327.3 155C327.3 147 321.7 141.3 314.1 141.3C306.5 141.3 300.9 147 300.9 155C300.9 163 306.5 168.7 314.1 168.7Z" fill="white"/>
<path d="M360.5 142.1H354.2V127.7H375.2V135.7C378.3 129.6 383.1 127 390 126.8V142.1C379.8 142.6 375.9 147 375.9 157V168H382.2V182.5H353.6V168H360.6L360.5 142.1Z" fill="white"/>
<path d="M400.5 125.9H393.8V111.5H416V168H422.9V182.5H393.7V168H400.6L400.5 125.9Z" fill="white"/>
<path d="M451.1 183.3C435.7 183.3 424.3 171.5 424.3 155.1C424.3 138.6 435.8 126.9 451.1 126.9C458.5 126.9 463.8 129.2 467.9 134.6V127.8H488.8V142.2H482.8V168H488.8V182.5H467.1V176.4C463.4 181.1 458.2 183.3 451.1 183.3ZM454 168.7C461.6 168.7 467.2 163 467.2 155C467.2 147 461.6 141.3 454 141.3C446.4 141.3 440.8 147 440.8 155C440.9 163 446.4 168.7 454 168.7Z" fill="white"/>
<path d="M493.4 142.1V127.7H514.1V135.9C518 129.7 523.2 126.6 530.1 126.6C536.8 126.6 541.8 130.1 544.6 136.8C549 130 554 126.8 560.8 126.8C571.8 126.8 578.2 134.1 578.2 147.8V168H585.2V182.5H562.8V152.4C562.8 144.8 561 141.1 555.1 141.1C550.1 141.1 546.6 145.2 546.6 152.4V168H553.6V182.5H531.7V152.4C531.7 144.8 529.8 141.1 523.9 141.1C518.9 141.1 515.5 145.2 515.5 152.4V168H521.8V182.5H493.3V168H500.3V142.1H493.4Z" fill="white"/>
<path d="M616.5 183.8C608.1 183.8 601.3 181.2 595.6 175.5C590 170 587.2 163 587.2 155.1C587.2 147.1 590.1 140 595.6 134.6C601.1 129.2 608.5 126.2 616.5 126.2C626.6 126.2 635.6 131 640.9 139C644.1 143.7 645.6 149 645.6 155.1C645.6 157.1 645.4 159.2 645.1 161.3H604.7C606 166.1 610.6 169.4 616.5 169.4C619.6 169.4 622.2 168.4 624.7 166.3H643.6C638.6 177.4 628.5 183.8 616.5 183.8ZM628.7 149.5C627.1 143.5 622.7 140.2 616.4 140.2C610.6 140.2 606 143.6 604.2 149.5H628.7Z" fill="white"/>
<path d="M648.1 142.1V127.7H669.4V135C672.9 129.7 677.9 126.8 685.2 126.8C697.2 126.8 704.2 134.1 704.2 147.8V168H711.2V182.5H688.4V152.4C688.4 144.7 686.4 141.1 679.8 141.1C674.2 141.1 670.2 145.2 670.2 152.4V168H676.5V182.5H647.9V168H654.9V142.1H648.1Z" fill="white"/>
<path d="M716.2 142.1H709.3V127.7H716.2V111.5H732V127.7H738.9V142.1H732V168H737.3V182.5H716.3L716.2 142.1Z" fill="white"/>
<path d="M749.2 134.6C754.7 129.2 762.1 126.2 770.1 126.2C778.1 126.2 785.4 129.2 790.8 134.6C796.3 140 799.2 147 799.2 155.1C799.2 163.1 796.3 170.2 790.8 175.5C785.3 180.9 778 183.8 770.1 183.8C762.2 183.8 754.7 180.9 749.2 175.5C743.7 170.1 740.8 163 740.8 155.1C740.8 147 743.7 140 749.2 134.6ZM770.1 168.6C777.1 168.6 782.8 162.6 782.8 155C782.8 147.3 777.2 141.4 770.1 141.4C763.1 141.4 757.3 147.3 757.3 155C757.3 162.6 763.1 168.6 770.1 168.6Z" fill="white"/>
</svg>
