<svg width="3617" height="1078" viewBox="0 0 3617 1078" fill="none" xmlns="http://www.w3.org/2000/svg">
<path d="M1078 0H0V1078H1078V0Z" fill="#000099"/>
<path d="M901.266 296.726C869.903 296.726 844.145 322.485 844.145 353.846C844.145 385.182 869.903 410.94 901.266 410.94C932.627 410.94 958.359 385.182 958.359 353.846C958.36 322.485 932.628 296.726 901.266 296.726Z" fill="white"/>
<path d="M952.201 464.155H850.309V751.351H952.201V464.155Z" fill="white"/>
<path d="M341.885 578.347C401.793 567.699 434.245 517.323 434.245 459.088C434.245 368.933 370.988 329.205 287.578 329.205H123.521V751.354H233.274V588.97H234.39L337.955 751.355H474.556L341.885 578.347ZM243.897 518.438H233.274V413.174H243.897C279.72 413.174 320.031 419.892 320.031 465.806C320.031 511.72 279.719 518.438 243.897 518.438Z" fill="white"/>
<path d="M689.774 464.138V492.128C668.479 466.928 633.77 454.606 600.734 454.606C515.625 454.606 456.857 525.163 456.857 607.458C456.857 689.753 516.767 760.868 601.849 760.868C635.442 760.868 670.707 747.989 688.632 719.441H689.772V751.335H791.64V464.138H689.774ZM627.61 672.411C586.183 672.411 562.124 644.397 562.124 608.015C562.124 572.749 586.183 543.061 627.61 543.061C669.036 543.061 693.095 572.749 693.095 608.015C693.095 644.397 669.036 672.411 627.61 672.411Z" fill="white"/>
<path d="M1377.35 666.136V754.517H1191.54V666.136H1233.63V414.764H1191.54V326.993H1377.35V414.764H1338.29V666.136H1377.35Z" fill="white"/>
<path d="M1491.05 652.902C1492.26 676.354 1504.89 688.979 1528.92 688.979C1551.79 688.979 1563.83 678.762 1563.83 660.128C1563.83 633.66 1536.15 634.877 1492.26 622.251C1430.91 604.783 1401.45 572.914 1401.45 519.978C1401.45 458.066 1446.55 415.981 1515.71 415.981C1542.16 415.981 1563.22 421.99 1583.66 436.998V423.206H1652.21V516.986H1565.02C1561.4 495.335 1552.98 486.943 1534.35 486.943C1514.52 486.943 1503.09 498.352 1503.09 511.586C1503.09 535.645 1522.91 541.046 1559.6 550.071C1632.36 568.706 1667.86 591.549 1667.86 654.702C1667.86 719.047 1618.54 762.958 1546.97 762.958C1518.73 762.958 1495.28 755.124 1474.24 737.707V754.517H1402.06V652.902H1491.05Z" fill="white"/>
<path d="M1730.78 465.877C1763.83 433.4 1808.35 415.374 1856.47 415.374C1904.57 415.374 1948.46 433.4 1981.54 465.877C2014.6 498.354 2032.07 540.44 2032.07 589.168C2032.07 637.262 2014.6 679.982 1981.54 712.433C1948.46 744.91 1904.57 762.352 1856.47 762.352C1808.35 762.352 1763.83 744.91 1730.78 712.433C1697.69 679.982 1680.25 637.262 1680.25 589.168C1680.25 541.048 1697.69 498.355 1730.78 465.877ZM1856.47 670.93C1898.53 670.93 1932.84 634.878 1932.84 589.168C1932.84 542.849 1899.14 507.354 1856.47 507.354C1814.36 507.354 1779.5 542.849 1779.5 589.168C1779.5 634.879 1814.36 670.93 1856.47 670.93Z" fill="white"/>
<path d="M2431.31 759.361C2338.7 759.361 2269.56 688.373 2269.56 589.167C2269.56 489.936 2338.7 418.974 2431.31 418.974C2475.8 418.974 2507.67 432.816 2532.34 465.268V424.374H2658.62V510.979H2622.54V667.329H2658.62V754.517H2527.52V717.857C2505.26 746.127 2474 759.361 2431.31 759.361ZM2448.75 671.538C2494.44 671.538 2528.13 637.261 2528.13 589.167C2528.13 541.048 2494.44 506.796 2448.75 506.796C2403.04 506.796 2369.35 541.048 2369.35 589.167C2369.35 637.262 2403.04 671.538 2448.75 671.538Z" fill="white"/>
<path d="M2832.3 759.361C2739.72 759.361 2670.58 688.373 2670.58 589.167C2670.58 489.936 2739.72 418.974 2832.3 418.974C2876.82 418.974 2908.69 432.816 2933.36 465.268V410.582H2897.26V326.994H3023.57V667.33H3059.62V754.518H2928.52V717.858C2906.28 746.127 2875.02 759.361 2832.3 759.361ZM2849.77 671.538C2895.46 671.538 2929.13 637.261 2929.13 589.167C2929.13 541.048 2895.46 506.796 2849.77 506.796C2804.06 506.796 2770.37 541.048 2770.37 589.167C2770.37 637.262 2804.06 671.538 2849.77 671.538Z" fill="white"/>
<path d="M3126.91 510.982H3086.6V424.377H3220.11V667.307H3261.61V754.521H3085.41V667.307H3126.91V510.982ZM3126.91 326.972H3220.11V406.352H3126.91V326.972Z" fill="white"/>
<path d="M3315.7 465.877C3348.78 433.4 3393.25 415.374 3441.37 415.374C3489.49 415.374 3533.37 433.4 3566.46 465.877C3599.55 498.354 3616.96 540.44 3616.96 589.168C3616.96 637.262 3599.55 679.982 3566.46 712.433C3533.38 744.91 3489.49 762.352 3441.37 762.352C3393.25 762.352 3348.78 744.91 3315.7 712.433C3282.64 679.982 3265.17 637.262 3265.17 589.168C3265.17 541.048 3282.64 498.355 3315.7 465.877ZM3441.37 670.93C3483.48 670.93 3517.73 634.878 3517.73 589.168C3517.73 542.849 3484.09 507.354 3441.37 507.354C3399.26 507.354 3364.4 542.849 3364.4 589.168C3364.4 634.879 3399.26 670.93 3441.37 670.93Z" fill="white"/>
<path d="M2083.49 510.974H2045.61V424.37H2171.9V472.49C2190.53 435.83 2219.41 420.162 2260.91 418.945V510.975C2199.55 513.992 2176.1 540.41 2176.1 600.572V667.326H2213.96V754.514H2041.38V667.326H2083.49V510.974Z" fill="white"/>
</svg>
