<?xml version="1.0" encoding="utf-8"?>
<!-- Generator: Adobe Illustrator 23.0.1, SVG Export Plug-In . SVG Version: 6.00 Build 0)  -->
<svg version="1.1" id="Livello_1" xmlns="http://www.w3.org/2000/svg" xmlns:xlink="http://www.w3.org/1999/xlink" x="0px" y="0px"
	 width="648.753px" height="250px" viewBox="0 0 648.753 250" enable-background="new 0 0 648.753 250" xml:space="preserve">
<g>
	<g>
		<rect fill="#0099F2" width="250" height="250"/>
		<path fill="#FFFFFF" d="M209.024,68.816c-7.271,0-13.249,5.973-13.249,13.244c0,7.271,5.978,13.244,13.249,13.244
			c7.271,0,13.239-5.973,13.239-13.244C222.263,74.788,216.295,68.816,209.024,68.816"/>
		<rect x="197.206" y="107.64" fill="#FFFFFF" width="23.631" height="66.606"/>
		<path fill="#FFFFFF" d="M79.296,134.128c13.895-2.47,21.421-14.155,21.421-27.659c0-20.907-14.67-30.123-34.013-30.123H28.658
			v97.9h25.449v-37.654h0.26l24.018,37.654h31.681L79.296,134.128z M56.571,120.233h-2.465v-24.41h2.465
			c8.31,0,17.658,1.558,17.658,12.205S64.881,120.233,56.571,120.233"/>
		<path fill="#FFFFFF" d="M159.974,107.641v6.487c-4.939-5.84-12.984-8.697-20.647-8.697c-19.736,0-33.367,16.36-33.367,35.449
			c0,19.084,13.89,35.572,33.626,35.572c7.79,0,15.968-2.984,20.123-9.603h0.265v7.399H183.6v-66.606H159.974z M145.559,155.941
			c-9.608,0-15.189-6.497-15.189-14.934c0-8.182,5.581-15.061,15.189-15.061c9.608,0,15.189,6.879,15.189,15.061
			C160.748,149.445,155.167,155.941,145.559,155.941"/>
	</g>
	<g>
		<path fill="#0099F2" d="M315.121,91.756v18.389h-38.658V91.756h8.633V39.462h-8.633V21.201h38.281
			c9.388,0,16.517,0.622,22.524,4.87c7.879,5.507,12.009,13.886,12.009,25.027c0,9.383-3.253,17.139-9.883,23.269
			c-6.507,6.007-14.763,7.129-26.15,7.129h-6.252v10.26H315.121z M311.118,62.23c10.76,0,16.012-2.753,16.012-10.76
			c0-7.506-4.63-10.255-14.258-10.255h-5.757V62.23H311.118z"/>
		<polygon fill="#0099F2" points="362.829,39.212 354.446,39.212 354.446,21.196 382.222,21.196 382.222,92.001 390.85,92.001 
			390.85,110.144 354.196,110.144 354.196,92.001 362.829,92.001 		"/>
		<path fill="#0099F2" d="M428.411,111.154c-19.265,0-33.656-14.767-33.656-35.41s14.39-35.405,33.656-35.405
			c9.255,0,15.89,2.881,21.015,9.633v-8.506h26.272v18.011h-7.501v32.529h7.501v18.143h-27.272v-7.629
			C443.796,108.4,437.289,111.154,428.411,111.154 M432.037,92.883c9.51,0,16.512-7.129,16.512-17.139
			c0-10.005-7.002-17.134-16.512-17.134c-9.51,0-16.512,7.129-16.512,17.134C415.525,85.754,422.526,92.883,432.037,92.883"/>
		<polygon fill="#0099F2" points="522.092,59.477 522.092,41.461 553.494,41.461 553.494,59.477 547.492,59.477 526.722,113.775 
			532.729,113.775 532.729,131.918 500.7,131.918 500.7,113.775 507.207,113.775 508.457,110.522 489.318,59.477 483.312,59.477 
			483.312,41.461 515.086,41.461 515.086,59.477 509.706,59.477 518.467,86.376 527.472,59.477 		"/>
	</g>
	<g>
		<path fill="#0099F2" d="M293.759,227.706h-16.826v-28.408h19.751c0.853,8.168,3.415,11.945,8.658,11.945
			c4.88,0,8.535-3.533,8.535-8.045c0-2.803-1.465-5.365-3.783-6.83c-4.023-2.435-9.143-3.655-14.508-5.973
			c-12.558-5.365-18.775-13.41-18.775-24.263c0-14.998,11.583-26.581,26.821-26.581c5.125,0,9.393,1.46,13.538,4.63v-2.435h15.973
			v24.748h-18.045c-0.975-5.973-4.023-9.143-8.413-9.143c-4.267,0-7.438,3.17-7.438,6.953c0,3.17,1.46,5.605,3.778,6.825
			c5.488,2.803,11.705,3.9,17.07,6.83c10.608,5.605,15.85,13.288,15.85,23.288c0,15.605-12.558,28.408-27.433,28.408
			c-5.12,0-9.878-1.583-14.753-4.753V227.706z"/>
		<path fill="#0099F2" d="M350.021,169.425c6.708-6.585,15.728-10.24,25.483-10.24c9.755,0,18.653,3.655,25.361,10.24
			c6.708,6.585,10.245,15.12,10.245,24.998c0,9.75-3.538,18.408-10.245,24.993c-6.708,6.585-15.605,10.123-25.361,10.123
			c-9.755,0-18.775-3.538-25.483-10.123c-6.708-6.585-10.245-15.243-10.245-24.993C339.776,184.668,343.314,176.01,350.021,169.425
			 M375.505,211.004c8.535,0,15.488-7.315,15.488-16.58c0-9.393-6.83-16.585-15.488-16.585c-8.535,0-15.606,7.193-15.606,16.585
			C359.899,203.688,366.969,211.004,375.505,211.004"/>
		<path fill="#0099F2" d="M479.813,210.391h8.168v17.56h-26.096v-8.78c-4.385,6.703-10.725,9.873-19.383,9.873
			c-14.635,0-23.166-8.775-23.166-25.483v-24.871h-8.413v-17.683h27.796v36.826c0,9.388,2.563,13.778,10.608,13.778
			c6.83,0,11.588-4.998,11.588-13.778v-19.143h-7.683v-17.683h26.581V210.391z"/>
		<path fill="#0099F2" d="M501.034,178.568h-8.168v-17.555h26.091v8.898c4.268-6.463,10.363-9.995,19.266-9.995
			c14.63,0,23.166,8.898,23.166,25.601v24.753h8.535v17.683H542v-36.826c0-9.388-2.435-13.778-10.485-13.778
			c-6.825,0-11.705,4.998-11.705,13.778v19.143h7.683v17.683h-34.993v-17.683h8.535V178.568z"/>
		<path fill="#0099F2" d="M602.662,228.927c-18.775,0-32.798-14.385-32.798-34.503c0-20.118,14.023-34.508,32.798-34.508
			c9.025,0,15.488,2.803,20.485,9.388V158.21h-7.315v-16.948h25.601v69.012h7.32v17.678h-26.581v-7.438
			C617.66,226.247,611.32,228.927,602.662,228.927 M606.2,211.126c9.265,0,16.095-6.952,16.095-16.703
			c0-9.755-6.83-16.708-16.095-16.708c-9.27,0-16.095,6.953-16.095,16.708C590.105,204.174,596.93,211.126,606.2,211.126"/>
	</g>
</g>
</svg>
