<svg width="4504" height="1078" viewBox="0 0 4504 1078" fill="none" xmlns="http://www.w3.org/2000/svg">
<path d="M71 172H995V891H71V172Z" fill="white"/>
<path d="M0 0V1078H1079.39V0H0ZM900.543 296.689C932.02 296.57 957.724 321.891 958.037 353.297C958.3 384.535 932.666 410.36 901.213 410.527C869.999 410.671 844.2 385.325 843.986 354.23C843.746 322.801 869.303 296.785 900.543 296.689ZM212.918 329.244C241.874 329.259 270.825 329.354 299.764 329.701C325.419 330.012 350.094 336.074 372.9 348.363C399.537 362.76 417.696 384.344 426.416 413.402C435.686 444.329 435.927 475.446 425.098 505.99C411.611 543.959 385.067 567.964 345.543 577.139C344.367 577.403 343.196 577.666 342.02 578.002C341.733 578.097 341.515 578.432 340.918 578.959C384.803 636.116 428.69 693.298 473.033 751.08H336.607C302.279 697.252 267.735 643.162 233.311 589.262C232.641 589.358 232.471 589.356 232.377 589.404C232.208 589.475 232.019 589.597 231.969 589.717C231.849 590.22 231.682 590.722 231.682 591.201C231.586 644.286 231.514 697.397 231.418 750.506C231.418 750.626 231.203 750.745 230.916 751.152H122.252V329.701C123.474 329.557 124.768 329.271 126.037 329.271C155 329.295 183.962 329.229 212.918 329.244ZM232.914 413.201C232.601 413.224 232.385 413.584 231.908 413.967V518.316C244.532 518.604 256.701 518.652 268.799 516.832C277.519 515.538 285.953 513.456 293.857 509.527C306.53 503.251 314.624 493.261 317.355 479.439C318.53 473.45 318.983 467.15 318.65 461.041C317.715 443.721 310.292 430.113 294.264 422.16C290.313 420.195 286.096 418.568 281.832 417.346C265.828 412.698 249.369 412.674 232.914 413.201ZM601.51 454.73C622.288 454.933 642.271 459.702 661.297 469.889C670.45 474.8 678.642 481.004 685.783 488.574C686.573 489.437 687.195 490.443 687.914 491.377C688.367 491.137 688.849 490.898 689.352 490.658V464.689H790.803V751.055H689.4V718.953C687.938 720.174 687.195 720.559 686.789 721.158C672.869 741.352 652.987 752.467 629.605 757.57C567.875 771.033 505.73 741.759 475.549 685.248C459.714 655.663 453.462 624.138 456.91 590.744C461.006 551.121 476.722 517.079 506.354 490.082C527.364 470.942 552.23 459.684 580.475 456.018C587.571 455.102 594.584 454.663 601.51 454.73ZM850.404 464.715H951.57V751.15H850.404V464.715ZM622.918 542.908C619.335 543.134 615.742 543.606 612.148 544.295C590.398 548.487 574.707 560.655 566.18 581.4C560.741 594.648 559.664 608.448 562.465 622.342C567.112 645.556 580.408 661.557 603.238 669.055C614.879 672.912 626.81 673.632 638.861 671.811C656.205 669.224 670.745 661.606 681.094 647.018C689.168 635.543 692.496 622.581 692.762 608.711C692.592 605.789 692.495 602.867 692.162 599.967C689.214 575.748 677.378 557.9 654.572 548.15C644.315 543.749 633.666 542.23 622.918 542.908Z" fill="#0097F1"/>
<path d="M0 0V1078H1079.39V0H0ZM900.543 296.689C932.02 296.57 957.724 321.891 958.037 353.297C958.3 384.535 932.666 410.36 901.213 410.527C869.999 410.671 844.2 385.325 843.986 354.23C843.746 322.801 869.303 296.785 900.543 296.689ZM212.918 329.244C241.874 329.259 270.825 329.354 299.764 329.701C325.419 330.012 350.094 336.074 372.9 348.363C399.537 362.76 417.696 384.344 426.416 413.402C435.686 444.329 435.927 475.446 425.098 505.99C411.611 543.959 385.067 567.964 345.543 577.139C344.367 577.403 343.196 577.666 342.02 578.002C341.733 578.097 341.515 578.432 340.918 578.959C384.803 636.116 428.69 693.298 473.033 751.08H336.607C302.279 697.252 267.735 643.162 233.311 589.262C232.641 589.358 232.471 589.356 232.377 589.404C232.208 589.475 232.019 589.597 231.969 589.717C231.849 590.22 231.682 590.722 231.682 591.201C231.586 644.286 231.514 697.397 231.418 750.506C231.418 750.626 231.203 750.745 230.916 751.152H122.252V329.701C123.474 329.557 124.768 329.271 126.037 329.271C155 329.295 183.962 329.229 212.918 329.244ZM232.914 413.201C232.601 413.224 232.385 413.584 231.908 413.967V518.316C244.532 518.604 256.701 518.652 268.799 516.832C277.519 515.538 285.953 513.456 293.857 509.527C306.53 503.251 314.624 493.261 317.355 479.439C318.53 473.45 318.983 467.15 318.65 461.041C317.715 443.721 310.292 430.113 294.264 422.16C290.313 420.195 286.096 418.568 281.832 417.346C265.828 412.698 249.369 412.674 232.914 413.201ZM601.51 454.73C622.288 454.933 642.271 459.702 661.297 469.889C670.45 474.8 678.642 481.004 685.783 488.574C686.573 489.437 687.195 490.443 687.914 491.377C688.367 491.137 688.849 490.898 689.352 490.658V464.689H790.803V751.055H689.4V718.953C687.938 720.174 687.195 720.559 686.789 721.158C672.869 741.352 652.987 752.467 629.605 757.57C567.875 771.033 505.73 741.759 475.549 685.248C459.714 655.663 453.462 624.138 456.91 590.744C461.006 551.121 476.722 517.079 506.354 490.082C527.364 470.942 552.23 459.684 580.475 456.018C587.571 455.102 594.584 454.663 601.51 454.73ZM850.404 464.715H951.57V751.15H850.404V464.715ZM622.918 542.908C619.335 543.134 615.742 543.606 612.148 544.295C590.398 548.487 574.707 560.655 566.18 581.4C560.741 594.648 559.664 608.448 562.465 622.342C567.112 645.556 580.408 661.557 603.238 669.055C614.879 672.912 626.81 673.632 638.861 671.811C656.205 669.224 670.745 661.606 681.094 647.018C689.168 635.543 692.496 622.581 692.762 608.711C692.592 605.789 692.495 602.867 692.162 599.967C689.214 575.748 677.378 557.9 654.572 548.15C644.315 543.749 633.666 542.23 622.918 542.908Z" fill="#0097F1"/>
<path d="M1205.23 327.781C1203.58 327.781 1201.95 327.972 1200.13 328.068V416.344H1241.04V667.205H1200.04V755.723H1386V667.279H1347.43V618.314C1349.81 618.314 1351.82 618.361 1353.85 618.289C1376.18 617.69 1398.53 617.546 1420.81 616.277C1439.23 615.199 1457.27 611.271 1474.09 603.27C1503.65 589.184 1524.37 566.138 1537.35 536.697C1555.58 495.159 1555.94 452.399 1539.56 410.381C1523.58 369.464 1493.44 343.303 1450.25 333.146C1431.06 328.642 1411.49 327.972 1391.89 327.924C1329.71 327.709 1267.49 327.781 1205.23 327.781ZM1575.74 328.074V414.818H1615.24V668.795H1574.33V755.682H1750.62V668.555H1709.27V328.074H1575.74ZM1931.4 419.801C1922 419.903 1912.57 420.817 1903.14 422.443C1852.71 431.115 1814.55 457.778 1790.53 502.982C1766.66 547.851 1763.34 595.498 1776.92 643.984C1790.38 692.158 1819.92 727.495 1866.2 747.713C1895.76 760.601 1926.74 763.45 1958.53 758.73C1985.36 754.705 2008.02 743.064 2025.74 722.223C2026.1 721.767 2026.7 721.504 2027.97 720.594V755.568H2159.15V668.514H2123.53V512.156H2159.06V425.844H2032.57V464.029C2032.26 464.173 2031.95 464.317 2031.64 464.461C2030.37 462.976 2029.07 461.491 2027.8 459.982C2014.32 444.171 1997.88 432.767 1978.05 426.539C1962.66 421.718 1947.07 419.631 1931.4 419.801ZM1350.57 424.465C1365.18 424.777 1379.77 424.682 1394.34 425.592C1401.55 426.072 1408.9 427.747 1415.85 430.07C1433.65 436.059 1442.46 449.306 1443.52 467.656C1443.92 474.435 1443.52 481.432 1442.25 488.115C1439.61 502.081 1431.04 511.663 1418.05 517.365C1408.69 521.485 1398.77 523.545 1388.69 524.24C1375.37 525.174 1361.97 525.223 1347.96 525.678V424.754C1348.96 424.634 1349.78 424.442 1350.57 424.465ZM2382.86 425.854V512.262H2408.35C2393.93 555.143 2379.84 597.281 2365.69 639.395C2365.4 639.347 2365.02 639.323 2364.68 639.299C2350.93 597.138 2337.18 554.999 2323.17 512.094H2348.75V425.926H2196.01V512.262C2204.15 512.262 2212.04 512.476 2219.92 512.189C2223.63 512.045 2225.23 513.339 2226.55 516.836C2240.42 554.207 2254.39 591.506 2268.43 628.805C2283.9 670.056 2299.5 711.259 2314.9 752.535C2315.76 754.81 2316.43 757.639 2315.86 759.891C2314.73 764.322 2312.7 768.514 2310.8 773.209H2279.78V860.312H2433.58V773.113H2405.24C2438.68 685.747 2471.83 599.147 2505.18 512.117H2533.47V425.854H2382.86ZM1948.08 508.195C1974.37 507.555 1996.57 517.652 2012.88 539.729C2024 554.773 2028.28 572.141 2028.43 591.713C2027.97 613.488 2021.48 634.042 2004.9 650.404C1987.61 667.508 1966.29 674.073 1942.33 672.348C1923.09 670.982 1906.35 663.82 1892.74 650.045C1879.88 637.013 1872.95 621.107 1870.49 603.02C1868.5 587.736 1869.67 572.741 1875.26 558.463C1887.26 527.824 1910.21 510.958 1942.76 508.467C1944.55 508.329 1946.32 508.238 1948.08 508.195Z" fill="#0097F1"/>
<path d="M2710.36 756.287H2628.64V618.214H2724.53C2728.72 657.958 2741.19 676.319 2766.66 676.319C2790.38 676.319 2808.11 659.075 2808.11 637.21C2808.09 630.583 2806.4 624.068 2803.19 618.27C2799.98 612.472 2795.35 607.579 2789.75 604.045C2770.21 592.211 2745.28 586.268 2719.27 575.018C2658.25 548.909 2628 509.853 2628 457.109C2628 384.259 2684.3 328 2758.38 328C2783.27 328 2803.97 335.111 2824.13 350.5V338.664H2901.72V458.912H2814C2809.27 429.885 2794.52 414.495 2773.19 414.495C2752.39 414.495 2737.05 429.885 2737.05 448.246C2737.05 463.633 2744.16 475.521 2755.41 481.41C2782.05 495.05 2812.25 500.355 2838.3 514.577C2889.88 541.852 2915.36 579.158 2915.36 627.712C2915.36 703.534 2854.28 765.734 2782.05 765.734C2757.16 765.734 2734.03 758.039 2710.36 742.652V756.287Z" fill="#0097F1"/>
<path d="M2962.85 517.527H2927.24V432.251H3051.69V472.475C3074.82 442.28 3105.6 426.892 3151.24 426.892C3242.51 426.892 3310.01 496.832 3310.01 594.524C3310.01 692.271 3242.51 762.211 3151.24 762.211C3109.21 762.211 3077.79 749.155 3055.87 721.351V774.629H3087.87V860.54H2927.24V774.629H2962.85L2962.85 517.527ZM3133.45 675.713C3178.51 675.713 3211.61 641.965 3211.61 594.524C3211.61 547.191 3178.5 513.391 3133.45 513.391C3088.41 513.391 3055.23 547.195 3055.23 594.524C3055.23 641.965 3088.4 675.713 3133.45 675.713Z" fill="#0097F1"/>
<path d="M3377.49 473.095C3410.69 441.158 3454.96 423.317 3501.03 423.317C3547.09 423.317 3591.37 441.158 3624.57 473.095C3657.15 505.093 3674.34 546.581 3674.34 594.562C3674.34 641.948 3657.14 684.028 3624.57 715.974C3591.98 747.972 3548.79 765.165 3501.35 765.165C3453.91 765.165 3410.07 747.972 3377.49 715.974C3345.01 684.028 3327.76 641.948 3327.76 594.562C3327.76 547.176 3345.01 505.093 3377.49 473.095ZM3501.35 675.112C3542.79 675.112 3576.59 639.614 3576.59 594.562C3576.59 548.924 3543.37 514.007 3501.35 514.007C3459.85 514.007 3425.52 548.924 3425.52 594.562C3425.52 639.614 3459.85 675.112 3501.35 675.112Z" fill="#0097F1"/>
<path d="M3727.78 517.542H3690.47V432.266H3814.86V479.654C3833.23 443.516 3861.67 428.126 3893.99 426.907V517.542C3842.09 520.515 3819.06 546.622 3819.06 605.791V671.538H3856.31V757.451H3686.34V671.538H3727.79L3727.78 517.542Z" fill="#0097F1"/>
<path d="M3952.99 517.542H3923.49V432.266H3952.99V336.272H4046.6V432.266H4104.5V517.542H4046.6V671.538H4095V757.451H3952.99V517.542Z" fill="#0097F1"/>
<path d="M3952.99 517.542H3923.49V432.266H3952.99V336.272H4046.6V432.266H4104.5V517.542H4046.6V671.538H4095V757.451H3952.99V517.542Z" fill="#0097F1"/>
<path d="M4504 757H4218.55V667.13C4248.31 649.367 4274.4 631.884 4296.82 614.683C4319.24 597.487 4338.08 580.477 4353.34 563.653C4384.24 529.823 4399.68 498.071 4399.68 468.397C4399.68 454.412 4396.08 443.263 4388.88 434.944C4381.68 426.629 4371.81 422.469 4359.28 422.469C4346.38 422.469 4336.18 427.812 4328.7 438.487C4321.22 449.167 4317.48 463.577 4317.48 481.72V491.075H4216V488.24C4216 442.88 4229.48 406.166 4256.46 378.1C4283.42 350.033 4318.79 336 4362.55 336C4405.36 336 4439.63 347.389 4465.38 370.162C4491.12 392.939 4504 423.225 4504 461.023C4504 491.832 4491.24 524.952 4465.73 560.391C4440.22 595.827 4402.14 633.299 4351.5 672.797H4419.81V646.715H4504L4504 757Z" fill="#0097F1"/>
</svg>
