<?xml version="1.0" encoding="UTF-8" standalone="no"?>
<!-- Generator: Adobe Illustrator 23.0.1, SVG Export Plug-In . SVG Version: 6.00 Build 0)  -->
<svg version="1.1" id="Livello_1" x="0px" y="0px" viewBox="0 0 2533.47 1078" enable-background="new 0 0 2533.47 1078" xml:space="preserve" sodipodi:docname="RaiPlay.svg" inkscape:version="1.2.2 (732a01da63, 2022-12-09)" xmlns:inkscape="http://www.inkscape.org/namespaces/inkscape" xmlns:sodipodi="http://sodipodi.sourceforge.net/DTD/sodipodi-0.dtd" xmlns:xlink="http://www.w3.org/1999/xlink" xmlns="http://www.w3.org/2000/svg" xmlns:svg="http://www.w3.org/2000/svg" xmlns:ns="&amp;ns_sfw;"><defs id="defs57"><linearGradient inkscape:collect="always" id="linearGradient8789"><stop style="stop-color:#b3edf3;stop-opacity:1;" offset="0" id="stop12125"/><stop style="stop-color:#82e2eb;stop-opacity:0;" offset="1" id="stop8787"/></linearGradient><linearGradient inkscape:collect="always" id="linearGradient4224"><stop style="stop-color:#01d4e2;stop-opacity:1;" offset="0" id="stop4220"/><stop style="stop-color:#0c97f3;stop-opacity:1;" offset="1" id="stop4222"/></linearGradient><linearGradient inkscape:collect="always" id="linearGradient1155"><stop style="stop-color:#0072f3;stop-opacity:1;" offset="0" id="stop1151"/><stop style="stop-color:#00e0db;stop-opacity:1;" offset="1" id="stop1153"/></linearGradient>
	
	

		
		
	<linearGradient inkscape:collect="always" xlink:href="#linearGradient1155" id="linearGradient1157" x1="61.201805" y1="919.02051" x2="935.63568" y2="164.67268" gradientUnits="userSpaceOnUse"/>
		
		
		
		
	<linearGradient inkscape:collect="always" xlink:href="#linearGradient4224" id="linearGradient4226" x1="1772.2008" y1="594.04102" x2="2533.4688" y2="594.04101" gradientUnits="userSpaceOnUse"/><radialGradient inkscape:collect="always" xlink:href="#linearGradient8789" id="radialGradient8791" cx="284.9241" cy="74.315536" fx="284.9241" fy="74.315536" r="539.6944" gradientTransform="matrix(1.284818,0.00271231,-0.00263723,1.2492501,-365.61509,-89.771427)" gradientUnits="userSpaceOnUse"/></defs><sodipodi:namedview id="namedview55" pagecolor="#ffffff" bordercolor="#cccccc" borderopacity="1" inkscape:showpageshadow="0" inkscape:pageopacity="1" inkscape:pagecheckerboard="0" inkscape:deskcolor="#d1d1d1" showgrid="false" inkscape:zoom="0.70259368" inkscape:cx="1265.3117" inkscape:cy="550.10458" inkscape:window-width="1920" inkscape:window-height="991" inkscape:window-x="-9" inkscape:window-y="-9" inkscape:window-maximized="1" inkscape:current-layer="Livello_1"/>
<metadata id="metadata34">
	<ns:sfw>
		<ns:slices/>
		<ns:sliceSourceBounds bottomLeftOrigin="true" height="1078" width="2533.47" x="0" y="-1078"/>
	</ns:sfw>
</metadata>
<path id="rect36" d="M 0 0 L 0 1078 L 1079.3887 1078 L 1079.3887 0 L 0 0 z M 900.54297 296.68945 C 932.01994 296.57045 957.72411 321.89091 958.03711 353.29688 C 958.30011 384.53484 932.66586 410.36034 901.21289 410.52734 C 869.99892 410.67134 844.20033 385.32544 843.98633 354.23047 C 843.74633 322.8015 869.303 296.78545 900.54297 296.68945 z M 212.91797 329.24414 C 241.87431 329.25902 270.8252 329.35367 299.76367 329.70117 C 325.41865 330.01217 350.09441 336.07429 372.90039 348.36328 C 399.53736 362.76027 417.69602 384.34437 426.41602 413.40234 C 435.68601 444.32931 435.92665 475.44626 425.09766 505.99023 C 411.61067 543.9592 385.06693 567.96368 345.54297 577.13867 C 344.36697 577.40267 343.19553 577.66595 342.01953 578.00195 C 341.73253 578.09695 341.51497 578.43198 340.91797 578.95898 C 384.80292 636.11593 428.69025 693.29814 473.0332 751.08008 L 336.60742 751.08008 C 302.27946 697.25213 267.73451 643.16166 233.31055 589.26172 C 232.64055 589.35772 232.47095 589.3563 232.37695 589.4043 C 232.20795 589.4753 232.01875 589.5968 231.96875 589.7168 C 231.84875 590.2198 231.68164 590.72217 231.68164 591.20117 C 231.58564 644.28612 231.51397 697.39691 231.41797 750.50586 C 231.41797 750.62586 231.20302 750.74534 230.91602 751.15234 L 122.25195 751.15234 L 122.25195 329.70117 C 123.47395 329.55717 124.76811 329.27148 126.03711 329.27148 C 155.00008 329.29548 183.96162 329.22927 212.91797 329.24414 z M 232.91406 413.20117 C 232.60106 413.22417 232.3852 413.5838 231.9082 413.9668 L 231.9082 518.31641 C 244.53219 518.60441 256.70084 518.65203 268.79883 516.83203 C 277.51882 515.53803 285.95343 513.45634 293.85742 509.52734 C 306.53041 503.25135 314.62447 493.26144 317.35547 479.43945 C 318.53047 473.45046 318.98339 467.15001 318.65039 461.04102 C 317.71539 443.72103 310.29166 430.11315 294.26367 422.16016 C 290.31268 420.19516 286.09603 418.5677 281.83203 417.3457 C 265.82805 412.69771 249.36905 412.67417 232.91406 413.20117 z M 601.50977 454.73047 C 622.28765 454.93316 642.27089 459.70218 661.29688 469.88867 C 670.44987 474.79967 678.64221 481.00423 685.7832 488.57422 C 686.5732 489.43722 687.19506 490.44295 687.91406 491.37695 C 688.36706 491.13695 688.84856 490.8982 689.35156 490.6582 L 689.35156 464.68945 L 790.80273 464.68945 L 790.80273 751.05469 L 689.40039 751.05469 L 689.40039 718.95312 C 687.93839 720.17412 687.19506 720.5592 686.78906 721.1582 C 672.86908 741.35218 652.98745 752.46732 629.60547 757.57031 C 567.87453 771.0333 505.7298 741.75899 475.54883 685.24805 C 459.71384 655.66308 453.46216 624.13811 456.91016 590.74414 C 461.00615 551.12118 476.72155 517.079 506.35352 490.08203 C 527.36449 470.94205 552.22964 459.68357 580.47461 456.01758 C 587.5711 455.10158 594.5838 454.66291 601.50977 454.73047 z M 850.4043 464.71484 L 951.57031 464.71484 L 951.57031 751.15039 L 850.4043 751.15039 L 850.4043 464.71484 z M 622.91797 542.9082 C 619.33527 543.13427 615.74243 543.60617 612.14844 544.29492 C 590.39846 548.48692 574.70668 560.65541 566.17969 581.40039 C 560.74069 594.64838 559.66385 608.44781 562.46484 622.3418 C 567.11184 645.55577 580.4083 661.55669 603.23828 669.05469 C 614.87927 672.91168 626.81034 673.63155 638.86133 671.81055 C 656.20531 669.22355 670.74476 661.60556 681.09375 647.01758 C 689.16774 635.54259 692.49572 622.58092 692.76172 608.71094 C 692.59172 605.78894 692.49511 602.86679 692.16211 599.9668 C 689.21411 575.74782 677.37824 557.90038 654.57227 548.15039 C 644.31453 543.74865 633.66607 542.23002 622.91797 542.9082 z " style="fill-opacity:1;fill:url(#linearGradient1157)"/><path id="path42" d="M 1205.2324 327.78125 C 1203.5804 327.78125 1201.9509 327.97236 1200.1289 328.06836 L 1200.1289 416.34375 L 1241.0449 416.34375 L 1241.0449 667.20508 L 1200.0352 667.20508 L 1200.0352 755.72266 L 1386.002 755.72266 L 1386.002 667.2793 L 1347.4336 667.2793 L 1347.4336 618.31445 C 1349.8056 618.31445 1351.8166 618.36106 1353.8516 618.28906 C 1376.1785 617.69006 1398.5286 617.54634 1420.8086 616.27734 C 1439.2316 615.19934 1457.269 611.27052 1474.0859 603.26953 C 1503.6469 589.18355 1524.3676 566.13824 1537.3516 536.69727 C 1555.5815 495.15931 1555.9416 452.39882 1539.5566 410.38086 C 1523.5787 369.4639 1493.441 343.30347 1450.25 333.14648 C 1431.061 328.64249 1411.4876 327.97183 1391.8926 327.92383 C 1329.7056 327.70883 1267.4924 327.78125 1205.2324 327.78125 z M 1575.7383 328.07422 L 1575.7383 414.81836 L 1615.2422 414.81836 L 1615.2422 668.79492 L 1574.3262 668.79492 L 1574.3262 755.68164 L 1750.6152 755.68164 L 1750.6152 668.55469 L 1709.2695 668.55469 L 1709.2695 328.07422 L 1575.7383 328.07422 z M 1931.4004 419.80078 C 1921.9998 419.90276 1912.5718 420.81736 1903.1387 422.44336 C 1852.7127 431.11535 1814.5514 457.77847 1790.5254 502.98242 C 1766.6634 547.85138 1763.336 595.49842 1776.916 643.98438 C 1790.38 692.15833 1819.9173 727.49491 1866.1992 747.71289 C 1895.7612 760.60088 1926.7354 763.45046 1958.5254 758.73047 C 1985.3554 754.70547 2008.0172 743.06364 2025.7441 722.22266 C 2026.1031 721.76666 2026.7007 721.50375 2027.9727 720.59375 L 2027.9727 755.56836 L 2159.1523 755.56836 L 2159.1523 668.51367 L 2123.5312 668.51367 L 2123.5312 512.15625 L 2159.0566 512.15625 L 2159.0566 425.84375 L 2032.5723 425.84375 L 2032.5723 464.0293 C 2032.2593 464.1733 2031.9507 464.31694 2031.6367 464.46094 C 2030.3677 462.97594 2029.0717 461.49142 2027.8027 459.98242 C 2014.3167 444.17144 1997.8808 432.76706 1978.0488 426.53906 C 1962.6563 421.71782 1947.068 419.63082 1931.4004 419.80078 z M 1350.5703 424.46484 C 1365.1823 424.77684 1379.7719 424.6818 1394.3379 425.5918 C 1401.5489 426.0718 1408.9027 427.74731 1415.8477 430.07031 C 1433.6476 436.05931 1442.4646 449.30627 1443.5176 467.65625 C 1443.9246 474.43524 1443.517 481.43224 1442.248 488.11523 C 1439.614 502.08122 1431.0367 511.66324 1418.0527 517.36523 C 1408.6867 521.48523 1398.7685 523.54524 1388.6855 524.24023 C 1375.3656 525.17423 1361.972 525.22273 1347.959 525.67773 L 1347.959 424.75391 C 1348.965 424.63391 1349.7803 424.44184 1350.5703 424.46484 z M 2382.8613 425.85352 L 2382.8613 512.26172 L 2408.3516 512.26172 C 2393.9296 555.14268 2379.8435 597.28057 2365.6875 639.39453 C 2365.3975 639.34653 2365.0157 639.32283 2364.6797 639.29883 C 2350.9297 597.13787 2337.179 554.99871 2323.166 512.09375 L 2348.75 512.09375 L 2348.75 425.92578 L 2196.0098 425.92578 L 2196.0098 512.26172 C 2204.1538 512.26172 2212.035 512.47645 2219.916 512.18945 C 2223.63 512.04545 2225.2348 513.33894 2226.5508 516.83594 C 2240.4228 554.2069 2254.3888 591.50572 2268.4258 628.80469 C 2283.9008 670.05565 2299.4954 711.2592 2314.9004 752.53516 C 2315.7604 754.81015 2316.4334 757.63863 2315.8574 759.89062 C 2314.7314 764.32162 2312.6967 768.51399 2310.8047 773.20898 L 2279.7793 773.20898 L 2279.7793 860.3125 L 2433.5762 860.3125 L 2433.5762 773.11328 L 2405.2363 773.11328 C 2438.6783 685.74737 2471.8317 599.1471 2505.1797 512.11719 L 2533.4688 512.11719 L 2533.4688 425.85352 L 2382.8613 425.85352 z M 1948.0762 508.19531 C 1974.3745 507.55513 1996.5749 517.65229 2012.8809 539.72852 C 2023.9958 554.7735 2028.2828 572.14091 2028.4258 591.71289 C 2027.9728 613.48787 2021.4803 634.04231 2004.9023 650.4043 C 1987.6054 667.50828 1966.2861 674.07265 1942.3301 672.34766 C 1923.0941 670.98166 1906.3492 663.81991 1892.7422 650.04492 C 1879.8782 637.01293 1872.9543 621.10651 1870.4863 603.01953 C 1868.4983 587.73555 1869.6739 572.74088 1875.2559 558.46289 C 1887.2578 527.82392 1910.2077 510.95779 1942.7637 508.4668 C 1944.5528 508.32905 1946.3229 508.23799 1948.0762 508.19531 z " style="fill-opacity:1;fill:url(#linearGradient4226)"/>
<path id="path8276" d="M 0,0 V 1078 H 1079.3887 V 0 Z m 900.54295,296.68945 c 31.47705,-0.119 57.18125,25.20146 57.49425,56.60743 0.263,31.23796 -25.3713,57.06346 -56.82435,57.23046 -31.2139,0.144 -57.0125,-25.2019 -57.2265,-56.29687 -0.24,-31.42897 25.3167,-57.44502 56.5566,-57.54102 z m -687.62498,32.55469 c 28.95634,0.0149 57.90723,0.10953 86.8457,0.45703 25.65498,0.311 50.33074,6.37312 73.13672,18.66211 26.63697,14.39699 44.79563,35.98109 53.51563,65.03906 9.26999,30.92697 9.51063,62.04392 -1.31836,92.58789 -13.48699,37.96897 -40.03073,61.97345 -79.55469,71.14844 -1.176,0.264 -2.34744,0.52728 -3.52344,0.86328 -0.287,0.095 -0.50456,0.43003 -1.10156,0.95703 43.88495,57.15695 87.77228,114.33916 132.11523,172.1211 H 336.60742 C 302.27946,697.25213 267.73451,643.16166 233.31055,589.26172 c -0.67,0.096 -0.8396,0.0946 -0.9336,0.14258 -0.169,0.071 -0.3582,0.1925 -0.4082,0.3125 -0.12,0.503 -0.28711,1.00537 -0.28711,1.48437 -0.096,53.08495 -0.16767,106.19574 -0.26367,159.30469 0,0.12 -0.21495,0.23948 -0.50195,0.64648 H 122.25195 V 329.70117 c 1.222,-0.144 2.51616,-0.42969 3.78516,-0.42969 28.96297,0.024 57.92451,-0.0422 86.88086,-0.0273 z m 19.99609,83.95703 c -0.313,0.023 -0.52886,0.38263 -1.00586,0.76563 v 104.34961 c 12.62399,0.288 24.79264,0.33562 36.89063,-1.48438 8.71999,-1.294 17.1546,-3.37569 25.05859,-7.30469 12.67299,-6.27599 20.76705,-16.2659 23.49805,-30.08789 1.175,-5.98899 1.62792,-12.28944 1.29492,-18.39843 -0.935,-17.31999 -8.35873,-30.92787 -24.38672,-38.88086 -3.95099,-1.965 -8.16764,-3.59246 -12.43164,-4.81446 -16.00398,-4.64799 -32.46298,-4.67153 -48.91797,-4.14453 z m 368.59571,41.5293 c 20.77788,0.20269 40.76112,4.97171 59.78711,15.1582 9.15299,4.911 17.34533,11.11556 24.48632,18.68555 0.79,0.863 1.41186,1.86873 2.13086,2.80273 0.453,-0.24 0.9345,-0.47875 1.4375,-0.71875 V 464.68945 H 790.80275 V 751.05469 H 689.40039 v -32.10157 c -1.462,1.221 -2.20533,1.60608 -2.61133,2.20508 -13.91998,20.19398 -33.80161,31.30912 -57.18359,36.41211 -61.73094,13.46299 -123.87567,-15.81132 -154.05664,-72.32226 -15.83499,-29.58497 -22.08667,-61.10994 -18.63867,-94.50391 4.09599,-39.62296 19.81139,-73.66514 49.44336,-100.66211 21.01097,-19.13998 45.87612,-30.39846 74.12109,-34.06445 7.09649,-0.916 14.10919,-1.35467 21.03516,-1.28711 z m 248.89458,9.98437 H 951.5704 V 751.15039 H 850.40435 Z M 622.91797,542.9082 c -3.5827,0.22607 -7.17554,0.69797 -10.76953,1.38672 -21.74998,4.192 -37.44176,16.36049 -45.96875,37.10547 -5.439,13.24799 -6.51584,27.04742 -3.71485,40.94141 4.647,23.21397 17.94346,39.21489 40.77344,46.71289 11.64099,3.85699 23.57206,4.57686 35.62305,2.75586 17.34398,-2.587 31.88343,-10.20499 42.23242,-24.79297 8.07399,-11.47499 11.40197,-24.43666 11.66797,-38.30664 -0.17,-2.922 -0.26661,-5.84415 -0.59961,-8.74414 -2.948,-24.21898 -14.78387,-42.06642 -37.58984,-51.81641 -10.25774,-4.40174 -20.9062,-5.92037 -31.6543,-5.24219 z" style="fill:url(#radialGradient8791);fill-opacity:1"/></svg>