<?xml version="1.0" encoding="utf-8"?>
<!-- Generator: Adobe Illustrator 23.0.1, SVG Export Plug-In . SVG Version: 6.00 Build 0)  -->
<!DOCTYPE svg PUBLIC "-//W3C//DTD SVG 1.1//EN" "http://www.w3.org/Graphics/SVG/1.1/DTD/svg11.dtd" [
	<!ENTITY ns_extend "http://ns.adobe.com/Extensibility/1.0/">
	<!ENTITY ns_ai "http://ns.adobe.com/AdobeIllustrator/10.0/">
	<!ENTITY ns_graphs "http://ns.adobe.com/Graphs/1.0/">
	<!ENTITY ns_vars "http://ns.adobe.com/Variables/1.0/">
	<!ENTITY ns_imrep "http://ns.adobe.com/ImageReplacement/1.0/">
	<!ENTITY ns_sfw "http://ns.adobe.com/SaveForWeb/1.0/">
	<!ENTITY ns_custom "http://ns.adobe.com/GenericCustomNamespace/1.0/">
	<!ENTITY ns_adobe_xpath "http://ns.adobe.com/XPath/1.0/">
]>
<svg version="1.1" id="Livello_9" xmlns:x="&ns_extend;" xmlns:i="&ns_ai;" xmlns:graph="&ns_graphs;"
	 xmlns="http://www.w3.org/2000/svg" xmlns:xlink="http://www.w3.org/1999/xlink" x="0px" y="0px" viewBox="0 0 1268.8 500"
	 enable-background="new 0 0 1268.8 500" xml:space="preserve">
<metadata>
	<sfw  xmlns="&ns_sfw;">
		<slices></slices>
		<sliceSourceBounds  bottomLeftOrigin="true" height="500" width="1268.8" x="-312.2" y="-164.3"></sliceSourceBounds>
	</sfw>
</metadata>
<g>
	<rect fill="#2DBBEE" width="500" height="500"/>
	<path fill="#FFFFFF" d="M113,191.7h-5v48.8h5c16.5,0,35.2-3,35.2-24.5C148.5,194.8,129.8,191.7,113,191.7z M156.8,348.5l-48-75.2
		h-0.5v75.2h-51V152.8h76c38.8,0,68,18.5,68,60.2c0,27-15,50.5-42.8,55.2l61.5,80.2H156.8z M441.8,348.5h-47.2V215.2h47.2V348.5z
		 M418,190.5c-14.5,0-26.5-12-26.5-26.5s12-26.5,26.5-26.5c14.5,0,26.5,12,26.5,26.5C444.5,178.8,432.5,190.5,418,190.5z
		 M367.2,348.5H320v-14.7h-0.5c-8.2,13.2-24.8,19.2-40.2,19.2c-39.5,0-67.2-33-67.2-71.2s27.3-71,66.8-71c15.2,0,31.5,5.8,41.2,17.5
		v-13h47.2V348.5z M291,252c-19.2,0-30.5,13.8-30.5,30c0,17,11.2,29.8,30.5,29.8s30.5-13,30.5-29.8C321.5,265.8,310.2,252,291,252z"
		/>
	<g>
		<path fill="#2DBBEE" d="M624.5,182.5v36.7h-71.2v-36.7h17.2V78.2h-17.2V42h71.2c20.5,0,36.8,0.2,50,9.7c15.3,10.5,24.5,29,24.5,49
			c0,24.5-12.5,44.7-33.2,54.8l22,27h16.8v36.7h-38.2l-52-63.5v26.8H624.5z M622.5,123.8c21.8,0,32.2-6,32.2-21.2
			c0-16-9.3-20.8-30.3-20.8H614v41.8L622.5,123.8L622.5,123.8z"/>
		<path fill="#2DBBEE" d="M776,221c-38.2,0-67-29.5-67-70.5S737.8,80,776,80c18.5,0,31.8,5.8,41.8,19.2v-17H870v36h-15V183h15v36.2
			h-54.3V204C806.8,215.5,793.8,221,776,221z M783.2,184.8c19,0,33-14.2,33-34.2s-14-34.2-33-34.2c-19,0-33,14.2-33,34.2
			S764.2,184.8,783.2,184.8z"/>
		<path fill="#2DBBEE" d="M942.2,221c-38.2,0-67-29.5-67-70.5s28.5-70.5,67-70.5c18.5,0,31.8,5.8,41.8,19.2V76.5h-15V42h52.2v141h15
			v36.2H982V204C972.8,215.5,959.8,221,942.2,221z M949.5,184.8c19,0,33-14.2,33-34.2s-14-34.2-33-34.2c-19,0-33,14.2-33,34.2
			S930.5,184.8,949.5,184.8z"/>
		<path fill="#2DBBEE" d="M1064.2,118.2h-16.8v-36h55.2V183h17.2v36.2h-73V183h17.2V118.2L1064.2,118.2z M1064.2,42h38.5v33h-38.5
			V42z"/>
		<path fill="#2DBBEE" d="M1144,99.5c13.8-13.5,32.2-21,52-21c20,0,38,7.5,51.8,21s21,31,21,51s-7.2,37.7-21,51
			c-13.8,13.5-32,20.8-51.8,20.8c-20,0-38.5-7.2-52-20.8c-13.8-13.5-21-31.2-21-51S1130.2,113,1144,99.5z M1196,184.5
			c17.5,0,31.8-15,31.8-34c0-19.2-14-34-31.8-34c-17.5,0-32,14.8-32,34C1164,169.5,1178.5,184.5,1196,184.5z"/>
	</g>
	<path fill="#FE0000" d="M630.2,422.5V456h-77v-36.8h17.2V315h-17.2v-36.2h77v33.8h-16.5v46l46.2-46h-18.8v-33.8H718V315h-15
		l-49.5,50l56,54.2H720V456h-77v-33.5h17l-46.2-46.2v46.2H630.2z"/>
	<path fill="#02AD45" d="M747.2,355h-16.8v-36h55.2v100.7H803V456h-73v-36.3h17.2V355z M747.2,278.8h38.5v33h-38.5V278.8z"/>
	<path fill="#F63683" d="M870,458.2c-38.2,0-67-29.5-67-70.5s28.8-70.5,67-70.5c18.5,0,31.8,5.8,41.8,19.2v-22.8h-15V279H949v141h15
		v36.2h-54V441C900.7,452.8,887.8,458.2,870,458.2z M877.2,421.8c19,0,33-14.2,33-34.2s-14-34.2-33-34.2c-19,0-33,14.2-33,34.2
		C844.2,407.5,858.2,421.8,877.2,421.8z"/>
	<path fill="#FFB502" d="M1011.8,414c0.5,9.7,5.8,15,15.8,15c9.5,0,14.5-4.2,14.5-12c0-11-11.5-10.5-29.8-15.8
		c-25.5-7.2-37.5-20.5-37.5-42.2c0-25.8,18.8-43,47.2-43c11,0,19.8,2.5,28.2,8.8V319h28.5v38.7h-36.2c-1.5-9-5-12.5-12.8-12.5
		c-8.2,0-13,4.7-13,10.2c0,10,8.2,12.2,23.5,16c30.3,7.8,44.8,17.2,44.8,43.3c0,26.8-20.5,44.7-50,44.7c-11.8,0-21.5-3.2-30.2-10.5
		v7h-30v-42H1011.8z"/>
</g>
</svg>
