<?xml version="1.0" encoding="utf-8"?>
<!-- Generator: Adobe Illustrator 23.0.1, SVG Export Plug-In . SVG Version: 6.00 Build 0)  -->
<!DOCTYPE svg PUBLIC "-//W3C//DTD SVG 1.1//EN" "http://www.w3.org/Graphics/SVG/1.1/DTD/svg11.dtd" [
	<!ENTITY ns_extend "http://ns.adobe.com/Extensibility/1.0/">
	<!ENTITY ns_ai "http://ns.adobe.com/AdobeIllustrator/10.0/">
	<!ENTITY ns_graphs "http://ns.adobe.com/Graphs/1.0/">
	<!ENTITY ns_vars "http://ns.adobe.com/Variables/1.0/">
	<!ENTITY ns_imrep "http://ns.adobe.com/ImageReplacement/1.0/">
	<!ENTITY ns_sfw "http://ns.adobe.com/SaveForWeb/1.0/">
	<!ENTITY ns_custom "http://ns.adobe.com/GenericCustomNamespace/1.0/">
	<!ENTITY ns_adobe_xpath "http://ns.adobe.com/XPath/1.0/">
]>
<svg version="1.1" id="Livello_11" xmlns:x="&ns_extend;" xmlns:i="&ns_ai;" xmlns:graph="&ns_graphs;"
	 xmlns="http://www.w3.org/2000/svg" xmlns:xlink="http://www.w3.org/1999/xlink" x="0px" y="0px" viewBox="0 0 625.4 200"
	 enable-background="new 0 0 625.4 200" xml:space="preserve">
<metadata>
	<sfw  xmlns="&ns_sfw;">
		<slices></slices>
		<sliceSourceBounds  bottomLeftOrigin="true" height="200" width="625.4" x="0" y="0"></sliceSourceBounds>
	</sfw>
</metadata>
<g>
	<g>
		<rect fill="#066855" width="200" height="200"/>
		<path fill="#FFFFFF" d="M45.2,76.7h-2v19.5h2c6.6,0,14.1-1.2,14.1-9.8C59.4,77.9,51.9,76.7,45.2,76.7z M62.7,139.4l-19.2-30.1
			h-0.2v30.1H22.9V61.1h30.4c15.5,0,27.2,7.4,27.2,24.1c0,10.8-6,20.2-17.1,22.1L88,139.4H62.7z M176.7,139.4h-18.9V86.1h18.9V139.4
			z M167.2,76.2c-5.8,0-10.6-4.8-10.6-10.6S161.4,55,167.2,55s10.6,4.8,10.6,10.6C177.8,71.5,173,76.2,167.2,76.2z M146.9,139.4H128
			v-5.9h-0.2c-3.3,5.3-9.9,7.7-16.1,7.7c-15.8,0-26.9-13.2-26.9-28.5s10.9-28.4,26.7-28.4c6.1,0,12.6,2.3,16.5,7v-5.2h18.9V139.4z
			 M116.4,100.8c-7.7,0-12.2,5.5-12.2,12c0,6.8,4.5,11.9,12.2,11.9s12.2-5.2,12.2-11.9C128.6,106.3,124.1,100.8,116.4,100.8z"/>
	</g>
	<g>
		<g>
			<path fill="#066855" d="M249.8,73v14.7h-28.5V73h6.9V31.3h-6.9V16.8h28.5c8.2,0,14.7,0.1,20,3.9c6.1,4.2,9.8,11.6,9.8,19.6
				c0,9.8-5,17.9-13.3,21.9l8.8,10.8h6.7v14.7h-15.3l-20.8-25.4V73H249.8z M249,49.5c8.7,0,12.9-2.4,12.9-8.5
				c0-6.4-3.7-8.3-12.1-8.3h-4.2v16.7L249,49.5L249,49.5z"/>
			<path fill="#066855" d="M310.4,88.4c-15.3,0-26.8-11.8-26.8-28.2S295.1,32,310.4,32c7.4,0,12.7,2.3,16.7,7.7v-6.8H348v14.4h-6
				v25.9h6v14.5h-21.7v-6.1C322.7,86.2,317.5,88.4,310.4,88.4z M313.3,73.9c7.6,0,13.2-5.7,13.2-13.7s-5.6-13.7-13.2-13.7
				s-13.2,5.7-13.2,13.7S305.7,73.9,313.3,73.9z"/>
			<path fill="#066855" d="M376.9,88.4c-15.3,0-26.8-11.8-26.8-28.2S361.5,32,376.9,32c7.4,0,12.7,2.3,16.7,7.7v-9.1h-6V16.8h20.9
				v56.4h6v14.5h-21.7v-6.1C389.1,86.2,383.9,88.4,376.9,88.4z M379.8,73.9c7.6,0,13.2-5.7,13.2-13.7s-5.6-13.7-13.2-13.7
				s-13.2,5.7-13.2,13.7S372.2,73.9,379.8,73.9z"/>
			<path fill="#066855" d="M425.7,47.3H419V32.9h22.1v40.3h6.9v14.5h-29.2V73.2h6.9L425.7,47.3L425.7,47.3z M425.7,16.8h15.4V30
				h-15.4V16.8z"/>
			<path fill="#066855" d="M457.6,39.8c5.5-5.4,12.9-8.4,20.8-8.4c8,0,15.2,3,20.7,8.4s8.4,12.4,8.4,20.4s-2.9,15.1-8.4,20.4
				c-5.5,5.4-12.8,8.3-20.7,8.3c-8,0-15.4-2.9-20.8-8.3c-5.5-5.4-8.4-12.5-8.4-20.4S452.1,45.2,457.6,39.8z M478.4,73.8
				c7,0,12.7-6,12.7-13.6c0-7.7-5.6-13.6-12.7-13.6c-7,0-12.8,5.9-12.8,13.6C465.6,67.8,471.4,73.8,478.4,73.8z"/>
		</g>
		<g>
			<path fill="#066855" d="M264.6,167.8v14.7h-30.8v-14.7h6.9v-41.7H234v9.7h-12.8v-24.2h56v24.2h-12.7v-9.7h-6.6v41.7H264.6z"/>
			<path fill="#066855" d="M303.1,183.8c-8.4,0-15.2-2.6-20.8-8.3c-5.6-5.5-8.4-12.5-8.4-20.4c0-8,2.9-15.1,8.4-20.4
				c5.5-5.4,12.9-8.4,20.8-8.4c10.1,0,19,4.8,24.4,12.8c3.2,4.7,4.7,10,4.7,16.1c0,2-0.2,4.1-0.5,6.2h-40.4
				c1.3,4.8,5.9,8.1,11.8,8.1c3.1,0,5.7-1,8.2-3.1h18.8C325.2,177.4,315.1,183.8,303.1,183.8z M315.3,149.6c-1.6-6-6-9.3-12.3-9.3
				c-5.8,0-10.4,3.4-12.2,9.3H315.3z"/>
			<path fill="#066855" d="M364,183.8c-8.3,0-15.3-2.7-20.8-8.3c-5.6-5.5-8.4-12.5-8.4-20.4c0-8,2.7-14.7,8.4-20.4
				c5.3-5.5,12-8.3,19-8.3c6,0,11,2.1,15.1,6.3v-4.9h12.4v20.1h-14.8c-2.2-4.2-5.8-6.4-10.6-6.4c-7.4,0-13.1,5.9-13.1,13.6
				c0,7.7,5.5,13.6,12.8,13.6c4.5,0,8.3-2.2,10.3-6.1h17.9C388.5,175.9,378.1,183.8,364,183.8z"/>
			<path fill="#066855" d="M400.7,125.9H394v-14.4h22v22.6c3.5-4.8,8.4-7.4,15.2-7.4c12,0,18.8,7.3,18.8,20.9V168h7v14.5h-22.8
				v-30.1c0-7.7-2-11.3-8.6-11.3c-5.6,0-9.6,4.1-9.6,11.3V168h6.3v14.5h-28.6V168h7L400.7,125.9L400.7,125.9z"/>
			<path fill="#066855" d="M487.1,183.8c-8.4,0-15.2-2.6-20.8-8.3c-5.6-5.5-8.4-12.5-8.4-20.4c0-8,2.9-15.1,8.4-20.4
				c5.5-5.4,12.9-8.4,20.8-8.4c10.1,0,19,4.8,24.4,12.8c3.2,4.7,4.7,10,4.7,16.1c0,2-0.2,4.1-0.5,6.2h-40.4
				c1.3,4.8,5.9,8.1,11.8,8.1c3.1,0,5.7-1,8.2-3.1h18.8C509.2,177.4,499.1,183.8,487.1,183.8z M499.3,149.6c-1.6-6-6-9.3-12.3-9.3
				c-5.8,0-10.4,3.4-12.2,9.3H499.3z"/>
			<path fill="#066855" d="M524,142.1h-6.9v-14.4h6.9v-16.2h15.8v16.2h6.9v14.4h-6.9V168h5.3v14.5h-21L524,142.1L524,142.1z"/>
			<path fill="#066855" d="M577.6,183.8c-8.4,0-15.2-2.6-20.8-8.3c-5.6-5.5-8.4-12.5-8.4-20.4c0-8,2.9-15.1,8.4-20.4
				c5.5-5.4,12.9-8.4,20.8-8.4c10.1,0,19,4.8,24.4,12.8c3.2,4.7,4.7,10,4.7,16.1c0,2-0.2,4.1-0.5,6.2h-40.4
				c1.3,4.8,5.9,8.1,11.8,8.1c3.1,0,5.7-1,8.2-3.1h18.8C599.7,177.4,589.6,183.8,577.6,183.8z M589.8,149.6c-1.6-6-6-9.3-12.3-9.3
				c-5.8,0-10.4,3.4-12.2,9.3H589.8z M609.6,134.1c0.5,0,0.9,0.1,1.4,0.1c4.1,0,5.4-1.7,5.4-6.3c0-0.6-0.1,0.1-0.1-0.6h-6.7v-15.8
				h15.8v16.8c0,9.4-4.4,13.9-13.3,13.9c-0.8,0-1.6,0-2.5-0.1L609.6,134.1L609.6,134.1z"/>
		</g>
	</g>
</g>
</svg>
