<?xml version="1.0" encoding="utf-8"?>
<!-- Generator: Adobe Illustrator 23.0.1, SVG Export Plug-In . SVG Version: 6.00 Build 0)  -->
<!DOCTYPE svg PUBLIC "-//W3C//DTD SVG 1.1//EN" "http://www.w3.org/Graphics/SVG/1.1/DTD/svg11.dtd" [
	<!ENTITY ns_extend "http://ns.adobe.com/Extensibility/1.0/">
	<!ENTITY ns_ai "http://ns.adobe.com/AdobeIllustrator/10.0/">
	<!ENTITY ns_graphs "http://ns.adobe.com/Graphs/1.0/">
	<!ENTITY ns_vars "http://ns.adobe.com/Variables/1.0/">
	<!ENTITY ns_imrep "http://ns.adobe.com/ImageReplacement/1.0/">
	<!ENTITY ns_sfw "http://ns.adobe.com/SaveForWeb/1.0/">
	<!ENTITY ns_custom "http://ns.adobe.com/GenericCustomNamespace/1.0/">
	<!ENTITY ns_adobe_xpath "http://ns.adobe.com/XPath/1.0/">
]>
<svg version="1.1" id="Livello_8" xmlns:x="&ns_extend;" xmlns:i="&ns_ai;" xmlns:graph="&ns_graphs;"
	 xmlns="http://www.w3.org/2000/svg" xmlns:xlink="http://www.w3.org/1999/xlink" x="0px" y="0px" viewBox="0 0 644.8 200"
	 style="enable-background:new 0 0 644.8 200;" xml:space="preserve">
<style type="text/css">
	.st0{fill:#01B46E;}
	.st1{fill:#FFFFFF;}
</style>
<metadata>
	<sfw  xmlns="&ns_sfw;">
		<slices></slices>
		<sliceSourceBounds  bottomLeftOrigin="true" height="200" width="644.8" x="0" y="0"></sliceSourceBounds>
	</sfw>
</metadata>
<g>
	<g>
		<rect class="st0" width="200" height="200"/>
		<path class="st1" d="M45.2,76.7h-2v19.5h2c6.6,0,14.1-1.2,14.1-9.8C59.4,77.9,51.9,76.7,45.2,76.7z M62.7,139.4l-19.2-30.1h-0.2
			v30.1H22.9V61.1h30.4c15.5,0,27.2,7.4,27.2,24.1c0,10.8-6,20.2-17.1,22.1L88,139.4H62.7z M176.7,139.4h-18.9V86.1h18.9V139.4z
			 M167.2,76.2c-5.8,0-10.6-4.8-10.6-10.6S161.4,55,167.2,55s10.6,4.8,10.6,10.6C177.8,71.5,173,76.2,167.2,76.2z M146.9,139.4H128
			v-5.9h-0.2c-3.3,5.3-9.9,7.7-16.1,7.7c-15.8,0-26.9-13.2-26.9-28.5s10.9-28.4,26.7-28.4c6.1,0,12.6,2.3,16.5,7v-5.2h18.9V139.4z
			 M116.4,100.8c-7.7,0-12.2,5.5-12.2,12c0,6.8,4.5,11.9,12.2,11.9s12.2-5.2,12.2-11.9C128.6,106.3,124.1,100.8,116.4,100.8z"/>
	</g>
	<g>
		<path class="st0" d="M254.6,72.8v14.6h-28.4V72.8h6.8V31.4h-6.8V16.9h28.4c8.2,0,14.6,0.1,19.9,3.9c6,4.2,9.7,11.5,9.7,19.6
			c0,9.7-5,17.9-13.2,21.9l8.7,10.7h6.7v14.6h-15.3l-20.7-25.2v10.7L254.6,72.8L254.6,72.8z M253.8,49.4c8.6,0,12.8-2.4,12.8-8.4
			c0-6.3-3.6-8.3-12-8.3h-4.2v16.6L253.8,49.4L253.8,49.4z"/>
		<path class="st0" d="M314.9,88.2c-15.3,0-26.7-11.7-26.7-28.1S299.6,32,314.9,32c7.4,0,12.6,2.3,16.6,7.6V33h20.8v14.2h-6V73h6
			v14.4h-21.6v-6C327.1,86,321.9,88.2,314.9,88.2 M317.7,73.7c7.6,0,13.1-5.7,13.1-13.6s-5.6-13.6-13.1-13.6
			c-7.6,0-13.1,5.7-13.1,13.6C304.7,68.1,310.2,73.7,317.7,73.7"/>
		<path class="st0" d="M381,88.2c-15.3,0-26.7-11.7-26.7-28.1S365.7,32,381,32c7.4,0,12.6,2.3,16.6,7.6v-9h-6V16.9h20.8V73h6v14.4
			h-21.6v-6C393.2,86,388,88.2,381,88.2 M383.9,73.7c7.6,0,13.1-5.7,13.1-13.6s-5.6-13.6-13.1-13.6c-7.6,0-13.1,5.7-13.1,13.6
			C370.8,68.1,376.3,73.7,383.9,73.7"/>
		<path class="st0" d="M429.5,47.2h-6.7V33h22v40h6.8v14.4h-29.1V73h6.8V47.2z M429.5,16.9h15.4V30h-15.4V16.9z"/>
		<path class="st0" d="M461.3,39.8c5.4-5.3,12.8-8.4,20.7-8.4c7.9,0,15.2,3,20.6,8.4c5.4,5.3,8.4,12.3,8.4,20.4
			c0,7.9-2.8,15-8.4,20.4c-5.4,5.3-12.7,8.3-20.6,8.3s-15.3-2.8-20.7-8.3c-5.4-5.3-8.4-12.4-8.4-20.4
			C452.9,52.2,455.8,45.2,461.3,39.8 M482,73.6c6.9,0,12.6-6,12.6-13.5c0-7.6-5.6-13.5-12.6-13.5c-6.9,0-12.7,5.9-12.7,13.5
			C469.3,67.6,475,73.6,482,73.6"/>
		<path class="st0" d="M549.5,66v0.7c0,4.4,2.7,6.8,7.7,6.8c4.6,0,7.6-2.9,7.6-7.4c0-5.2-4-7.8-11.9-7.8c-1.1,0-2.3,0-3.5,0.1V45.2
			c0.6,0,1.2,0.1,1.8,0.1c7.4,0,10.9-2.8,10.9-8.5c0-4.4-2.2-6.9-5.7-6.9c-3.4,0-5.3,2-5.3,5.9v1.1h-16.9v-0.2
			c0-12.9,8.7-21.2,22.5-21.2c12.9,0,21.2,8,21.2,19.5c0,6.6-3.3,11.9-10,14.3c9.1,2.6,13.8,8.4,13.8,16.4c0,13.7-10,23.2-24.6,23.2
			c-15.9,0-24.8-8.3-25-22.6L549.5,66L549.5,66z"/>
	</g>
	<g>
		<path class="st0" d="M258,183.4c-10.4,0-19.4-3.8-26.3-11.2c-6.7-7.1-10.1-15.9-10.1-26.3c0-9.9,3.8-18.8,10.8-25.7
			c7-6.8,15.9-10.4,25.8-10.4c7.4,0,14,2,20.2,6.3v-5h12.9v23.5h-18.2c-3.8-4.9-8.6-7.4-14.5-7.4c-10.7,0-19.2,8.3-19.2,19.2
			c0,10.7,8.8,19.5,18.6,19.5c6.7,0,12.6-3.5,16.4-10.1h19C288.6,173.7,275.8,183.4,258,183.4z"/>
		<path class="st0" d="M302.2,125.6h-6.7v-14.4h22.2v56.5h6.9v14.5h-29.2v-14.5h6.9L302.2,125.6L302.2,125.6z"/>
		<path class="st0" d="M353,182.9c-15.4,0-26.8-11.8-26.8-28.2c0-16.5,11.5-28.3,26.8-28.3c7.4,0,12.7,2.3,16.8,7.7v-6.8h21v14.4h-6
			v25.9h6v14.5H369V176C365.2,180.7,360.1,182.9,353,182.9z M355.9,168.4c7.6,0,13.2-5.7,13.2-13.7s-5.6-13.7-13.2-13.7
			s-13.2,5.7-13.2,13.7C342.7,162.7,348.3,168.4,355.9,168.4z"/>
		<path class="st0" d="M409.6,165.3c0.2,3.9,2.3,6,6.3,6c3.8,0,5.8-1.7,5.8-4.8c0-4.4-4.6-4.2-11.9-6.3c-10.2-2.9-15.1-8.2-15.1-17
			c0-10.3,7.5-17.3,19-17.3c4.4,0,7.9,1,11.3,3.5v-2.3h11.4v15.6h-14.5c-0.6-3.6-2-5-5.1-5c-3.3,0-5.2,1.9-5.2,4.1
			c0,4,3.3,4.9,9.4,6.4c12.1,3.1,18,6.9,18,17.4c0,10.7-8.2,18-20.1,18c-4.7,0-8.6-1.3-12.1-4.2v2.8h-12v-16.9H409.6z"/>
		<path class="st0" d="M457.1,165.3c0.2,3.9,2.3,6,6.3,6c3.8,0,5.8-1.7,5.8-4.8c0-4.4-4.6-4.2-11.9-6.3c-10.2-2.9-15.1-8.2-15.1-17
			c0-10.3,7.5-17.3,19-17.3c4.4,0,7.9,1,11.3,3.5v-2.3h11.4v15.6h-14.5c-0.6-3.6-2-5-5.1-5c-3.3,0-5.2,1.9-5.2,4.1
			c0,4,3.3,4.9,9.4,6.4c12.1,3.1,18,6.9,18,17.4c0,10.7-8.2,18-20.1,18c-4.7,0-8.6-1.3-12.1-4.2v2.8h-12v-16.9H457.1z"/>
		<path class="st0" d="M496.6,141.7h-6.7v-14.4H512v40.3h6.9v14.5h-29.2v-14.5h6.9V141.7z M496.6,111.2H512v13.2h-15.5v-13.2H496.6z
			"/>
		<path class="st0" d="M549.1,183.4c-8.3,0-15.3-2.7-20.9-8.3c-5.6-5.5-8.4-12.5-8.4-20.5s2.7-14.7,8.4-20.5
			c5.3-5.5,12-8.3,19.1-8.3c6,0,11,2.1,15.1,6.3v-4.9h12.4v20.2H560c-2.2-4.2-5.8-6.4-10.6-6.4c-7.4,0-13.1,5.9-13.1,13.6
			c0,7.7,5.5,13.6,12.8,13.6c4.5,0,8.3-2.2,10.3-6.1h17.9C573.6,175.6,563.2,183.4,549.1,183.4z"/>
		<path class="st0" d="M607,182.9c-15.4,0-26.8-11.8-26.8-28.2c0-16.5,11.5-28.3,26.8-28.3c7.4,0,12.7,2.3,16.8,7.7v-6.8h21v14.4h-6
			v25.9h6v14.5H623V176C619.2,180.7,614,182.9,607,182.9z M609.8,168.4c7.6,0,13.2-5.7,13.2-13.7s-5.6-13.7-13.2-13.7
			s-13.2,5.7-13.2,13.7C596.7,162.7,602.3,168.4,609.8,168.4z"/>
	</g>
</g>
</svg>
