<?xml version="1.0" encoding="utf-8"?>
<!-- Generator: Adobe Illustrator 23.0.1, SVG Export Plug-In . SVG Version: 6.00 Build 0)  -->
<svg version="1.1" id="Livello_10" xmlns="http://www.w3.org/2000/svg" xmlns:xlink="http://www.w3.org/1999/xlink" x="0px" y="0px"
	 width="1842.784px" height="500px" viewBox="0 0 1842.784 500" enable-background="new 0 0 1842.784 500" xml:space="preserve">
<g>
	<polygon fill="#12A0D7" points="0,0 0,500 500.022,500 499.978,0 	"/>
	<path fill="#FFFFFF" d="M418.04,137.625c-14.552,0-26.505,11.953-26.505,26.483c0,14.552,11.953,26.505,26.505,26.505
		s26.483-11.953,26.483-26.505C444.523,149.578,432.593,137.625,418.04,137.625"/>
	<rect x="394.41" y="215.285" fill="#FFFFFF" width="47.256" height="133.215"/>
	<path fill="#FFFFFF" d="M158.585,268.258c27.794-4.932,42.835-28.305,42.835-55.321c0-41.813-29.327-60.253-68.029-60.253H57.296
		v195.801h50.9V273.19h0.511l48.056,75.295h63.364L158.585,268.258z M113.128,240.464h-4.932V191.63h4.932
		c16.618,0,35.325,3.133,35.325,24.417C148.454,237.354,129.747,240.464,113.128,240.464"/>
	<path fill="#FFFFFF" d="M319.947,215.281v12.975c-9.887-11.686-25.972-17.396-41.302-17.396c-39.48,0-66.741,32.726-66.741,70.896
		s27.794,71.14,67.252,71.14c15.596,0,31.948-5.954,40.258-19.196h0.533v14.797h47.256V215.281H319.947z M291.109,311.882
		c-19.218,0-30.371-12.997-30.371-29.86c0-16.374,11.153-30.127,30.371-30.127c19.218,0,30.371,13.753,30.371,30.127
		C321.48,298.885,310.327,311.882,291.109,311.882"/>
	<path fill="#12A0D7" d="M636.661,182.215v36.636H565.41v-36.636h17.196V78.061H565.41V41.669h71.251
		c20.44,0,36.659,0.244,50.1,9.709c15.197,10.464,24.417,28.905,24.417,49.078c0,24.439-12.442,44.879-33.148,54.854l21.951,26.905
		h16.685v36.636h-38.369l-52.1-63.541v26.905H636.661z M634.683,123.406c21.662,0,32.148-5.976,32.148-21.195
		c0-15.952-9.22-20.684-30.171-20.684h-10.464v41.879C626.196,123.406,634.683,123.406,634.683,123.406z"/>
	<path fill="#12A0D7" d="M788.229,220.827c-38.369,0-67.029-29.393-67.029-70.518s28.66-70.518,67.029-70.518
		c18.44,0,31.638,5.732,41.857,19.196V82.035h52.344v35.881h-14.974v64.786h14.974v36.147h-54.321V203.63
		C818.889,215.339,805.914,220.827,788.229,220.827 M795.45,184.457c18.951,0,32.904-14.219,32.904-34.148
		s-13.952-34.126-32.904-34.126c-18.929,0-32.882,14.197-32.882,34.126S776.521,184.457,795.45,184.457"/>
	<path fill="#12A0D7" d="M954.401,220.827c-38.369,0-67.029-29.393-67.029-70.518s28.66-70.518,67.029-70.518
		c18.44,0,31.638,5.732,41.857,19.196V76.303h-14.952V41.667h52.344v141.035h14.952v36.147h-54.321V203.63
		C985.061,215.339,972.086,220.827,954.401,220.827 M961.622,184.457c18.951,0,32.904-14.219,32.904-34.148
		s-13.952-34.126-32.904-34.126c-18.929,0-32.882,14.197-32.882,34.126S942.693,184.457,961.622,184.457"/>
	<path fill="#12A0D7" d="M1076.458,117.929h-16.685V82.026h55.321v100.667h17.196v36.147h-73.028v-36.147h17.196L1076.458,117.929
		L1076.458,117.929z M1076.458,41.657h38.636v32.881h-38.636V41.657z"/>
	<path fill="#12A0D7" d="M1156.13,99.224c13.686-13.441,32.148-20.929,52.077-20.929c19.929,0,38.125,7.487,51.833,20.929
		c13.686,13.464,20.929,30.904,20.929,51.078c0,19.951-7.243,37.636-20.929,51.077c-13.708,13.464-31.904,20.706-51.833,20.706
		s-38.392-7.243-52.077-20.706c-13.708-13.441-20.929-31.126-20.929-51.077C1135.201,130.373,1142.421,112.688,1156.13,99.224
		 M1208.207,184.206c17.44,0,31.637-14.952,31.637-33.903c0-19.174-13.952-33.882-31.637-33.882
		c-17.441,0-31.904,14.708-31.904,33.882C1176.303,169.254,1190.766,184.206,1208.207,184.206"/>
	<polygon fill="#12A0D7" points="1422.868,180.28 1422.868,159.573 1461.77,159.573 1461.77,216.694 1332.31,216.694 
		1332.31,180.28 1349.529,180.28 1349.529,75.77 1332.31,75.77 1332.31,39.356 1409.16,39.356 1409.16,75.77 1393.186,75.77 
		1393.186,180.28 	"/>
	<path fill="#12A0D7" d="M1492.766,115.685h-16.707V79.76h55.388v100.777h17.196v36.17h-73.073v-36.17h17.196L1492.766,115.685
		L1492.766,115.685z M1492.766,39.347h38.658v32.926h-38.658V39.347z"/>
	<polygon fill="#12A0D7" points="1628.989,115.683 1628.989,79.758 1691.597,79.758 1691.597,115.683 1679.622,115.683 
		1641.208,216.705 1601.551,216.705 1563.648,115.683 1551.673,115.683 1551.673,79.758 1615.036,79.758 1615.036,115.683 
		1604.305,115.683 1621.768,169.294 1639.72,115.683 	"/>
	<path fill="#12A0D7" d="M1769.955,219.927c-20.951,0-37.903-6.465-52.144-20.684c-13.952-13.73-20.951-31.193-20.951-51.144
		s7.243-37.658,20.951-51.122c13.73-13.464,32.193-20.973,52.144-20.973c25.194,0,47.634,11.975,61.098,31.926
		c7.998,11.753,11.731,24.972,11.731,40.169c0,4.999-0.489,10.242-1.244,15.486h-101.022c3.244,11.953,14.73,20.173,29.438,20.173
		c7.732,0,14.219-2.488,20.462-7.731h47.123C1825.321,203.974,1800.126,219.927,1769.955,219.927 M1800.637,134.39
		c-3.999-14.974-14.974-23.195-30.682-23.195c-14.464,0-25.928,8.487-30.438,23.195H1800.637z"/>
	<polygon fill="#12A0D7" points="753.01,310.489 735.814,310.489 735.814,452.169 695.779,452.169 626.816,354.901 626.816,415.443 
		644.034,415.443 644.034,452.169 565.563,452.169 565.563,415.443 582.781,415.443 582.781,310.489 565.563,310.489 
		565.563,273.763 621.328,273.763 691.757,373.697 691.757,310.489 674.539,310.489 674.539,273.763 753.01,273.763 	"/>
	<path fill="#12A0D7" d="M910.842,452.159h-54.055v-11.464c-8.887,10.509-21.195,15.752-36.992,15.752
		c-9.02,0-17.685-1.889-25.994-5.621c-8.287-3.732-15.574-8.931-21.84-15.552c-6.265-6.643-11.153-14.263-14.641-22.884
		c-3.51-8.62-5.243-17.618-5.243-26.972c0-12.864,3.133-24.861,9.398-35.992c6.265-11.153,14.73-19.973,25.439-26.483
		c10.687-6.51,22.195-9.776,34.481-9.776c14.952,0,26.75,5.776,35.392,17.329v-13.064h54.055v36.503h-14.286v61.497h14.286V452.159z
		 M857.143,384.441c0-5.688-1.422-11.042-4.266-16.041c-2.844-5.021-6.732-8.954-11.664-11.842
		c-4.91-2.888-10.309-4.333-16.174-4.333c-8.931,0-16.618,3.222-23.061,9.642c-6.421,6.421-9.642,14.197-9.642,23.306
		c0,9.02,3.155,16.663,9.465,22.884s13.975,9.331,22.995,9.331c5.954,0,11.353-1.466,16.241-4.399
		c4.888-2.932,8.798-6.932,11.708-12.02C855.676,395.883,857.143,390.373,857.143,384.441"/>
	<path fill="#12A0D7" d="M1078.978,385.419c0,12.197-2.999,23.661-8.976,34.348c-5.976,10.709-14.041,19.24-24.217,25.639
		c-10.175,6.376-20.995,9.576-32.459,9.576c-6.421,0-12.175-0.822-17.263-2.444s-9.176-3.421-12.264-5.376
		c-3.11-1.955-6.598-4.51-10.509-7.687v22.462h14.286v36.481h-68.229v-36.481h14.175v-108h-14.175v-36.503h53.944v15.752
		c8.865-12.286,21.351-18.418,37.48-18.418c12.109,0,23.417,3.155,33.904,9.509c10.509,6.354,18.84,14.974,25.039,25.883
		C1075.889,361.046,1078.978,372.799,1078.978,385.419 M1038.587,384.685c0-5.776-1.511-11.175-4.51-16.241
		c-3.022-5.043-7.065-8.998-12.153-11.886c-5.088-2.888-10.642-4.333-16.663-4.333c-5.932,0-11.442,1.444-16.53,4.333
		c-5.088,2.888-9.131,6.865-12.131,11.953c-3.022,5.088-4.532,10.553-4.532,16.419s1.511,11.309,4.532,16.352
		c2.999,5.043,7.065,8.998,12.197,11.842c5.132,2.844,10.62,4.265,16.463,4.265c9.109,0,16.952-3.244,23.506-9.709
		C1035.299,401.215,1038.587,393.55,1038.587,384.685"/>
	<path fill="#12A0D7" d="M1231.393,384.441c0,12.93-3.221,24.928-9.642,35.992c-6.443,11.064-15.13,19.84-26.128,26.305
		c-10.975,6.465-22.973,9.709-35.992,9.709c-13.019,0-25.039-3.222-36.058-9.642c-11.02-6.421-19.729-15.152-26.128-26.172
		c-6.376-11.042-9.576-23.017-9.576-35.948c0-12.864,3.199-24.772,9.576-35.747c6.399-10.997,15.13-19.707,26.194-26.127
		c11.064-6.421,23.062-9.642,35.992-9.642c12.93,0,24.928,3.199,35.992,9.576c11.064,6.398,19.796,15.064,26.172,25.994
		C1228.193,359.691,1231.393,371.577,1231.393,384.441 M1191.113,384.685c0-5.865-1.4-11.286-4.199-16.285
		c-2.822-5.021-6.621-8.954-11.42-11.842c-4.799-2.888-10.087-4.333-15.863-4.333c-8.709,0-16.13,3.2-22.284,9.576
		c-6.132,6.399-9.198,14.019-9.198,22.884c0,5.777,1.4,11.198,4.199,16.241c2.822,5.043,6.665,9.042,11.531,12.02
		c4.888,2.955,10.131,4.443,15.752,4.443s10.864-1.488,15.73-4.443c4.888-2.977,8.731-6.976,11.553-12.02
		C1189.713,395.883,1191.113,390.462,1191.113,384.685"/>
	<polygon fill="#12A0D7" points="1300.875,452.17 1232.668,452.17 1232.668,415.445 1246.82,415.445 1246.82,310.491 
		1232.668,310.491 1232.668,273.766 1286.589,273.766 1286.589,415.445 1300.875,415.445 	"/>
	<path fill="#12A0D7" d="M1375.014,452.166h-67.985v-36.725h14.286v-61.498h-14.286V317.44h53.944v98h14.041V452.166z
		 M1360.973,310.486h-39.658v-36.725h39.658V310.486z"/>
</g>
</svg>
