<?xml version="1.0" encoding="utf-8"?>
<!-- Generator: Adobe Illustrator 23.0.1, SVG Export Plug-In . SVG Version: 6.00 Build 0)  -->
<!DOCTYPE svg PUBLIC "-//W3C//DTD SVG 1.1//EN" "http://www.w3.org/Graphics/SVG/1.1/DTD/svg11.dtd" [
	<!ENTITY ns_extend "http://ns.adobe.com/Extensibility/1.0/">
	<!ENTITY ns_ai "http://ns.adobe.com/AdobeIllustrator/10.0/">
	<!ENTITY ns_graphs "http://ns.adobe.com/Graphs/1.0/">
	<!ENTITY ns_vars "http://ns.adobe.com/Variables/1.0/">
	<!ENTITY ns_imrep "http://ns.adobe.com/ImageReplacement/1.0/">
	<!ENTITY ns_sfw "http://ns.adobe.com/SaveForWeb/1.0/">
	<!ENTITY ns_custom "http://ns.adobe.com/GenericCustomNamespace/1.0/">
	<!ENTITY ns_adobe_xpath "http://ns.adobe.com/XPath/1.0/">
]>
<svg version="1.1" id="Layer_1" xmlns:x="&ns_extend;" xmlns:i="&ns_ai;" xmlns:graph="&ns_graphs;"
	 xmlns="http://www.w3.org/2000/svg" xmlns:xlink="http://www.w3.org/1999/xlink" x="0px" y="0px" viewBox="0 0 3048.9 1080"
	 style="enable-background:new 0 0 3048.9 1080;" xml:space="preserve">
<style type="text/css">
	.st0{fill:#4144C5;}
	.st1{fill:#FFFFFF;}
</style>
<metadata>
	<sfw  xmlns="&ns_sfw;">
		<slices></slices>
		<sliceSourceBounds  bottomLeftOrigin="true" height="1080" width="3048.9" x="0" y="0"></sliceSourceBounds>
	</sfw>
</metadata>
<g>
	<g>
		<rect class="st0" width="1080" height="1080"/>
		<path class="st1" d="M903,411.7c-31.4,0-57.2-25.8-57.2-57.2s25.8-57.2,57.2-57.2s57.2,25.8,57.2,57.2S934.3,411.7,903,411.7
			 M954,752.7H851.9V465H954V752.7z M244.3,413.9c35.9,0,76.3,6.7,76.3,52.7s-40.4,52.7-76.3,52.7h-10.7V413.9H244.3 M475.4,752.7
			L342.5,579.4c60-10.7,92.5-61.2,92.5-119.5c0-90.3-63.4-130.1-146.9-130.1H123.7v422.9h109.9V590.1h1.1l103.8,162.7L475.4,752.7
			L475.4,752.7z M793.1,752.7h-102v-32h-1.2c-18,28.6-53.3,41.5-86.9,41.5c-85.2,0-145.3-71.2-145.3-153.7s58.9-153.1,144.1-153.1
			c33.1,0,67.9,12.3,89.2,37.6v-28h102.1L793.1,752.7L793.1,752.7z M628.8,544.1c-41.5,0-65.6,29.7-65.6,65.1
			c0,36.5,24.1,64.5,65.6,64.5s65.6-28.1,65.6-64.5C694.4,573.8,670.3,544.1,628.8,544.1"/>
	</g>
	<g>
		<path class="st0" d="M1349.2,396v79.1h-153.8V396h37.1V171.2h-37.1V92.7h153.8c44.1,0,79.1,0.5,108.1,21
			c32.8,22.6,52.7,62.4,52.7,105.9c0,52.7-26.9,96.8-71.5,118.3l47.4,58.1h36v79.1H1439l-112.4-137.1V396H1349.2z M1344.9,269.1
			c46.8,0,69.4-12.9,69.4-45.7c0-34.4-19.9-44.6-65.1-44.6h-22.6v90.4H1344.9z"/>
		<path class="st0" d="M1676.3,479.4c-82.8,0-144.7-63.5-144.7-152.2S1593.4,175,1676.3,175c39.8,0,68.3,12.4,90.3,41.4v-36.6h112.9
			v77.5h-32.3V397h32.3v78h-117.2v-32.8C1742.4,467.5,1714.4,479.4,1676.3,479.4 M1691.8,400.8c40.9,0,71-30.7,71-73.7
			c0-43-30.1-73.7-71-73.7c-40.8,0-71,30.6-71,73.7C1620.9,370.2,1651,400.8,1691.8,400.8"/>
		<path class="st0" d="M2034.9,479.4c-82.8,0-144.7-63.5-144.7-152.2S1952.1,175,2034.9,175c39.8,0,68.3,12.4,90.3,41.4v-48.9h-32.3
			V92.7h112.9V397h32.3v78h-117.2v-32.8C2101,467.5,2073,479.4,2034.9,479.4 M2050.5,400.8c40.9,0,71-30.7,71-73.7
			c0-43-30.1-73.7-71-73.7c-40.8,0-71,30.6-71,73.7C1979.5,370.2,2009.6,400.8,2050.5,400.8"/>
		<path class="st0" d="M2298.3,257.3h-36v-77.5h119.4V397h37.1v78h-157.5v-78h37.1V257.3z M2298.3,92.7h83.4v71h-83.4V92.7z"/>
		<path class="st0" d="M2470.2,216.9c29.5-29,69.4-45.2,112.4-45.2c43,0,82.3,16.2,111.9,45.2c29.5,29.1,45.2,66.7,45.2,110.2
			c0,43-15.6,81.2-45.2,110.2c-29.6,29-68.8,44.6-111.9,44.6c-43,0-82.8-15.6-112.4-44.6c-29.6-29-45.2-67.2-45.2-110.2
			C2425,284.1,2440.6,246,2470.2,216.9 M2582.6,400.3c37.6,0,68.3-32.3,68.3-73.2c0-41.4-30.1-73.2-68.3-73.2
			c-37.6,0-68.8,31.8-68.8,73.2C2513.8,368,2544.9,400.3,2582.6,400.3"/>
		<polygon class="st0" points="3048.9,397.6 3048.9,475.1 2879.5,475.1 2879.5,397.6 2922,397.6 2922,163.7 2854.7,163.7 
			2854.7,92.7 3011.3,92.7 3011.3,397.6 		"/>
		<path class="st0" d="M1465.2,863.6c0,17-3,32.8-9,47.6c-6,14.7-14.6,27.7-26,39c-11.4,11.3-24.4,19.9-39.2,25.9
			c-14.8,6-30.7,9-47.7,9c-26.9,0-48.5-8.2-65-24.7v17.7h-73.3V856h85.5c0.2,16.3,3.9,28.5,11.2,36.6c7.3,8.1,17.2,12.2,29.9,12.2
			c11.6,0,21-3.3,28.2-9.9c7.2-6.6,10.8-15.3,10.8-26.3c0-10.1-3.5-18-10.5-23.7c-7-5.7-16.1-10.5-27.3-14.4
			c-11.2-3.9-25.6-9.2-43.2-15.9c-17.6-6.6-32.5-14.9-44.8-24.8c-28.1-22.7-42.1-50.3-42.1-82.9c0-20.6,5.2-40,15.6-58.2
			c10.4-18.2,24.7-32.7,42.8-43.4c18.1-10.8,38.1-16.1,59.9-16.1c14.6,0,26.3,2.1,35.1,6.4c8.9,4.2,17.6,9.9,26.3,17V598h70.7v110.2
			h-83.7c-0.7-12.3-4.4-21.8-11.1-28.5c-6.7-6.7-15-10-25.1-10c-10.4,0-18.9,3-25.6,9c-6.7,6-10,13.8-10,23.5c0,9.9,3,17.5,9.1,23
			c6,5.4,14.9,10.2,26.6,14.3c11.7,4.1,24.7,8.5,39.1,13.2c14.4,4.8,27.4,10.6,39,17.5c8.7,4.8,16.5,10.7,23.4,17.5
			c6.9,6.8,12.6,14,16.9,21.6c4.3,7.5,7.7,15.8,10,24.8C1464.1,843.2,1465.2,853,1465.2,863.6"/>
		<path class="st0" d="M1732,834.2c0-12.3-3.2-23.8-9.6-34.6s-15-19.2-25.8-25.3c-10.8-6.2-22.7-9.2-35.5-9.2
			c-12.6,0-24.4,3.1-35.2,9.2c-10.8,6.1-19.5,14.6-25.8,25.5c-6.4,10.8-9.6,22.5-9.6,35c0,12.5,3.2,24.1,9.6,34.8
			c6.4,10.8,15.1,19.2,26,25.2c10.9,6.1,22.6,9.1,35.1,9.1c19.4,0,36.1-6.9,50-20.7C1725,869.4,1732,853.1,1732,834.2 M1818,835.8
			c0,26-6.4,50.4-19.1,73.2c-12.7,22.8-29.9,41-51.6,54.6c-21.6,13.6-44.7,20.4-69.1,20.4c-13.7,0-25.9-1.7-36.8-5.2
			c-10.8-3.5-19.5-7.3-26.1-11.4c-6.6-4.2-14-9.6-22.3-16.4v47.8h30.4v77.7H1478v-77.7h30.1v-230H1478V691h114.9v33.5
			c18.9-26.2,45.5-39.3,79.8-39.3c25.8,0,49.9,6.8,72.3,20.3c22.3,13.5,40.1,31.9,53.3,55.1C1811.4,783.9,1818,808.9,1818,835.8"/>
		<path class="st0" d="M2058.8,834.2c0-12.5-3-24-9-34.7c-6-10.7-14.1-19.1-24.3-25.2c-10.2-6.1-21.5-9.2-33.8-9.2
			c-18.6,0-34.4,6.8-47.4,20.4c-13.1,13.6-19.6,29.9-19.6,48.7c0,12.3,3,23.8,9,34.6s14.2,19.3,24.6,25.6
			c10.4,6.3,21.6,9.5,33.5,9.5c12,0,23.1-3.2,33.5-9.5c10.4-6.3,18.6-14.9,24.6-25.6C2055.8,858,2058.8,846.5,2058.8,834.2
			 M2144.5,833.7c0,27.6-6.8,53.1-20.5,76.7c-13.7,23.6-32.2,42.2-55.6,56s-49,20.7-76.7,20.7s-53.3-6.9-76.8-20.5
			c-23.5-13.7-42-32.3-55.6-55.8c-13.6-23.5-20.4-49-20.4-76.5c0-27.4,6.8-52.8,20.4-76.2c13.6-23.4,32.2-41.9,55.8-55.6
			c23.6-13.7,49.1-20.5,76.7-20.5c27.6,0,53.1,6.8,76.7,20.4c23.5,13.6,42.1,32.1,55.8,55.4C2137.7,781,2144.5,806.3,2144.5,833.7"
			/>
		<path class="st0" d="M2360.1,773.7c-15.9,0.9-29.4,4.2-40.4,10c-11,5.8-19.4,14-25.1,24.6c-5.7,10.6-8.6,23.3-8.6,38.2v53.3h29.9
			v78.2h-144.8v-78.2h30.4v-131h-30.4V691h107.6v43.2c11.1-16.8,22.8-28.6,35.2-35.2c12.4-6.6,27.7-10.7,46.1-12.1V773.7z"/>
		<polygon class="st0" points="2548.5,978 2422.6,978 2422.6,768.7 2383.4,768.7 2383.4,691 2422.6,691 2422.6,597.9 2507.4,597.9 
			2507.4,691 2546.9,691 2546.9,768.7 2507.4,768.7 2507.4,899.7 2548.5,899.7 		"/>
	</g>
</g>
</svg>
