<?xml version="1.0" encoding="utf-8"?>
<!-- Generator: Adobe Illustrator 23.0.1, SVG Export Plug-In . SVG Version: 6.00 Build 0)  -->
<!DOCTYPE svg PUBLIC "-//W3C//DTD SVG 1.1//EN" "http://www.w3.org/Graphics/SVG/1.1/DTD/svg11.dtd" [
	<!ENTITY ns_extend "http://ns.adobe.com/Extensibility/1.0/">
	<!ENTITY ns_ai "http://ns.adobe.com/AdobeIllustrator/10.0/">
	<!ENTITY ns_graphs "http://ns.adobe.com/Graphs/1.0/">
	<!ENTITY ns_vars "http://ns.adobe.com/Variables/1.0/">
	<!ENTITY ns_imrep "http://ns.adobe.com/ImageReplacement/1.0/">
	<!ENTITY ns_sfw "http://ns.adobe.com/SaveForWeb/1.0/">
	<!ENTITY ns_custom "http://ns.adobe.com/GenericCustomNamespace/1.0/">
	<!ENTITY ns_adobe_xpath "http://ns.adobe.com/XPath/1.0/">
]>
<svg version="1.1" id="Livello_12" xmlns:x="&ns_extend;" xmlns:i="&ns_ai;" xmlns:graph="&ns_graphs;"
	 xmlns="http://www.w3.org/2000/svg" xmlns:xlink="http://www.w3.org/1999/xlink" x="0px" y="0px" viewBox="0 0 889.7 200"
	 enable-background="new 0 0 889.7 200" xml:space="preserve">
<metadata>
	<sfw  xmlns="&ns_sfw;">
		<slices></slices>
		<sliceSourceBounds  bottomLeftOrigin="true" height="200" width="889.7" x="0" y="0"></sliceSourceBounds>
	</sfw>
</metadata>
<g>
	<g>
		<rect fill="#13607E" width="200" height="200"/>
		<path fill="#FFFFFF" d="M45.2,76.7h-2v19.5h2c6.6,0,14.1-1.2,14.1-9.8C59.4,77.9,51.9,76.7,45.2,76.7z M62.7,139.4l-19.2-30.1
			h-0.2v30.1H22.9V61.1h30.4c15.5,0,27.2,7.4,27.2,24.1c0,10.8-6,20.2-17.1,22.1L88,139.4H62.7z M176.7,139.4h-18.9V86.1h18.9V139.4
			z M167.2,76.2c-5.8,0-10.6-4.8-10.6-10.6S161.4,55,167.2,55s10.6,4.8,10.6,10.6C177.8,71.5,173,76.2,167.2,76.2z M146.9,139.4H128
			v-5.9h-0.2c-3.3,5.3-9.9,7.7-16.1,7.7c-15.8,0-26.9-13.2-26.9-28.5s10.9-28.4,26.7-28.4c6.1,0,12.6,2.3,16.5,7v-5.2h18.9V139.4z
			 M116.4,100.8c-7.7,0-12.2,5.5-12.2,12c0,6.8,4.5,11.9,12.2,11.9s12.2-5.2,12.2-11.9C128.6,106.3,124.1,100.8,116.4,100.8z"/>
	</g>
	<g>
		<path fill="#13607E" d="M249.8,73v14.7h-28.5V73h6.9V31.3h-6.9V16.8h28.5c8.2,0,14.7,0.1,20,3.9c6.1,4.2,9.8,11.6,9.8,19.6
			c0,9.8-5,17.9-13.3,21.9l8.8,10.8h6.7v14.7h-15.3l-20.8-25.4V73H249.8z M249,49.5c8.7,0,12.9-2.4,12.9-8.5c0-6.4-3.7-8.3-12.1-8.3
			h-4.2v16.7L249,49.5L249,49.5z"/>
		<path fill="#13607E" d="M310.4,88.4c-15.3,0-26.8-11.8-26.8-28.2S295.1,32,310.4,32c7.4,0,12.7,2.3,16.7,7.7v-6.8H348v14.4h-6
			v25.9h6v14.5h-21.7v-6.1C322.7,86.2,317.5,88.4,310.4,88.4z M313.3,73.9c7.6,0,13.2-5.7,13.2-13.7s-5.6-13.7-13.2-13.7
			s-13.2,5.7-13.2,13.7S305.7,73.9,313.3,73.9z"/>
		<path fill="#13607E" d="M376.9,88.4c-15.3,0-26.8-11.8-26.8-28.2S361.5,32,376.9,32c7.4,0,12.7,2.3,16.7,7.7v-9.1h-6V16.8h20.9
			v56.4h6v14.5h-21.7v-6.1C389.1,86.2,383.9,88.4,376.9,88.4z M379.8,73.9c7.6,0,13.2-5.7,13.2-13.7s-5.6-13.7-13.2-13.7
			s-13.2,5.7-13.2,13.7S372.2,73.9,379.8,73.9z"/>
		<path fill="#13607E" d="M425.7,47.3H419V32.9h22.1v40.3h6.9v14.5h-29.2V73.2h6.9L425.7,47.3L425.7,47.3z M425.7,16.8h15.4V30
			h-15.4V16.8z"/>
		<path fill="#13607E" d="M457.6,39.8c5.5-5.4,12.9-8.4,20.8-8.4c8,0,15.2,3,20.7,8.4s8.4,12.4,8.4,20.4s-2.9,15.1-8.4,20.4
			c-5.5,5.4-12.8,8.3-20.7,8.3c-8,0-15.4-2.9-20.8-8.3c-5.5-5.4-8.4-12.5-8.4-20.4S452.1,45.2,457.6,39.8z M478.4,73.8
			c7,0,12.7-6,12.7-13.6c0-7.7-5.6-13.6-12.7-13.6c-7,0-12.8,5.9-12.8,13.6C465.6,67.8,471.4,73.8,478.4,73.8z"/>
	</g>
	<g>
		<path fill="#13607E" d="M264.5,167.7v14.7h-30.8v-14.7h6.9V126H234v9.7h-12.8v-24.2h56v24.2h-12.7V126h-6.6v41.7H264.5z"/>
		<path fill="#13607E" d="M337.7,168h6.7v14.4h-21.3v-7.2c-3.6,5.5-8.8,8.1-15.8,8.1c-12,0-18.9-7.2-18.9-20.8v-20.3h-6.9v-14.5
			h22.7v30.1c0,7.7,2.1,11.3,8.7,11.3c5.6,0,9.5-4.1,9.5-11.3v-15.6H316v-14.5h21.7V168z"/>
		<path fill="#13607E" d="M349.9,142H343v-14.4h6.9v-16.1h15.7v16.1h6.9V142h-6.9v25.9h5.3v14.5h-21V142z"/>
		<path fill="#13607E" d="M384.1,142h-6.9v-14.4h6.9v-16.1h15.7v16.1h6.9V142h-6.9v25.9h5.3v14.5h-21V142z"/>
		<path fill="#13607E" d="M435.1,183.2c-15.3,0-26.8-11.8-26.8-28.2s11.5-28.2,26.8-28.2c7.4,0,12.7,2.3,16.7,7.7v-6.8h20.9V142h-6
			v25.9h6v14.5H451v-6.1C447.3,181,442.2,183.2,435.1,183.2z M438,168.6c7.6,0,13.2-5.7,13.2-13.7s-5.6-13.7-13.2-13.7
			s-13.2,5.7-13.2,13.7C424.8,162.9,430.4,168.6,438,168.6z"/>
		<path fill="#13607E" d="M528.8,167.7v14.7H498v-14.7h7V126h-7v-14.5h30.8V126h-6.5v41.7H528.8z"/>
		<path fill="#13607E" d="M538,142h-6.9v-14.4h6.9v-16.1h15.7v16.1h6.9V142h-6.9v25.9h5.3v14.5h-21V142z"/>
		<path fill="#13607E" d="M589.6,183.2c-15.3,0-26.8-11.8-26.8-28.2s11.5-28.2,26.8-28.2c7.4,0,12.7,2.3,16.7,7.7v-6.8h20.9V142h-6
			v25.9h6v14.5h-21.7v-6.1C601.9,181,596.7,183.2,589.6,183.2z M592.5,168.6c7.6,0,13.2-5.7,13.2-13.7s-5.6-13.7-13.2-13.7
			s-13.2,5.7-13.2,13.7C579.3,162.9,584.9,168.6,592.5,168.6z"/>
		<path fill="#13607E" d="M637.7,125.9H631v-14.3h22.1V168h6.9v14.5h-29.2V168h6.9V125.9z"/>
		<path fill="#13607E" d="M670.4,142h-6.7v-14.4h22.1v40.3h6.9v14.5h-29.2v-14.5h6.9V142z M670.4,111.5h15.4v13.2h-15.4V111.5z"/>
		<path fill="#13607E" d="M720,183.2c-15.3,0-26.8-11.8-26.8-28.2s11.5-28.2,26.8-28.2c7.4,0,12.7,2.3,16.7,7.7v-6.8h20.9V142h-6
			v25.9h6v14.5h-21.7v-6.1C732.2,181,727,183.2,720,183.2z M722.8,168.6c7.6,0,13.2-5.7,13.2-13.7s-5.6-13.7-13.2-13.7
			s-13.2,5.7-13.2,13.7C709.7,162.9,715.3,168.6,722.8,168.6z"/>
		<path fill="#13607E" d="M768,142h-6.7v-14.4h21.3v7.3c3.5-5.3,8.5-8.2,15.7-8.2c12,0,18.9,7.3,18.9,20.9v20.2h7v14.5h-22.8v-30.1
			c0-7.7-2-11.3-8.6-11.3c-5.6,0-9.6,4.1-9.6,11.3v15.6h6.3v14.5H761v-14.5h7V142z"/>
		<path fill="#13607E" d="M852.1,183.2c-15.3,0-26.8-11.8-26.8-28.2s11.5-28.2,26.8-28.2c7.4,0,12.7,2.3,16.7,7.7v-6.8h20.9V142h-6
			v25.9h6v14.5H868v-6.1C864.4,181,859.2,183.2,852.1,183.2z M855,168.6c7.6,0,13.2-5.7,13.2-13.7s-5.6-13.7-13.2-13.7
			s-13.2,5.7-13.2,13.7C841.9,162.9,847.4,168.6,855,168.6z"/>
	</g>
</g>
</svg>
