<?xml version="1.0" encoding="utf-8"?>
<!-- Generator: Adobe Illustrator 23.0.1, SVG Export Plug-In . SVG Version: 6.00 Build 0)  -->
<svg version="1.1" id="Livello_1" xmlns="http://www.w3.org/2000/svg" xmlns:xlink="http://www.w3.org/1999/xlink" x="0px" y="0px"
	 viewBox="0 0 416.987 410.4" enable-background="new 0 0 416.987 410.4" xml:space="preserve">
<g>
	
		<linearGradient id="SVGID_1_" gradientUnits="userSpaceOnUse" x1="208.4933" y1="701.7043" x2="208.4933" y2="1112.1044" gradientTransform="matrix(1 0 0 1 0 -701.7043)">
		<stop  offset="0" style="stop-color:#FF6A00"/>
		<stop  offset="1" style="stop-color:#EC3D02"/>
	</linearGradient>
	<ellipse fill="url(#SVGID_1_)" cx="208.493" cy="205.2" rx="208.493" ry="205.2"/>
	<path fill="#FFFFFF" d="M273.347,262.707H254.6v29.64c0,15.58-12.667,28.247-28.247,28.247s-28.247-12.667-28.247-28.247v-29.64
		H131.86c-15.453,0-28.247-12.54-28.247-28.247c0-6.333,2.153-12.16,5.573-16.847h-0.127l94.367-125.4l0,0
		c5.067-6.967,13.427-11.653,22.8-11.653c15.58,0,28.247,12.54,28.247,28.247v97.28h18.747c15.58,0,28.247,12.667,28.247,28.247
		C301.467,250.04,288.927,262.707,273.347,262.707"/>
</g>
</svg>
