<?xml version="1.0" encoding="utf-8"?>
<!-- Generator: Adobe Illustrator 23.0.1, SVG Export Plug-In . SVG Version: 6.00 Build 0)  -->
<svg version="1.1" id="Livello_1" xmlns="http://www.w3.org/2000/svg" xmlns:xlink="http://www.w3.org/1999/xlink" x="0px" y="0px"
	 width="500px" height="500px" viewBox="0 0 500 500" enable-background="new 0 0 500 500" xml:space="preserve">
<g>
	<g id="Layer_2">
		
			<linearGradient id="SVGID_1_" gradientUnits="userSpaceOnUse" x1="250" y1="385.74" x2="250" y2="-114.26" gradientTransform="matrix(1 0 0 -1 0 385.74)">
			<stop  offset="0" style="stop-color:#00CBE1"/>
			<stop  offset="0.79" style="stop-color:#0A1E26"/>
		</linearGradient>
		<circle fill="url(#SVGID_1_)" cx="250" cy="250" r="250"/>
		<path fill="#FFFFFF" d="M175.832,345.377h-7.784c-1.517,5.404-5.017,8.716-11.284,8.716c-8.051,0-11.849-5.116-11.899-14.03
			h31.283c0.274-1.726,0.433-3.468,0.476-5.216c0-10.996-6.822-21.051-21.338-21.051c-14.12,0-23.986,9.013-23.986,24.65
			c0,15.637,10.243,23.708,23.044,23.708C166.343,362.154,174.027,355.799,175.832,345.377z M154.593,320.529
			c5.116,0,8.815,3.699,8.815,12.702h-18.393C145.58,325.368,148.901,320.529,154.593,320.529z"/>
		<path fill="#FFFFFF" d="M185.688,353.905h-5.305v6.832h27.397v-6.832h-4.829c-1.15,0.109-2.171-0.736-2.28-1.886
			c-0.012-0.128-0.012-0.257-0.001-0.385v-12.989c0-11.095,3.51-15.557,9.856-15.557c5.602,0,8.25,3.322,8.25,11.095v17.451
			c0.103,1.151-0.746,2.167-1.897,2.271c-0.124,0.011-0.249,0.011-0.374,0h-4.74v6.832h27.119v-6.832h-5.126
			c-1.151,0.103-2.167-0.746-2.271-1.897c-0.011-0.124-0.011-0.249,0-0.374v-19.345c0-12.137-5.503-18.393-15.27-18.393
			c-8.924,0-13.465,5.592-15.736,10.709v-9.291h-20.099v6.832h5.305c1.15-0.109,2.171,0.736,2.28,1.886
			c0.012,0.128,0.012,0.257,0.001,0.385v27.218c0.104,1.151-0.745,2.168-1.896,2.271
			C185.945,353.917,185.816,353.917,185.688,353.905z"/>
		<path fill="#FFFFFF" d="M174.85,377.91c-18.522,0-31.66,12.613-31.66,34.03c0,21.15,13.138,32.572,30.609,32.572
			c15.766,0,26.018-9.321,28.378-23.252h-9.459c-1.983,8.279-7.357,13.138-16.291,13.138c-12.474,0-17.6-8.141-17.729-20.892h43.48
			c0.403-2.252,0.622-4.534,0.654-6.822C202.832,391.97,194.166,377.91,174.85,377.91z M158.985,404.97
			c0.922-12.474,6.703-18.651,14.873-18.651c7.883,0,13.931,5.781,13.931,18.651H158.985z"/>
		<path fill="#FFFFFF" d="M273.906,379.883h-30.351v8.666h9.063c1.577,0,2.241,0.793,2.241,1.844
			c-0.015,0.448-0.105,0.891-0.268,1.309L239.48,429.54l-15.101-37.877c-0.163-0.418-0.253-0.861-0.268-1.309
			c0-1.051,0.664-1.844,2.241-1.844h8.924v-8.666h-34.982v8.666h4.204c2.628,0,3.55,0.793,4.601,3.421l22.369,52.285h11.304
			l22.201-52.285c1.18-2.628,1.983-3.421,4.601-3.421h4.333V379.883z"/>
		<path fill="#FFFFFF" d="M401.331,430.72v-27.327c0-16.856-7.754-25.483-20.892-25.483c-0.337,0-0.664,0-0.992,0
			c14.754-6.257,23.797-21.011,23.797-40.545c0-103.29,2.657-116.795,71.283-197.388c-7.788-15.883-17.237-30.897-28.19-44.788
			c-10.401,0.714-21.17,1.13-30.599,1.13c-35.974,0.03-84.758-2.122-124.698-5.374c0-0.992,0.06-2.082,0.06-3.133
			c0-37.897-26.841-77.609-85.849-83.846c-44.362,8.05-85.709,27.988-119.631,57.688c-4.444,10.144-6.755,21.092-6.792,32.166
			c0,33.524,18.046,47.704,39.097,47.704c25.354,0,39.533-18.483,39.533-36.102c0-20.148-13.317-33.039-29.211-33.039
			c-1.729-0.038-3.457,0.105-5.156,0.426c2.975-13.326,19.335-30.51,45.968-30.51c27.079,0,46.841,18.473,46.841,49.845
			c0,35.696-23.629,67.029-134.068,146.532v53.712l207.552-0.436l7.734-91.52h-35.696l-2.975,14.179
			c-2.578,12.89-7.298,17.62-22.806,18.473L129.1,241.215c57.698-36.102,107.564-61.754,136.2-92.591l-3.827,47.842l36.092-0.863
			l4.303-23.202c2.578-13.743,8.587-18.473,23.629-18.473h42.538c27.506,0,49.845-2.975,67.039-8.597
			C370.037,205.816,333.28,263.098,325.11,315.314h-19.662v6.832h5.949c1.14,0,1.616,0.565,1.616,1.329
			c-0.019,0.383-0.082,0.762-0.188,1.13l-10.342,24.184l-10.144-24.184c-0.134-0.365-0.227-0.744-0.278-1.13
			c0-0.763,0.466-1.329,1.606-1.329h5.88v-6.832h-42.27v-12.989h-8.061l-1.795,6.733c-0.992,3.599-3.133,6.544-7.585,6.544h-3.133
			v6.544h7.873v26.167c0,8.924,5.592,13.753,14.219,13.753c8.924,0,13.941-4.958,13.941-12.801v-12.523h-7.109v12.137
			c0,3.966-1.14,5.315-4.085,5.315s-4.264-1.329-4.264-5.315v-26.772h18.492c1.894,0,2.459,0.565,3.322,2.459l17.065,37.738
			c-5.691,11.284-9.202,13.089-12.613,13.089c-1.039,0.036-2.054-0.317-2.846-0.992c4.075-0.754,5.116-3.788,5.116-5.691
			c0-3.599-3.123-5.87-6.822-5.87c-3.833-0.003-6.943,3.103-6.946,6.936c0,0.088,0.002,0.175,0.005,0.263
			c0,5.503,4.264,11.195,12.424,11.195c1.103,0.003,2.203-0.11,3.282-0.337c-10.51,4.958-17.164,15.726-17.164,30.966
			c0,21.15,13.138,32.572,30.609,32.572c15.766,0,26.018-9.321,28.378-23.252h-9.459c-1.983,8.279-7.357,13.138-16.291,13.138
			c-12.474,0-17.6-8.141-17.729-20.892h43.48c0.403-2.253,0.622-4.534,0.654-6.822c0-14.715-8.666-28.755-27.982-28.755
			c-3.592-0.021-7.166,0.504-10.6,1.557c5.424-3.133,9.459-10.352,14.873-22.34l14.784-32.523c0.694-1.715,1.319-2.34,2.836-2.439
			c-0.561,5.061-0.849,10.148-0.863,15.24c0,21.963,10.907,37.887,28.289,42.478h-18.036v8.666h8.151
			c1.598-0.143,3.01,1.036,3.153,2.634c0.015,0.173,0.015,0.346,0,0.519v39.018c0.143,1.598-1.036,3.01-2.634,3.153
			c-0.173,0.016-0.346,0.016-0.519,0h-8.151v8.676h36.687v-8.676h-7.754c-1.592,0.149-3.004-1.02-3.153-2.612
			c-0.017-0.18-0.017-0.361,0-0.541v-18.463c0-16.946,5.949-23.123,15.111-23.123c8.408,0,12.474,5.126,12.474,16.291v25.354
			c0.149,1.592-1.02,3.004-2.612,3.153c-0.18,0.017-0.361,0.017-0.541,0h-7.615v8.676h33.376c0.992-0.843,1.983-1.705,3.024-2.558
			v-6.118h-8.012c-1.59,0.172-3.018-0.978-3.189-2.568C401.313,431.111,401.312,430.915,401.331,430.72z M301.184,386.319
			c7.883,0,13.882,5.781,13.882,18.651h-28.755c0.992-12.474,6.772-18.651,14.913-18.651L301.184,386.319z M358.991,392.496v-11.393
			c1.12,0.079,2.261,0.139,3.421,0.139c2.206,0.001,4.409-0.151,6.594-0.456c-4.526,2.696-8.033,6.813-9.975,11.71L358.991,392.496z
			"/>
		<path fill="#FFFFFF" d="M111.916,322.145h3.887c1.14,0,1.616,0.565,1.616,1.329c-0.024,0.337-0.087,0.669-0.188,0.992
			l-8.726,24.938l-9.202-24.938c-0.172-0.303-0.267-0.643-0.278-0.992c0-0.853,0.466-1.418,1.606-1.418h4.075v-6.743H80.623v6.832
			h4.085c1.13,0,1.606,0.565,1.606,1.329c-0.02,0.337-0.083,0.671-0.188,0.992L77.5,349.403l-9.291-24.938
			c-0.173-0.303-0.272-0.643-0.288-0.992c0-0.763,0.476-1.329,1.616-1.329h3.966v-6.832H33.217v-12.989h-8.061l-1.795,6.733
			c-0.992,3.599-3.133,6.544-7.585,6.544h-3.133v6.544h7.873v26.167c0,0.367,0,0.724,0,1.081c1.408,3.242,2.866,6.445,4.402,9.608
			c2.805,2.131,6.267,3.215,9.787,3.064c8.924,0,13.941-4.958,13.941-12.801v-12.523h-7.08v12.137c0,3.966-1.14,5.315-4.085,5.315
			s-4.264-1.329-4.264-5.315v-26.772H51.61c1.904,0,2.558,0.565,3.322,2.459l15.359,37.074h9.916l10.332-28.824l10.996,28.824h9.916
			l14.407-37.074c0.763-1.894,1.428-2.459,3.322-2.459h3.133v-6.792h-20.396V322.145z"/>
		<path fill="#FFFFFF" d="M118.986,406.16l-14.189-3.421c-6.435-1.577-8.537-4.204-8.537-8.279c0-4.075,3.411-7.218,11.423-7.218
			c7.754,0,15.369,2.975,18.661,14.189h8.27v-21.665h-8.795l-0.526,6.693c-2.895-4.204-9.598-8.537-19.712-8.537
			c-14.318,0-22.806,8.141-22.806,18.651c0,10.51,8.141,16.033,17.997,18.393l14.189,3.55c6.435,1.577,9.192,4.958,9.192,8.924
			c0,4.859-4.065,8.012-12.216,8.012c-7.883,0-16.678-2.757-20.882-15.865h-8.418v16.152c2.687,2.419,5.414,4.789,8.21,7.1h0.724
			l0.526-8.141c4.462,6.564,12.603,9.985,21.279,9.985c15.24,0,24.303-8.279,24.303-19.712
			C137.677,413.12,128.089,408.391,118.986,406.16z"/>
	</g>
</g>
</svg>
